<svg width="26" height="19" viewBox="0 0 26 19" fill="none" xmlns="http://www.w3.org/2000/svg">
<path d="M0.25 15.5611C0.25 16.2956 0.541757 17 1.06109 17.5193C1.58042 18.0386 2.28479 18.3304 3.01923 18.3304H22.4038C23.1383 18.3304 23.8427 18.0386 24.362 17.5193C24.8813 17 25.1731 16.2956 25.1731 15.5611V12.0996H0.25V15.5611Z" fill="#138808"/>
<path d="M25.1731 6.56085V3.09931C25.1731 2.36486 24.8813 1.6605 24.362 1.14117C23.8427 0.621835 23.1383 0.330078 22.4038 0.330078H3.01923C2.28479 0.330078 1.58042 0.621835 1.06109 1.14117C0.541757 1.6605 0.25 2.36486 0.25 3.09931L0.25 6.56085H25.1731Z" fill="#FF9933"/>
<path d="M0.25 6.33008H25.1731V12.3303H0.25V6.33008Z" fill="#F7F7F7"/>
<path d="M12.7106 12.099C14.24 12.099 15.4799 10.8592 15.4799 9.32978C15.4799 7.80037 14.24 6.56055 12.7106 6.56055C11.1812 6.56055 9.94141 7.80037 9.94141 9.32978C9.94141 10.8592 11.1812 12.099 12.7106 12.099Z" fill="#000080"/>
<path d="M12.7115 11.6672C14.002 11.6672 15.0481 10.6211 15.0481 9.33068C15.0481 8.04024 14.002 6.99414 12.7115 6.99414C11.4211 6.99414 10.375 8.04024 10.375 9.33068C10.375 10.6211 11.4211 11.6672 12.7115 11.6672Z" fill="#F7F7F7"/>
<path d="M12.7807 8.46523L12.7115 8.91523L12.6422 8.46523L12.7115 7.11523L12.7807 8.46523ZM12.1382 7.1907L12.4207 8.51231L12.6042 8.92908L12.5543 8.477L12.1382 7.1907ZM11.6038 7.41223L12.2186 8.61546L12.5038 8.97062L12.339 8.54623L11.6038 7.41223ZM11.1448 7.76393L12.0503 8.76777L12.4179 9.03708L12.1486 8.66946L11.1448 7.76393ZM10.7931 8.22293L11.9271 8.95816L12.3515 9.12293L11.9963 8.8377L10.7931 8.22293ZM10.5716 8.75739L11.8579 9.17347L12.3099 9.22331L11.8932 9.03985L10.5716 8.75739ZM10.4961 9.33062L11.8461 9.39985L12.2961 9.33062L11.8461 9.26139L10.4961 9.33062ZM10.5716 9.90385L11.8932 9.62139L12.3099 9.43793L11.8579 9.48777L10.5716 9.90385ZM10.7931 10.4383L11.9963 9.82354L12.3515 9.53831L11.9271 9.70308L10.7931 10.4383ZM11.1448 10.8973L12.1486 9.99177L12.4179 9.62416L12.0503 9.89346L11.1448 10.8973ZM11.6038 11.249L12.339 10.115L12.5038 9.69062L12.2186 10.0458L11.6038 11.249ZM12.1382 11.4705L12.5543 10.1842L12.6042 9.73216L12.4207 10.1489L12.1382 11.4705ZM12.7115 11.546L12.7807 10.196L12.7115 9.746L12.6422 10.196L12.7115 11.546ZM13.2847 11.4705L13.0022 10.1489L12.8188 9.73216L12.8686 10.1842L13.2847 11.4705ZM13.8192 11.249L13.2044 10.0458L12.9192 9.69062L13.0839 10.115L13.8192 11.249ZM14.2782 10.8973L13.3726 9.89346L13.005 9.62416L13.2743 9.99177L14.2782 10.8973ZM14.6299 10.4383L13.4959 9.70308L13.0715 9.53831L13.4266 9.82354L14.6299 10.4383ZM14.8514 9.90385L13.5651 9.48777L13.113 9.43793L13.5298 9.62139L14.8514 9.90385ZM14.9269 9.33062L13.5769 9.26139L13.1269 9.33062L13.5769 9.39985L14.9269 9.33062ZM14.8514 8.75739L13.5298 9.03985L13.113 9.22331L13.5651 9.17347L14.8514 8.75739ZM14.6299 8.22293L13.4266 8.8377L13.0715 9.12293L13.4959 8.95816L14.6299 8.22293ZM14.2782 7.76393L13.2743 8.66946L13.005 9.03708L13.3726 8.76777L14.2782 7.76393ZM13.8192 7.41223L13.0839 8.54623L12.9192 8.97062L13.2044 8.61546L13.8192 7.41223ZM13.2847 7.1907L12.8686 8.477L12.8188 8.92908L13.0022 8.51231L13.2847 7.1907Z" fill="#6666B3"/>
<path d="M12.408 7.15778C12.4845 7.15778 12.5465 7.09579 12.5465 7.01932C12.5465 6.94285 12.4845 6.88086 12.408 6.88086C12.3315 6.88086 12.2695 6.94285 12.2695 7.01932C12.2695 7.09579 12.3315 7.15778 12.408 7.15778Z" fill="#000080"/>
<path d="M11.8201 7.31403C11.8966 7.31403 11.9586 7.25204 11.9586 7.17557C11.9586 7.0991 11.8966 7.03711 11.8201 7.03711C11.7436 7.03711 11.6816 7.0991 11.6816 7.17557C11.6816 7.25204 11.7436 7.31403 11.8201 7.31403Z" fill="#000080"/>
<path d="M11.2928 7.61872C11.3692 7.61872 11.4312 7.55673 11.4312 7.48026C11.4312 7.40379 11.3692 7.3418 11.2928 7.3418C11.2163 7.3418 11.1543 7.40379 11.1543 7.48026C11.1543 7.55673 11.2163 7.61872 11.2928 7.61872Z" fill="#000080"/>
<path d="M10.8611 8.04841C10.9376 8.04841 10.9996 7.98642 10.9996 7.90995C10.9996 7.83348 10.9376 7.77148 10.8611 7.77148C10.7846 7.77148 10.7227 7.83348 10.7227 7.90995C10.7227 7.98642 10.7846 8.04841 10.8611 8.04841Z" fill="#000080"/>
<path d="M10.5564 8.57575C10.6329 8.57575 10.6949 8.51376 10.6949 8.43729C10.6949 8.36082 10.6329 8.29883 10.5564 8.29883C10.48 8.29883 10.418 8.36082 10.418 8.43729C10.418 8.51376 10.48 8.57575 10.5564 8.57575Z" fill="#000080"/>
<path d="M10.4002 9.16559C10.4767 9.16559 10.5386 9.1036 10.5386 9.02713C10.5386 8.95066 10.4767 8.88867 10.4002 8.88867C10.3237 8.88867 10.2617 8.95066 10.2617 9.02713C10.2617 9.1036 10.3237 9.16559 10.4002 9.16559Z" fill="#000080"/>
<path d="M10.4002 9.77497C10.4767 9.77497 10.5386 9.71298 10.5386 9.63651C10.5386 9.56004 10.4767 9.49805 10.4002 9.49805C10.3237 9.49805 10.2617 9.56004 10.2617 9.63651C10.2617 9.71298 10.3237 9.77497 10.4002 9.77497Z" fill="#000080"/>
<path d="M10.5564 10.3648C10.6329 10.3648 10.6949 10.3028 10.6949 10.2264C10.6949 10.1499 10.6329 10.0879 10.5564 10.0879C10.48 10.0879 10.418 10.1499 10.418 10.2264C10.418 10.3028 10.48 10.3648 10.5564 10.3648Z" fill="#000080"/>
<path d="M10.8611 10.8922C10.9376 10.8922 10.9996 10.8302 10.9996 10.7537C10.9996 10.6772 10.9376 10.6152 10.8611 10.6152C10.7846 10.6152 10.7227 10.6772 10.7227 10.7537C10.7227 10.8302 10.7846 10.8922 10.8611 10.8922Z" fill="#000080"/>
<path d="M11.2928 11.3218C11.3692 11.3218 11.4312 11.2599 11.4312 11.1834C11.4312 11.1069 11.3692 11.0449 11.2928 11.0449C11.2163 11.0449 11.1543 11.1069 11.1543 11.1834C11.1543 11.2599 11.2163 11.3218 11.2928 11.3218Z" fill="#000080"/>
<path d="M11.8201 11.6265C11.8966 11.6265 11.9586 11.5645 11.9586 11.4881C11.9586 11.4116 11.8966 11.3496 11.8201 11.3496C11.7436 11.3496 11.6816 11.4116 11.6816 11.4881C11.6816 11.5645 11.7436 11.6265 11.8201 11.6265Z" fill="#000080"/>
<path d="M12.408 11.7867C12.4845 11.7867 12.5465 11.7247 12.5465 11.6482C12.5465 11.5718 12.4845 11.5098 12.408 11.5098C12.3315 11.5098 12.2695 11.5718 12.2695 11.6482C12.2695 11.7247 12.3315 11.7867 12.408 11.7867Z" fill="#000080"/>
<path d="M13.0174 11.7867C13.0938 11.7867 13.1558 11.7247 13.1558 11.6482C13.1558 11.5718 13.0938 11.5098 13.0174 11.5098C12.9409 11.5098 12.8789 11.5718 12.8789 11.6482C12.8789 11.7247 12.9409 11.7867 13.0174 11.7867Z" fill="#000080"/>
<path d="M13.6072 11.6265C13.6837 11.6265 13.7457 11.5645 13.7457 11.4881C13.7457 11.4116 13.6837 11.3496 13.6072 11.3496C13.5307 11.3496 13.4688 11.4116 13.4688 11.4881C13.4688 11.5645 13.5307 11.6265 13.6072 11.6265Z" fill="#000080"/>
<path d="M14.1346 11.3218C14.211 11.3218 14.273 11.2599 14.273 11.1834C14.273 11.1069 14.211 11.0449 14.1346 11.0449C14.0581 11.0449 13.9961 11.1069 13.9961 11.1834C13.9961 11.2599 14.0581 11.3218 14.1346 11.3218Z" fill="#000080"/>
<path d="M14.5642 10.8922C14.6407 10.8922 14.7027 10.8302 14.7027 10.7537C14.7027 10.6772 14.6407 10.6152 14.5642 10.6152C14.4878 10.6152 14.4258 10.6772 14.4258 10.7537C14.4258 10.8302 14.4878 10.8922 14.5642 10.8922Z" fill="#000080"/>
<path d="M14.8689 10.3648C14.9454 10.3648 15.0074 10.3028 15.0074 10.2264C15.0074 10.1499 14.9454 10.0879 14.8689 10.0879C14.7925 10.0879 14.7305 10.1499 14.7305 10.2264C14.7305 10.3028 14.7925 10.3648 14.8689 10.3648Z" fill="#000080"/>
<path d="M15.0252 9.77497C15.1016 9.77497 15.1636 9.71298 15.1636 9.63651C15.1636 9.56004 15.1016 9.49805 15.0252 9.49805C14.9487 9.49805 14.8867 9.56004 14.8867 9.63651C14.8867 9.71298 14.9487 9.77497 15.0252 9.77497Z" fill="#000080"/>
<path d="M15.0252 9.16559C15.1016 9.16559 15.1636 9.1036 15.1636 9.02713C15.1636 8.95066 15.1016 8.88867 15.0252 8.88867C14.9487 8.88867 14.8867 8.95066 14.8867 9.02713C14.8867 9.1036 14.9487 9.16559 15.0252 9.16559Z" fill="#000080"/>
<path d="M14.8689 8.57575C14.9454 8.57575 15.0074 8.51376 15.0074 8.43729C15.0074 8.36082 14.9454 8.29883 14.8689 8.29883C14.7925 8.29883 14.7305 8.36082 14.7305 8.43729C14.7305 8.51376 14.7925 8.57575 14.8689 8.57575Z" fill="#000080"/>
<path d="M14.5642 8.04841C14.6407 8.04841 14.7027 7.98642 14.7027 7.90995C14.7027 7.83348 14.6407 7.77148 14.5642 7.77148C14.4878 7.77148 14.4258 7.83348 14.4258 7.90995C14.4258 7.98642 14.4878 8.04841 14.5642 8.04841Z" fill="#000080"/>
<path d="M14.1346 7.61872C14.211 7.61872 14.273 7.55673 14.273 7.48026C14.273 7.40379 14.211 7.3418 14.1346 7.3418C14.0581 7.3418 13.9961 7.40379 13.9961 7.48026C13.9961 7.55673 14.0581 7.61872 14.1346 7.61872Z" fill="#000080"/>
<path d="M13.6072 7.31403C13.6837 7.31403 13.7457 7.25204 13.7457 7.17557C13.7457 7.0991 13.6837 7.03711 13.6072 7.03711C13.5307 7.03711 13.4688 7.0991 13.4688 7.17557C13.4688 7.25204 13.5307 7.31403 13.6072 7.31403Z" fill="#000080"/>
<path d="M13.0174 7.15778C13.0938 7.15778 13.1558 7.09579 13.1558 7.01932C13.1558 6.94285 13.0938 6.88086 13.0174 6.88086C12.9409 6.88086 12.8789 6.94285 12.8789 7.01932C12.8789 7.09579 12.9409 7.15778 13.0174 7.15778Z" fill="#000080"/>
<path d="M12.7129 9.95514C13.057 9.95514 13.336 9.67618 13.336 9.33206C13.336 8.98795 13.057 8.70898 12.7129 8.70898C12.3688 8.70898 12.0898 8.98795 12.0898 9.33206C12.0898 9.67618 12.3688 9.95514 12.7129 9.95514Z" fill="#000080"/>
</svg>
