<svg width="29" height="18" viewBox="0 0 29 18" fill="none" xmlns="http://www.w3.org/2000/svg">
<g clip-path="url(#clip0_3766_51484)">
<path d="M12.5879 3.72852V5.04477H28.4284C28.4063 4.62029 28.3587 4.08367 28.1885 3.72852" fill="#EC1C24"/>
<path d="M27.4416 2.4082H12.5879V3.72445H28.1885C28.0191 3.23339 27.767 2.78555 27.4416 2.4082Z" fill="#E6E7E8"/>
<path d="M24.2706 1.0918H12.5879V2.40805H27.4416C26.7452 1.59415 25.5991 1.0918 24.2706 1.0918Z" fill="#EC1C24"/>
<path d="M28.4284 5.04102H12.5879V6.35727H28.443V5.4799C28.443 5.40162 28.4375 5.32529 28.435 5.24858C28.4334 5.22755 28.4309 5.17342 28.4284 5.04102Z" fill="#E6E7E8"/>
<path d="M12.5879 7.67367H28.443V6.35742H12.5879V7.67367Z" fill="#EC1C24"/>
<path d="M12.5879 8.99008H28.443V7.67383H12.5879V8.99008Z" fill="#E6E7E8"/>
<path d="M12.5879 8.99023H28.443V10.3065H12.5879V8.99023Z" fill="#EC1C24"/>
<path d="M1.74023 10.3105V11.6268H28.4435V10.3105H12.5884H1.74023Z" fill="#E6E7E8"/>
<path d="M1.74023 11.623H28.4435V12.9393H1.74023V11.623Z" fill="#EC1C24"/>
<path d="M1.74232 13.7491C1.74232 13.7491 1.73857 14.068 1.74858 14.2557H28.4352C28.4469 14.0633 28.4414 13.7491 28.4414 13.7491L28.4435 12.9395H1.74023L1.74232 13.7491Z" fill="#E6E7E8"/>
<path d="M5.91116 18.2244H24.2697C25.6019 18.2244 26.7093 17.7727 27.4657 16.8848H2.71094C3.49201 17.7921 4.62022 18.2244 5.90907 18.2244" fill="#EC1C24"/>
<path d="M2.71401 16.8885H27.4688C27.7988 16.4972 28.0453 16.0503 28.1948 15.5723H1.99219C2.14452 16.0489 2.38995 16.4952 2.7161 16.8885" fill="#E6E7E8"/>
<path d="M1.99005 15.576H28.1927C28.3293 15.1478 28.4105 14.706 28.4347 14.2598H1.74805C1.78935 14.7099 1.82774 15.0499 1.99005 15.576Z" fill="#EC1C24"/>
<path d="M12.5884 1.0918H5.91262C3.14758 1.0918 1.74023 3.00971 1.74023 5.37545V10.3055H12.5884V1.0918Z" fill="#176496"/>
<path d="M2.90631 3.42093L3.13329 3.25816L3.35985 3.42093L3.27181 3.15924L3.49754 2.99919H3.21883L3.13246 2.73633L3.04651 2.99919H2.76821L2.99477 3.15924L2.90631 3.42093ZM4.40587 3.42093L4.63285 3.25816L4.85941 3.42093L4.77179 3.15924L4.9971 2.99919H4.7188L4.63243 2.73633L4.54648 2.99919H4.26735L4.49391 3.15924L4.40587 3.42093ZM6.06022 3.42093L6.28678 3.25816L6.51376 3.42093L6.42572 3.15924L6.65103 2.99919H6.3744L6.28678 2.73633L6.20042 2.99919H5.92379L6.14784 3.15924L6.06022 3.42093ZM7.70248 3.42093L7.92904 3.25816L8.15601 3.42093L8.06839 3.15924L8.2937 2.99919H8.01415L7.92904 2.73633L7.84309 2.99919H7.56437L7.79051 3.15924L7.70248 3.42093ZM9.35057 3.42093L9.57755 3.25816L9.80411 3.42093L9.71649 3.15924L9.94221 2.99919H9.66308L9.57713 2.73633L9.49118 2.99919H9.21288L9.43819 3.15924L9.35057 3.42093ZM3.70449 4.10437L3.93105 3.94198L4.15761 4.10437L4.07041 3.84307L4.29572 3.68302H4.017L3.93064 3.42054L3.84594 3.68302H3.56639L3.79211 3.84307L3.70449 4.10437ZM5.20447 4.10437L5.43103 3.94198L5.65759 4.10437L5.56997 3.84307L5.79528 3.68302H5.51489L5.43103 3.42054L5.34466 3.68302H5.06636L5.29209 3.84307L5.20447 4.10437ZM6.85882 4.10437L7.08496 3.94198L7.31152 4.10437L7.2239 3.84307L7.44963 3.68302H7.17133L7.08496 3.42054L6.99859 3.68302H6.71988L6.9456 3.84307L6.85882 4.10437ZM8.50024 4.10437L8.72722 3.94198L8.95419 4.10437L8.86532 3.84307L9.09146 3.68302H8.81317L8.7268 3.42054L8.64126 3.68302H8.36255L8.58827 3.84307L8.50024 4.10437ZM10.1504 4.10437L10.3753 3.94198L10.6019 4.10437L10.5134 3.84307L10.7396 3.68302H10.4617L10.3749 3.42054L10.2894 3.68302H10.0106L10.2364 3.84307L10.1504 4.10437ZM11.0796 3.42093L11.3062 3.25816L11.5331 3.42093L11.4451 3.15924L11.6704 2.99919H11.3938L11.3058 2.73633L11.2198 2.99919H10.939L11.1672 3.15924L11.0796 3.42093ZM2.8842 8.88999L3.11118 8.72916L3.33774 8.88999L3.25012 8.63064L3.47543 8.47019L3.19713 8.47097L3.11034 8.2085L3.02523 8.47097L2.74609 8.47019L2.97182 8.63064L2.8842 8.88999ZM4.38417 8.88999L4.61073 8.72916L4.83771 8.88999L4.74968 8.63064L4.97498 8.47019L4.6971 8.47097L4.61032 8.2085L4.52478 8.47097L4.24649 8.47019L4.47179 8.63064L4.38417 8.88999ZM6.03853 8.88999L6.26509 8.72916L6.49207 8.88999L6.40403 8.63064L6.62934 8.47019L6.34937 8.47097L6.26467 8.2085L6.17872 8.47097L5.90042 8.47019L6.12615 8.63064L6.03853 8.88999ZM7.68078 8.88999L7.90734 8.72916L8.1339 8.88999L8.04753 8.63064L8.27159 8.47019L7.99287 8.47097L7.90692 8.2085L7.82097 8.47097L7.54267 8.47019L7.76798 8.63064L7.68078 8.88999ZM9.32846 8.88999L9.55543 8.72916L9.78241 8.88999L9.69563 8.63064L9.91968 8.47019L9.64139 8.47097L9.55502 8.2085L9.46948 8.47097L9.19077 8.47019L9.41608 8.63064L9.32846 8.88999ZM11.0575 8.88999L11.2841 8.72916L11.511 8.88999L11.423 8.63064L11.6487 8.47019L11.3688 8.47097L11.2836 8.2085L11.1977 8.47097L10.9181 8.47019L11.1451 8.63064L11.0575 8.88999ZM2.90631 4.78859L3.13329 4.62581L3.35985 4.78859L3.27181 4.5269L3.49754 4.36684L3.21883 4.36762L3.13246 4.10437L3.04651 4.36762L2.76821 4.36684L2.99477 4.5269L2.90631 4.78859ZM4.40587 4.78859L4.63285 4.62581L4.85941 4.78859L4.77179 4.5269L4.9971 4.36684L4.7188 4.36762L4.63243 4.10437L4.54648 4.36762L4.26735 4.36684L4.49391 4.5269L4.40587 4.78859ZM6.06022 4.78859L6.28678 4.62581L6.51376 4.78859L6.42572 4.5269L6.65103 4.36684L6.3744 4.36762L6.28678 4.10437L6.20042 4.36762L5.92379 4.36684L6.14784 4.5269L6.06022 4.78859ZM7.70248 4.78859L7.92904 4.62581L8.15601 4.78859L8.06839 4.5269L8.2937 4.36684L8.01415 4.36762L7.92904 4.10437L7.84309 4.36762L7.56437 4.36684L7.79051 4.5269L7.70248 4.78859ZM9.35057 4.78859L9.57755 4.62581L9.80411 4.78859L9.71649 4.5269L9.94221 4.36684L9.66308 4.36762L9.57713 4.10437L9.49118 4.36762L9.21288 4.36684L9.43819 4.5269L9.35057 4.78859ZM3.70449 5.47241L3.93105 5.31002L4.15761 5.47241L4.07041 5.21111L4.29572 5.05028H4.017L3.93064 4.78859L3.84594 5.05028H3.56639L3.79211 5.21111L3.70449 5.47241ZM5.20447 5.47241L5.43103 5.31002L5.65759 5.47241L5.56997 5.21111L5.79528 5.05028H5.51489L5.43103 4.78859L5.34466 5.05028H5.06636L5.29209 5.21111L5.20447 5.47241ZM6.85882 5.47241L7.08496 5.31002L7.31152 5.47241L7.2239 5.21111L7.44963 5.05028H7.17133L7.08496 4.78859L6.99859 5.05028H6.71988L6.9456 5.21111L6.85882 5.47241ZM8.50024 5.47241L8.72722 5.31002L8.95419 5.47241L8.86532 5.21111L9.09146 5.05028H8.81317L8.7268 4.78859L8.64126 5.05028H8.36255L8.58827 5.21111L8.50024 5.47241ZM10.1504 5.47241L10.3753 5.31002L10.6019 5.47241L10.5134 5.21111L10.7396 5.05028H10.4617L10.3749 4.78859L10.2894 5.05028H10.0106L10.2364 5.21111L10.1504 5.47241ZM11.0796 4.78859L11.3062 4.62581L11.5331 4.78859L11.4451 4.5269L11.6704 4.36684L11.3938 4.36762L11.3058 4.10437L11.2198 4.36762L10.939 4.36684L11.1672 4.5269L11.0796 4.78859ZM2.8842 6.15624L3.11118 5.99385L3.33774 6.15624L3.2497 5.89533L3.47543 5.73489L3.19671 5.73566L3.11034 5.47241L3.02523 5.73566L2.74609 5.73489L2.97182 5.89533L2.8842 6.15624ZM4.38417 6.15624L4.61073 5.99385L4.83771 6.15624L4.74968 5.89533L4.97498 5.73489L4.6971 5.73566L4.61032 5.47241L4.52478 5.73566L4.24649 5.73489L4.47138 5.89533L4.38417 6.15624ZM6.03853 6.15624L6.26509 5.99385L6.49165 6.15624L6.40403 5.89533L6.62934 5.73489L6.34937 5.73566L6.26467 5.47241L6.17872 5.73566L5.90042 5.73489L6.12615 5.89533L6.03853 6.15624ZM7.68078 6.15624L7.90692 5.99385L8.1339 6.15624L8.04753 5.89533L8.27159 5.73489L7.99287 5.73566L7.90692 5.47241L7.82097 5.73566L7.54267 5.73489L7.76798 5.89533L7.68078 6.15624ZM9.32846 6.15624L9.55543 5.99385L9.782 6.15624L9.69563 5.89533L9.91968 5.73489L9.64097 5.73566L9.55502 5.47241L9.46948 5.73566L9.19077 5.73489L9.41608 5.89533L9.32846 6.15624ZM3.68238 6.84007L3.90894 6.67807L4.1355 6.84007L4.0483 6.58071L4.27319 6.41949H3.99447L3.90852 6.15624L3.82299 6.41949H3.54427L3.77 6.58071L3.68238 6.84007ZM5.18235 6.84007L5.40891 6.67807L5.63547 6.84007L5.54785 6.58071L5.77316 6.41949H5.49403L5.4085 6.15624L5.32254 6.41949H5.04383L5.26997 6.58071L5.18235 6.84007ZM6.83712 6.84007L7.06285 6.67807L7.28983 6.84007L7.20054 6.58071L7.42752 6.41949H7.14922L7.06285 6.15624L6.9769 6.41949H6.69818L6.92391 6.58071L6.83712 6.84007ZM8.47729 6.84007L8.7051 6.67807L8.93208 6.84007L8.84446 6.58071L9.06935 6.41949H8.79105L8.70468 6.15624L8.61915 6.41949H8.34043L8.56616 6.58071L8.47729 6.84007ZM10.1254 6.84007L10.3532 6.67807L10.5802 6.84007L10.4921 6.58071L10.7183 6.41949H10.44L10.3532 6.15624L10.2672 6.41949H9.98853L10.2143 6.58071L10.1254 6.84007ZM11.0575 6.15624L11.2841 5.99385L11.5106 6.15624L11.423 5.89533L11.6487 5.73489L11.3688 5.73566L11.2836 5.47241L11.1977 5.73566L10.9181 5.73489L11.1451 5.89533L11.0575 6.15624ZM2.8842 7.52428L3.11118 7.36345L3.33774 7.52428L3.2497 7.26298L3.47543 7.10254L3.19671 7.10332L3.11034 6.84007L3.02523 7.10332L2.74609 7.10254L2.97182 7.26298L2.8842 7.52428ZM4.38417 7.52428L4.61073 7.36345L4.83771 7.52428L4.74968 7.26298L4.97498 7.10254L4.6971 7.10332L4.61032 6.84007L4.52478 7.10332L4.24649 7.10254L4.47138 7.26298L4.38417 7.52428ZM6.03853 7.52428L6.26509 7.36345L6.49165 7.52428L6.40403 7.26298L6.62934 7.10254L6.34937 7.10332L6.26467 6.84007L6.17872 7.10332L5.90042 7.10254L6.12615 7.26298L6.03853 7.52428ZM7.68078 7.52428L7.90692 7.36345L8.1339 7.52428L8.04753 7.26298L8.27159 7.10254L7.99287 7.10332L7.90692 6.84007L7.82097 7.10332L7.54267 7.10254L7.76798 7.26298L7.68078 7.52428ZM9.32846 7.52428L9.55543 7.36345L9.782 7.52428L9.69563 7.26298L9.91968 7.10254L9.64097 7.10332L9.55502 6.84007L9.46948 7.10332L9.19077 7.10254L9.41608 7.26298L9.32846 7.52428ZM3.68238 8.2085L3.90894 8.04572L4.1355 8.2085L4.0483 7.94681L4.27319 7.78792H3.99447L3.90852 7.52428L3.82299 7.78792H3.54427L3.77 7.94681L3.68238 8.2085ZM5.18235 8.2085L5.40891 8.04572L5.63547 8.2085L5.54785 7.94681L5.77316 7.78792H5.49403L5.4085 7.52428L5.32254 7.78792H5.04383L5.26997 7.94681L5.18235 8.2085ZM6.83712 8.2085L7.06285 8.04572L7.28983 8.2085L7.20054 7.94681L7.42752 7.78792H7.14922L7.06285 7.52428L6.9769 7.78792H6.69818L6.92391 7.94681L6.83712 8.2085ZM8.47729 8.2085L8.7051 8.04572L8.93208 8.2085L8.84446 7.94681L9.06935 7.78792H8.79105L8.70468 7.52428L8.61915 7.78792H8.34043L8.56616 7.94681L8.47729 8.2085ZM10.1254 8.2085L10.3532 8.04572L10.5802 8.2085L10.4921 7.94681L10.7183 7.78792H10.44L10.3532 7.52428L10.2672 7.78792H9.98853L10.2143 7.94681L10.1254 8.2085ZM11.0575 7.52428L11.2841 7.36345L11.5106 7.52428L11.423 7.26298L11.6487 7.10254L11.3688 7.10332L11.2836 6.84007L11.1977 7.10332L10.9181 7.10254L11.1451 7.26298L11.0575 7.52428Z" fill="white"/>
</g>
<defs>
<clipPath id="clip0_3766_51484">
<rect width="28" height="17" fill="white" transform="translate(0.808594 0.978516)"/>
</clipPath>
</defs>
</svg>
