<svg width="32" height="38" viewBox="0 0 32 38" fill="none" xmlns="http://www.w3.org/2000/svg">
<path id="Vector" d="M24.15 37.6L18.95 28.8H12.65C12.2167 28.8 11.8583 28.6583 11.575 28.375C11.2917 28.0917 11.15 27.7333 11.15 27.3C11.15 26.8667 11.2917 26.5083 11.575 26.225C11.8583 25.9417 12.2167 25.8 12.65 25.8H18.95L24.15 17H25.4L22.8 25.8H29.4L30.9 23.8H32L30.95 27.3L32 30.8H30.9L29.4 28.8H22.8L25.4 37.6H24.15ZM6.6 20.6L9.2 11.8H2.6L1.1 13.8H0L1.05 10.3L0 6.8H1.1L2.6 8.8H9.2L6.6 0H7.85L13.05 8.8H19.35C19.7833 8.8 20.1417 8.94167 20.425 9.225C20.7083 9.50833 20.85 9.86667 20.85 10.3C20.85 10.7333 20.7083 11.0917 20.425 11.375C20.1417 11.6583 19.7833 11.8 19.35 11.8H13.05L7.85 20.6H6.6Z" fill="#BFE4F4"/>
</svg>
