<svg width="36" height="34" viewBox="0 0 36 34" fill="none" xmlns="http://www.w3.org/2000/svg">
<path id="Vector" d="M8.512 34C7.46174 34 6.56313 33.6324 5.81615 32.8972C5.06915 32.1619 4.69565 31.2758 4.69565 30.2388C4.69565 29.2018 5.06645 28.3192 5.80805 27.591C6.54965 26.8627 7.45016 26.4986 8.50958 26.4986C8.82447 26.4986 9.13235 26.5358 9.43321 26.6101C9.73407 26.6843 10.0311 26.7958 10.3244 26.9444L14.8244 21.4521C14.3689 20.9389 14.0458 20.3767 13.8552 19.7655C13.6645 19.1542 13.6244 18.5157 13.7348 17.85L7.16388 15.7012C6.83279 16.3055 6.37491 16.783 5.79025 17.1338C5.20556 17.4844 4.53779 17.6598 3.78693 17.6598C2.75294 17.6598 1.86329 17.2948 1.11796 16.5648C0.372652 15.8348 0 14.9484 0 13.9056C0 12.8628 0.372313 11.9775 1.11694 11.2499C1.86157 10.5222 2.75901 10.1584 3.80927 10.1584C4.85956 10.1584 5.75347 10.523 6.491 11.2523C7.22855 11.9816 7.59733 12.8672 7.59733 13.9091C7.59733 14.0082 7.59231 14.0933 7.58226 14.1647C7.57225 14.236 7.56724 14.3014 7.56724 14.3608L14.1471 16.6077C14.4763 16.0014 14.9032 15.5041 15.4279 15.1157C15.9527 14.7274 16.5793 14.4629 17.3077 14.3222V7.43603C16.3104 7.25176 15.5433 6.79704 15.0065 6.07186C14.4697 5.34668 14.2013 4.56886 14.2013 3.73841C14.2013 2.72125 14.571 1.8439 15.3103 1.10635C16.0496 0.368784 16.9474 0 18.0036 0C19.0597 0 19.9563 0.367947 20.6932 1.10384C21.4302 1.83976 21.7987 2.72205 21.7987 3.7507C21.7987 4.57296 21.5288 5.34668 20.989 6.07186C20.4492 6.79704 19.6836 7.25176 18.6923 7.43603V14.3222C19.4207 14.4629 20.0488 14.7274 20.5766 15.1157C21.1043 15.5041 21.5428 16.0014 21.892 16.6077L28.4328 14.3608C28.4127 14.3064 28.4027 14.241 28.4027 14.1647V13.9091C28.4027 12.8672 28.7703 11.9816 29.5054 11.2523C30.2406 10.523 31.1334 10.1584 32.1836 10.1584C33.2339 10.1584 34.1325 10.5234 34.8795 11.2534C35.6265 11.9834 36 12.8697 36 13.9126C36 14.9554 35.6273 15.8407 34.882 16.5683C34.1367 17.296 33.2471 17.6598 32.2131 17.6598C31.4687 17.6598 30.801 17.4795 30.2101 17.1189C29.6192 16.7583 29.1612 16.2857 28.8361 15.7012L22.2652 17.85C22.3957 18.5157 22.362 19.1592 22.1644 19.7803C21.9667 20.4015 21.6371 20.9488 21.1756 21.4224L25.6756 26.9444C25.9425 26.7958 26.233 26.6843 26.547 26.6101C26.861 26.5358 27.1698 26.4986 27.4733 26.4986C28.5572 26.4986 29.4667 26.8615 30.2017 27.5874C30.9368 28.3133 31.3043 29.1948 31.3043 30.2318C31.3043 31.2688 30.932 32.1561 30.1874 32.8936C29.4428 33.6312 28.5453 34 27.4951 34C26.4448 34 25.5509 33.6345 24.8134 32.9036C24.0758 32.1726 23.707 31.285 23.707 30.2408C23.707 29.7671 23.7742 29.3394 23.9085 28.9575C24.0427 28.5757 24.2796 28.193 24.6191 27.8093L20.1191 22.2575C19.5017 22.636 18.7921 22.8252 17.9902 22.8252C17.1883 22.8252 16.4822 22.636 15.8719 22.2575L11.3809 27.8479C11.702 28.2144 11.9343 28.5865 12.0778 28.964C12.2212 29.3415 12.293 29.7671 12.293 30.2408C12.293 31.285 11.9254 32.1726 11.1902 32.9036C10.455 33.6345 9.56229 34 8.512 34ZM3.80532 16.471C4.52127 16.471 5.13159 16.2196 5.63627 15.7169C6.14097 15.2142 6.39333 14.6094 6.39333 13.9025C6.39333 13.1956 6.13876 12.593 5.62962 12.0947C5.1205 11.5964 4.50797 11.3472 3.79201 11.3472C3.07606 11.3472 2.46573 11.5985 1.96102 12.1013C1.45637 12.6039 1.20404 13.2087 1.20404 13.9157C1.20404 14.6226 1.45861 15.2252 1.96775 15.7235C2.47687 16.2218 3.08936 16.471 3.80532 16.471ZM8.50097 32.8112C9.21693 32.8112 9.82724 32.5599 10.3319 32.0572C10.8366 31.5545 11.089 30.9496 11.089 30.2427C11.089 29.5358 10.8344 28.9332 10.3253 28.4349C9.81616 27.9366 9.20362 27.6874 8.48767 27.6874C7.77171 27.6874 7.16138 27.9388 6.65667 28.4415C6.152 28.9441 5.89966 29.549 5.89966 30.2559C5.89966 30.9628 6.15421 31.5654 6.66333 32.0637C7.17247 32.562 7.78501 32.8112 8.50097 32.8112ZM18.0067 6.3126C18.7226 6.3126 19.3329 6.06125 19.8376 5.55854C20.3423 5.05585 20.5947 4.45105 20.5947 3.74413C20.5947 3.03722 20.3401 2.43459 19.831 1.93626C19.3218 1.43795 18.7093 1.1888 17.9933 1.1888C17.2774 1.1888 16.6671 1.44014 16.1624 1.94283C15.6577 2.44554 15.4053 3.05035 15.4053 3.75727C15.4053 4.46419 15.6599 5.0668 16.169 5.56511C16.6782 6.06344 17.2907 6.3126 18.0067 6.3126ZM18.0045 21.6364C18.8724 21.6364 19.6104 21.3347 20.2184 20.7314C20.8264 20.1281 21.1304 19.3979 21.1304 18.541C21.1304 17.6841 20.8248 16.9554 20.2136 16.3551C19.6023 15.7547 18.8645 15.4545 18 15.4545C17.1351 15.4545 16.3972 15.7563 15.7861 16.3598C15.1751 16.9634 14.8696 17.6919 14.8696 18.5455C14.8696 19.3994 15.1751 20.1281 15.7861 20.7314C16.3972 21.3347 17.1366 21.6364 18.0045 21.6364ZM27.5123 32.8112C28.2283 32.8112 28.8386 32.5598 29.3433 32.0572C29.848 31.5545 30.1003 30.9496 30.1003 30.2427C30.1003 29.5358 29.8458 28.9332 29.3367 28.4349C28.8275 27.9366 28.215 27.6874 27.499 27.6874C26.7831 27.6874 26.1728 27.9388 25.6681 28.4415C25.1634 28.9441 24.911 29.549 24.911 30.2559C24.911 30.9628 25.1656 31.5654 25.6747 32.0637C26.1838 32.562 26.7964 32.8112 27.5123 32.8112V32.8112ZM32.208 16.471C32.9239 16.471 33.5343 16.2196 34.039 15.7169C34.5437 15.2142 34.796 14.6094 34.796 13.9025C34.796 13.1956 34.5414 12.593 34.0323 12.0947C33.5232 11.5964 32.9106 11.3472 32.1947 11.3472C31.4787 11.3472 30.8684 11.5985 30.3637 12.1013C29.859 12.6039 29.6067 13.2087 29.6067 13.9157C29.6067 14.6226 29.8612 15.2252 30.3704 15.7235C30.8795 16.2218 31.492 16.471 32.208 16.471Z" fill="#BFE4F4"/>
</svg>
