<svg width="36" height="35" viewBox="0 0 36 35" fill="none" xmlns="http://www.w3.org/2000/svg">
<path id="Vector" d="M23 33.2808L16.1154 26.3962L17.2269 25.2847L23 31.0577L34.6808 19.377L35.7923 20.4885L23 33.2808ZM32 14.4654H30.4616V4.3077H24.9231V8.07695H7.0769V4.3077H1.53845V33.2308H13.7807V34.7693H0V2.76925H12.8692C12.9743 1.98718 13.3186 1.33014 13.9019 0.798102C14.4852 0.266035 15.1846 0 16 0C16.8281 0 17.5306 0.266035 18.1076 0.798102C18.6846 1.33014 19.0257 1.98718 19.1308 2.76925H32V14.4654ZM16.0068 4.76925C16.4664 4.76925 16.8493 4.6138 17.1558 4.3029C17.4622 3.99197 17.6154 3.6067 17.6154 3.1471C17.6154 2.6875 17.4599 2.3045 17.149 1.9981C16.8381 1.69167 16.4529 1.53845 15.9932 1.53845C15.5336 1.53845 15.1507 1.69392 14.8443 2.00485C14.5378 2.31575 14.3846 2.701 14.3846 3.1606C14.3846 3.6202 14.5401 4.00322 14.851 4.30965C15.1619 4.61605 15.5472 4.76925 16.0068 4.76925Z" fill="#BFE4F4"/>
</svg>
