<svg width="30" height="30" viewBox="0 0 30 30" fill="none" xmlns="http://www.w3.org/2000/svg">
<path id="Vector" d="M15.0056 30C12.9313 30 10.9812 29.6064 9.15517 28.8192C7.32914 28.032 5.74074 26.9636 4.38996 25.6141C3.03921 24.2646 1.96986 22.6777 1.18192 20.8534C0.393972 19.0291 0 17.0798 0 15.0056C0 12.9313 0.393597 10.9812 1.18079 9.15517C1.96801 7.32914 3.03638 5.74074 4.38588 4.38996C5.73538 3.03921 7.32228 1.96986 9.14658 1.18192C10.9709 0.393973 12.9202 0 14.9944 0C17.0687 0 19.0188 0.393597 20.8448 1.18079C22.6709 1.96801 24.2593 3.03637 25.61 4.38587C26.9608 5.73537 28.0301 7.32228 28.8181 9.14658C29.606 10.9709 30 12.9202 30 14.9944C30 17.0687 29.6064 19.0188 28.8192 20.8448C28.032 22.6709 26.9636 24.2593 25.6141 25.61C24.2646 26.9608 22.6777 28.0301 20.8534 28.8181C19.0291 29.606 17.0798 30 15.0056 30ZM13.2928 28.5128V25.2158C12.3508 25.2158 11.553 24.8805 10.8993 24.21C10.2456 23.5394 9.91879 22.7343 9.91879 21.7949V20.0812L1.75 11.9124C1.65811 12.4209 1.57851 12.9325 1.51121 13.4471C1.4439 13.9617 1.41025 14.4809 1.41025 15.0048C1.41025 18.4439 2.53578 21.4509 4.78683 24.0257C7.03792 26.6004 9.87322 28.0962 13.2928 28.5128ZM25.0363 24.1816C25.6004 23.562 26.1058 22.8925 26.5524 22.1732C26.999 21.454 27.375 20.703 27.6805 19.9202C27.986 19.1375 28.2139 18.3344 28.3643 17.511C28.5146 16.6875 28.5898 15.8506 28.5898 15C28.5898 12.199 27.8235 9.64083 26.2911 7.3255C24.7587 5.0102 22.6909 3.33688 20.0876 2.30554V3.07792C20.0876 4.01244 19.7608 4.815 19.1071 5.48558C18.4535 6.15617 17.6556 6.49146 16.7137 6.49146H13.2928V9.91237C13.2928 10.3907 13.1252 10.7869 12.79 11.1012C12.4549 11.4155 12.0538 11.5727 11.5865 11.5727H8.20513V15H18.4273C18.9056 15 19.3019 15.1665 19.6162 15.4995C19.9305 15.8324 20.0876 16.235 20.0876 16.7073V21.7949H21.7858C22.5411 21.7949 23.2167 22.0162 23.8126 22.4587C24.4085 22.9013 24.8164 23.4756 25.0363 24.1816Z" fill="#BFE4F4"/>
</svg>
