<svg width="36" height="34" viewBox="0 0 36 34" fill="none" xmlns="http://www.w3.org/2000/svg">
<path id="Vector" d="M26 15.5384C26.4128 15.5384 26.7725 15.3853 27.0789 15.0789C27.3853 14.7725 27.5385 14.4128 27.5385 14C27.5385 13.5872 27.3853 13.2275 27.0789 12.9211C26.7725 12.6147 26.4128 12.4616 26 12.4616C25.5872 12.4616 25.2275 12.6147 24.9211 12.9211C24.6147 13.2275 24.4616 13.5872 24.4616 14C24.4616 14.4128 24.6147 14.7725 24.9211 15.0789C25.2275 15.3853 25.5872 15.5384 26 15.5384ZM10 10.5384H20V9H10V10.5384ZM4.5 34C3.5205 30.5077 2.52562 27.043 1.51535 23.6058C0.505117 20.1686 0 16.6333 0 13C0 10.4974 0.87435 8.37178 2.62305 6.62305C4.37178 4.87435 6.49743 4 9 4H20C20.8641 2.86153 21.8853 1.91025 23.0634 1.14615C24.2416 0.382049 25.5538 0 27 0C27.2692 0 27.5032 0.0993499 27.702 0.29805C27.9007 0.496783 28 0.730767 28 1C28 1.0718 27.9878 1.1436 27.9634 1.2154C27.9391 1.2872 27.9193 1.35515 27.9039 1.41925C27.668 2.01668 27.4789 2.62885 27.3366 3.25575C27.1943 3.88268 27.0641 4.51153 26.9461 5.1423L32.8039 11H36V21.4885L30.7346 23.2231L27.5 34H20V30H12V34H4.5ZM5.67305 32.4616H10.4615V28.4615H21.5385V32.4616H26.3654L29.4769 22.077L34.4616 20.3654V12.5384H32.1693L25.4616 5.83075C25.4693 5.07435 25.5391 4.34935 25.6711 3.65575C25.8032 2.96218 25.9821 2.2795 26.2077 1.6077C25.1205 1.88973 24.1257 2.36858 23.2231 3.04425C22.3205 3.71988 21.5949 4.55128 21.0461 5.53845H9C6.91867 5.53845 5.15475 6.26172 3.70825 7.70825C2.26172 9.15475 1.53845 10.9187 1.53845 13C1.53845 16.3504 2.00255 19.6239 2.93075 22.8205C3.85895 26.0171 4.77305 29.2308 5.67305 32.4616Z" fill="#BFE4F4"/>
</svg>
