<svg width="22" height="32" viewBox="0 0 22 32" fill="none" xmlns="http://www.w3.org/2000/svg">
<path id="Vector" d="M14.4693 32L2.23075 19.3V17H8C10.1051 17 12.0154 16.3385 13.7308 15.0154C15.4461 13.6923 16.3179 11.7385 16.3461 9.15385H0V7.6154H16.2885C15.932 5.86153 14.9827 4.41025 13.4404 3.26155C11.8981 2.11282 10.0846 1.53845 8 1.53845H0V0H22V1.53845H13.5693C14.6693 2.12818 15.6013 2.991 16.3654 4.1269C17.1295 5.2628 17.6154 6.42563 17.8231 7.6154H22V9.15385H17.8461C17.8359 12.0846 16.8455 14.3814 14.875 16.0443C12.9045 17.7071 10.6128 18.5385 8 18.5385H3.66925L16.5808 32H14.4693Z" fill="#BFE4F4"/>
</svg>
