<svg width="30" height="29" viewBox="0 0 30 29" fill="none" xmlns="http://www.w3.org/2000/svg">
<path id="Vector" d="M14.6154 28.2051V26.7949H26.9231V13.2949C26.9231 11.6838 26.604 10.161 25.9658 8.7265C25.3276 7.29203 24.4651 6.03347 23.3782 4.95083C22.2913 3.86822 21.026 3.00889 19.5823 2.37283C18.1385 1.73681 16.6111 1.41879 15 1.41879C13.3889 1.41879 11.8615 1.73681 10.4178 2.37283C8.974 3.00889 7.70868 3.86822 6.62179 4.95083C5.5349 6.03347 4.67236 7.29203 4.03417 8.7265C3.396 10.161 3.07692 11.6838 3.07692 13.2949V23.2468H0V15.0545H1.66667L1.6955 12.9295C1.75319 11.1154 2.14263 9.42093 2.86379 7.84612C3.58493 6.27135 4.54967 4.90383 5.758 3.74358C6.96633 2.58333 8.36271 1.66933 9.94712 1.00158C11.5315 0.33386 13.2106 0 14.9843 0C16.7854 0 18.4781 0.328512 20.0625 0.98554C21.6469 1.6426 23.0417 2.55286 24.2468 3.71633C25.4519 4.8798 26.4151 6.24732 27.1362 7.81887C27.8574 9.39046 28.2468 11.0908 28.3045 12.9199L28.3333 15.0545H30V23.2468H28.3333V28.2051H14.6154ZM10.641 16.6667C10.3326 16.6667 10.0632 16.5515 9.83279 16.321C9.60238 16.0906 9.48717 15.8212 9.48717 15.5128C9.48717 15.2001 9.60238 14.9297 9.83279 14.7014C10.0632 14.4731 10.3326 14.359 10.641 14.359C10.9537 14.359 11.2242 14.4731 11.4525 14.7014C11.6807 14.9297 11.7949 15.2001 11.7949 15.5128C11.7949 15.8212 11.6807 16.0906 11.4525 16.321C11.2242 16.5515 10.9537 16.6667 10.641 16.6667ZM19.359 16.6667C19.0506 16.6667 18.7812 16.5515 18.5508 16.321C18.3203 16.0906 18.2051 15.8212 18.2051 15.5128C18.2051 15.2001 18.3203 14.9297 18.5508 14.7014C18.7812 14.4731 19.0506 14.359 19.359 14.359C19.6717 14.359 19.9421 14.4731 20.1704 14.7014C20.3987 14.9297 20.5128 15.2001 20.5128 15.5128C20.5128 15.8212 20.3987 16.0906 20.1704 16.321C19.9421 16.5515 19.6717 16.6667 19.359 16.6667ZM6.1955 13.9872C6.10575 12.5406 6.30821 11.2254 6.80288 10.0417C7.29754 8.85789 7.96907 7.85285 8.81746 7.02654C9.66582 6.20023 10.6433 5.56508 11.7499 5.12108C12.8565 4.67711 13.963 4.45512 15.0696 4.45512C17.3074 4.45512 19.2233 5.16204 20.8173 6.57587C22.4112 7.98974 23.3802 9.75397 23.7244 11.8686C21.4163 11.844 19.3495 11.224 17.524 10.0085C15.6985 8.7931 14.307 7.21546 13.3494 5.27562C12.9538 7.26518 12.1193 9.02753 10.8459 10.5627C9.57256 12.0978 8.02242 13.2393 6.1955 13.9872Z" fill="#BFE4F4"/>
</svg>
