<svg width="31" height="24" viewBox="0 0 31 24" fill="none" xmlns="http://www.w3.org/2000/svg">
<path id="Vector" d="M0 24V17.3439C1.06204 16.8516 1.92259 16.1346 2.58165 15.1929C3.24075 14.2511 3.5703 13.1868 3.5703 12C3.5703 10.8132 3.24075 9.74177 2.58165 8.78571C1.92259 7.82969 1.06204 7.1198 0 6.65606V0H31V24H0ZM1.32478 22.6813H29.6752V1.31867H1.32478V5.82527C2.42215 6.50218 3.29154 7.38131 3.93295 8.46266C4.57437 9.54397 4.89507 10.7231 4.89507 12C4.89507 13.2769 4.57437 14.456 3.93295 15.5373C3.29154 16.6187 2.42215 17.4978 1.32478 18.1747V22.6813ZM10.0816 18.0495L25.3299 13.9517C25.7296 13.8308 26.0497 13.6352 26.2904 13.3648C26.531 13.0945 26.5907 12.7605 26.4692 12.3627C26.3699 11.9648 26.1502 11.7005 25.8102 11.5698C25.4701 11.439 25.1146 11.4198 24.7437 11.5121L20.309 12.7022L13.2942 6.02306L11.5522 6.40547L15.8212 13.8659L10.8103 15.1615L8.60448 13.4176L7.75332 13.7143L10.0816 18.0495Z" fill="#BFE4F4"/>
</svg>
