<svg width="15" height="14" viewBox="0 0 15 14" fill="none" xmlns="http://www.w3.org/2000/svg">
<path d="M5.48846 0C5.76065 0 6.01016 0.140031 6.16138 0.361134L9.70741 5.89606H13.8659C14.4934 5.89606 15 6.38985 15 7.00157C15 7.61329 14.4934 8.10708 13.8659 8.10708H9.70741L6.16138 13.642C6.05825 13.7998 5.89997 13.9158 5.71586 13.9686C5.53174 14.0213 5.33424 14.0073 5.15991 13.9291C4.98558 13.8509 4.84622 13.7137 4.76762 13.5431C4.68902 13.3724 4.6765 13.1798 4.73238 13.0008L6.30503 8.10708H2.14657L1.12586 9.4337C1.09151 9.48035 1.04602 9.51815 0.99333 9.54383C0.940638 9.56951 0.882325 9.5823 0.823427 9.5811H0.377337C0.12783 9.5811 -0.0536299 9.34525 0.0144176 9.10941L0.634406 7.00157L0.0144176 4.89373C-0.0536299 4.65789 0.12783 4.42204 0.377337 4.42204L0.823427 4.42204C0.882325 4.42084 0.940638 4.43363 0.99333 4.45931C1.04602 4.485 1.09151 4.52279 1.12586 4.56945L2.14657 5.89606H6.30503L4.73238 1.00233C4.5736 0.501165 4.95921 0 5.48846 0Z" fill="#121213"/>
</svg>
