<svg width="11" height="17" viewBox="0 0 11 17" fill="none" xmlns="http://www.w3.org/2000/svg">
<path d="M4.78401 1.10697H5.99235H7.20069C7.35982 1.10697 7.4888 1.23573 7.4888 1.39499H8.50534C8.50534 1.39499 8.50534 0.881024 8.50534 0.65508C8.50534 0.42936 8.35924 0.224408 8.13816 0.177786C7.85589 0.118588 7.55079 0.149755 7.34769 0.118588C6.9806 0.0620777 6.27461 0 5.99231 0C5.70996 0 5.00406 0.0620777 4.637 0.118588C4.43391 0.149723 4.1288 0.118588 3.84641 0.177786C3.62542 0.224408 3.47932 0.42936 3.47932 0.65508C3.47932 0.881024 3.47932 1.39499 3.47932 1.39499H4.49582C4.49586 1.23573 4.62488 1.10697 4.78401 1.10697Z" fill="#2A2D31"/>
<path d="M9.62279 3.84766H2.36478C1.6089 3.84766 0.996094 4.46053 0.996094 5.21634V13.3498C0.996094 14.1056 1.60887 14.7183 2.36478 14.7183H9.62279C10.3786 14.7183 10.9913 14.1056 10.9913 13.3498V5.21634C10.9913 4.46053 10.3786 3.84766 9.62279 3.84766ZM10.0866 13.3498C10.0866 13.6056 9.87852 13.8137 9.62276 13.8137H2.36478C2.10892 13.8137 1.90076 13.6056 1.90076 13.3498V5.21634C1.90076 4.96061 2.10892 4.75233 2.36478 4.75233H9.62279C9.87856 4.75233 10.0866 4.96061 10.0866 5.21634V13.3498H10.0866Z" fill="#2A2D31"/>
<path d="M4.40016 1.75391H3.57689V3.53938H4.40016V1.75391Z" fill="#2A2D31"/>
<path d="M8.4104 1.75391H7.58714V3.59944H8.4104V1.75391Z" fill="#2A2D31"/>
<path d="M2.95141 16.3835C3.33345 16.3835 3.64316 16.0738 3.64316 15.6918C3.64316 15.3097 3.33345 15 2.95141 15C2.56937 15 2.25966 15.3097 2.25966 15.6918C2.25966 16.0738 2.56937 16.3835 2.95141 16.3835Z" fill="#2A2D31"/>
<path d="M9.03495 15C8.65288 15 8.34332 15.3097 8.34332 15.6918C8.34332 16.0738 8.65288 16.3835 9.03495 16.3835C9.41704 16.3835 9.7267 16.0738 9.7267 15.6918C9.7267 15.3097 9.41704 15 9.03495 15Z" fill="#2A2D31"/>
<path d="M8.06864 6.58203H3.92239C3.75584 6.58203 3.6208 6.717 3.6208 6.88352C3.6208 7.05027 3.75584 7.18521 3.92239 7.18521H8.06864C8.23517 7.18521 8.37023 7.05027 8.37023 6.88352C8.37023 6.71697 8.23517 6.58203 8.06864 6.58203Z" fill="#2A2D31"/>
<path d="M8.06864 8.91797H3.92239C3.75584 8.91797 3.6208 9.05294 3.6208 9.21946C3.6208 9.38621 3.75584 9.52115 3.92239 9.52115H8.06864C8.23517 9.52115 8.37023 9.38621 8.37023 9.21946C8.37023 9.05294 8.23517 8.91797 8.06864 8.91797Z" fill="#2A2D31"/>
<path d="M8.06864 11.2539H3.92239C3.75584 11.2539 3.6208 11.3889 3.6208 11.5554C3.6208 11.7221 3.75584 11.8571 3.92239 11.8571H8.06864C8.23517 11.8571 8.37023 11.7221 8.37023 11.5554C8.37023 11.3888 8.23517 11.2539 8.06864 11.2539Z" fill="#2A2D31"/>
</svg>
