<svg width="13" height="8" viewBox="0 0 13 8" fill="none" xmlns="http://www.w3.org/2000/svg">
<path d="M11.9265 3.20776C12.1591 3.20776 12.3477 3.01921 12.3477 2.78664V1.20627C12.3477 0.973705 12.1591 0.785156 11.9265 0.785156H0.768774C0.536205 0.785156 0.347656 0.973705 0.347656 1.20627V2.78659C0.347656 3.01916 0.536205 3.20771 0.768774 3.20771C1.40797 3.20771 1.92803 3.72776 1.92803 4.36696C1.92803 5.00616 1.40797 5.52621 0.768774 5.52621C0.536205 5.52621 0.347656 5.71476 0.347656 5.94733V7.52764C0.347656 7.76021 0.536205 7.94876 0.768774 7.94876H11.9265C12.1591 7.94876 12.3477 7.76021 12.3477 7.52764V5.94733C12.3477 5.71476 12.1591 5.52621 11.9265 5.52621C11.2873 5.52621 10.7673 5.00616 10.7673 4.36696C10.7673 3.72776 11.2873 3.20776 11.9265 3.20776ZM11.5054 6.32386V7.10653H1.18989V6.32386C2.09198 6.12993 2.77026 5.32615 2.77026 4.36696C2.77026 3.40776 2.09198 2.60405 1.18989 2.41011V1.62739H11.5054V2.41005C10.6033 2.60399 9.92511 3.40776 9.92511 4.36696C9.92511 5.32615 10.6033 6.12993 11.5054 6.32386Z" fill="#2A2D31"/>
<path d="M6.73034 6.41211L5.23589 4.85655V4.41211H6.01367C6.20997 4.41211 6.37945 4.34818 6.52212 4.22033C6.66478 4.09248 6.75086 3.93418 6.78034 3.74544H5.01367V3.301H6.71367C6.65071 3.17137 6.55715 3.06485 6.43301 2.98144C6.30886 2.89804 6.16908 2.85641 6.01367 2.85655H5.01367V2.41211H7.68034V2.85655H6.95812C7.00997 2.91952 7.05626 2.98804 7.09701 3.06211C7.13775 3.13618 7.16923 3.21581 7.19145 3.301H7.68034V3.74544H7.23034C7.20071 4.06026 7.07108 4.32418 6.84145 4.53722C6.61182 4.75026 6.33589 4.8567 6.01367 4.85655H5.85256L7.34701 6.41211H6.73034Z" fill="#2A2D31"/>
</svg>
