<svg width="10" height="10" viewBox="0 0 10 10" fill="none" xmlns="http://www.w3.org/2000/svg">
<path d="M7.39422 5.11461C7.95069 5.30864 8.51713 4.43867 9.21015 3.04182C9.86021 1.7315 10.1204 1.025 9.94825 0.53826C9.77641 0.051209 9.25702 0.377362 9.06428 0.611034C8.87169 0.844901 6.78399 3.36188 6.5233 3.68594L5.22465 5.20819L4.16933 3.97129C4.01221 3.78094 4.06219 3.54998 4.10009 3.32797C4.16738 2.93289 4.16215 2.22336 3.69895 1.6792C3.23574 1.13537 2.14826 0.201893 2.04437 0.104647C1.9405 0.00740038 1.77945 -0.0479317 1.64814 0.0557012C1.51681 0.159041 1.57431 0.282186 1.67786 0.407577L3.00445 2.01701C3.11745 2.15424 3.09918 2.27611 2.98909 2.36348C2.88847 2.44279 2.71697 2.44408 2.63727 2.34748L1.26924 0.687811C1.15817 0.552811 0.967062 0.561776 0.855354 0.650057C0.743626 0.738358 0.694623 0.9191 0.805693 1.05441L2.17377 2.71406C2.25347 2.81066 2.21589 2.97445 2.11529 3.05379C2.0052 3.14111 1.87943 3.13248 1.76639 2.99557L0.439815 1.38617C0.336584 1.26045 0.225853 1.17982 0.0945201 1.28348C-0.0364739 1.38744 -0.0149141 1.55316 0.0602359 1.67312C0.135366 1.79309 0.837703 3.03109 1.2826 3.58934C1.72786 4.14725 2.43476 4.30238 2.84342 4.32127C3.07306 4.33182 3.31414 4.33246 3.47094 4.52313L4.59959 5.94077L2.14028 8.82356C2.05045 8.9288 2.00765 9.06475 2.02138 9.20102C2.0351 9.33731 2.10387 9.4627 2.2128 9.54844L2.27943 9.60124C2.38821 9.68714 2.5277 9.7268 2.66653 9.71096C2.80552 9.6953 2.93243 9.62589 3.01819 9.51774L5.22467 6.72596L7.67482 9.80343C7.76074 9.91091 7.88715 9.98065 8.02632 9.99665C8.16513 10.0123 8.30462 9.97264 8.41341 9.88659L8.48005 9.83413C8.58882 9.74807 8.65775 9.62268 8.67149 9.48671C8.68521 9.3501 8.6421 9.21448 8.55257 9.10923L5.84729 5.93803L6.48183 5.13506C6.63881 4.94442 7.08487 5.0068 7.39422 5.11461Z" fill="#2A2D31"/>
</svg>
