<svg width="22" height="17" viewBox="0 0 22 17" fill="none" xmlns="http://www.w3.org/2000/svg">
<path d="M9.00988 4.40222L9.25412 3.69311C9.05387 3.62413 8.83379 3.64304 8.64824 3.74517L9.00988 4.40222ZM6.03124 6.04165L5.6696 5.3846C5.46448 5.4975 5.32385 5.69971 5.2894 5.9313C5.25495 6.16289 5.33064 6.39729 5.49402 6.565L6.03124 6.04165ZM13.7987 6.0517L14.2006 6.68491C14.4439 6.5305 14.5772 6.25037 14.5436 5.9642C14.51 5.67803 14.3154 5.43642 14.043 5.34258L13.7987 6.0517ZM9.0051 9.09436L8.46788 9.6177C8.71551 9.8719 9.1074 9.91775 9.40702 9.72757L9.0051 9.09436ZM15.0063 5.28557L14.6044 4.65236L15.0063 5.28557ZM6.04183 10.9756L5.61588 11.5929C5.86364 11.7639 6.18961 11.7702 6.44376 11.6088L6.04183 10.9756ZM20.5292 7.11792L20.8909 7.77497L20.5292 7.11792ZM6.38225 14.9044L5.95629 15.5217C6.19011 15.683 6.49502 15.6984 6.74389 15.5614L6.38225 14.9044ZM5.34038 14.1855L5.76634 13.5682C5.53252 13.4068 5.22761 13.3914 4.97874 13.5284L5.34038 14.1855ZM5.33964 14.1859L4.91369 14.8032C5.1475 14.9645 5.45241 14.9799 5.70128 14.8429L5.33964 14.1859ZM1.16796 11.3073L0.806321 10.6502C0.578602 10.7756 0.432016 11.0099 0.418914 11.2695C0.405811 11.5291 0.52806 11.7769 0.742002 11.9246L1.16796 11.3073ZM4.14659 9.66784L4.57255 9.05054C4.33874 8.8892 4.03383 8.87381 3.78496 9.01079L4.14659 9.66784ZM8.64824 3.74517L5.6696 5.3846L6.39288 6.6987L9.37151 5.05927L8.64824 3.74517ZM14.043 5.34258L9.25412 3.69311L8.76563 5.11133L13.5545 6.76081L14.043 5.34258ZM9.40702 9.72757L14.2006 6.68491L13.3968 5.41848L8.60318 8.46114L9.40702 9.72757ZM5.49402 6.565L8.46788 9.6177L9.54232 8.57101L6.56846 5.5183L5.49402 6.565ZM14.6044 4.65236L5.63991 10.3424L6.44376 11.6088L15.4082 5.91879L14.6044 4.65236ZM21.2986 6.36908C19.9799 3.97327 16.9133 3.18683 14.6044 4.65236L15.4082 5.91879C16.9866 4.91693 19.083 5.45455 19.9845 7.09236L21.2986 6.36908ZM20.8909 7.77497C21.3917 7.49933 21.5742 6.86989 21.2986 6.36908L19.9845 7.09236C19.8607 6.86741 19.9426 6.58468 20.1676 6.46087L20.8909 7.77497ZM6.74389 15.5614L20.8909 7.77497L20.1676 6.46087L6.02061 14.2473L6.74389 15.5614ZM4.91443 14.8028L5.95629 15.5217L6.8082 14.2871L5.76634 13.5682L4.91443 14.8028ZM4.97874 13.5284L4.978 13.5288L5.70128 14.8429L5.70202 14.8425L4.97874 13.5284ZM5.7656 13.5686L1.59392 10.69L0.742002 11.9246L4.91369 14.8032L5.7656 13.5686ZM1.5296 11.9643L4.50823 10.3249L3.78496 9.01079L0.806321 10.6502L1.5296 11.9643ZM3.72064 10.2851L5.61588 11.5929L6.46779 10.3583L4.57255 9.05054L3.72064 10.2851Z" fill="#189EFF"/>
</svg>
