<svg width="12" height="8" viewBox="0 0 12 8" fill="none" xmlns="http://www.w3.org/2000/svg">
<path d="M7.93835 3.40759H4.75571L4.44352 2.73593C4.34548 2.52504 4.09506 2.43346 3.88416 2.53155C3.67327 2.62958 3.58174 2.88001 3.67978 3.09091L4.10516 4.00619C4.17423 4.15476 4.32319 4.24982 4.48703 4.24982H5.74707L5.31287 4.83023C5.17357 5.01642 5.21158 5.28038 5.39783 5.41969C5.47352 5.47628 5.56201 5.50363 5.64977 5.50363C5.77796 5.50363 5.90457 5.44529 5.98728 5.33473L6.79897 4.24977H7.93835C8.17091 4.24977 8.35946 4.06122 8.35946 3.82865C8.35946 3.59613 8.17091 3.40759 7.93835 3.40759Z" fill="#2A2D31"/>
<path d="M11.5789 2.84057C11.8115 2.84057 12 2.65203 12 2.41946V0.839086C12 0.606517 11.8115 0.417969 11.5789 0.417969H0.421118C0.188548 0.417969 0 0.606517 0 0.839086V2.4194C0 2.65197 0.188548 2.84052 0.421118 2.84052C1.06032 2.84052 1.58037 3.36057 1.58037 3.99977C1.58037 4.63897 1.06032 5.15902 0.421118 5.15902C0.188548 5.15902 0 5.34757 0 5.58014V7.16046C0 7.39303 0.188548 7.58157 0.421118 7.58157H11.5789C11.8115 7.58157 12 7.39303 12 7.16046V5.58014C12 5.34757 11.8115 5.15902 11.5789 5.15902C10.9397 5.15902 10.4197 4.63897 10.4197 3.99977C10.4197 3.36057 10.9397 2.84057 11.5789 2.84057ZM11.1578 5.95668V6.73934H0.842235V5.95668C1.74433 5.76274 2.42261 4.95896 2.42261 3.99977C2.42261 3.04058 1.74433 2.23686 0.842235 2.04292V1.2602H11.1578V2.04287C10.2557 2.2368 9.57745 3.04058 9.57745 3.99977C9.57745 4.95896 10.2557 5.76274 11.1578 5.95668Z" fill="#2A2D31"/>
</svg>
