<svg width="12" height="12" viewBox="0 0 12 12" fill="none" xmlns="http://www.w3.org/2000/svg">
<path d="M2.21372 5.35908C2.35465 5.78943 2.49534 6.21981 2.63603 6.65018L2.79333 7.16415C2.80321 7.19644 2.78079 7.22961 2.74715 7.23247C2.72265 7.23456 2.69993 7.21952 2.69228 7.19614L2.31936 6.05593C2.16956 5.59828 2.02002 5.14083 1.87048 4.68339L1.45097 3.40047L1.15254 2.48786L1.07669 2.25608C1.03685 2.13415 1.02173 2.01152 1.07293 1.88793C1.1352 1.7379 1.26446 1.65792 1.41352 1.61273C1.51563 1.58182 1.62013 1.55702 1.72572 1.54218C1.93942 1.51206 2.17312 1.52185 2.36473 1.63039C2.60791 1.76796 2.72402 2.02765 2.76768 2.29327C2.78184 2.37998 2.78376 2.46842 2.80414 2.5539C2.82447 2.63891 2.85702 2.72194 2.90177 2.79716C2.99104 2.9476 3.12247 3.06874 3.28018 3.14439C3.41252 3.20771 3.53402 3.28083 3.64151 3.38179C3.77416 3.50634 3.88202 3.65544 3.96811 3.81527C4.25166 4.34173 4.33972 4.96129 4.37236 5.5505C4.38456 5.76784 4.38246 5.98475 4.38438 6.20226C4.38605 6.38939 4.41201 6.5789 4.43411 6.76429C4.47904 7.14367 4.53902 7.5213 4.60543 7.89745C4.61932 7.97552 4.63518 8.04642 4.6855 8.11017C4.73448 8.17193 4.80685 8.21463 4.88409 8.22933C4.93923 8.23983 4.99294 8.23362 5.04713 8.22199L5.31667 8.16397L6.47632 7.91394L7.85937 7.6159C8.14797 7.5535 8.43659 7.49134 8.7252 7.42918L8.72652 7.42889C8.80066 7.41276 8.87294 7.39117 8.94857 7.38427C9.10705 7.37007 9.27002 7.38121 9.42658 7.40762C9.89199 7.48606 10.3193 7.73444 10.5409 8.1626C10.6489 8.37154 10.7948 9.64262 10.8076 9.87745C10.813 9.97659 10.8032 10.0794 10.7598 10.17C10.7068 10.2807 10.6076 10.3572 10.494 10.3989C10.3813 10.4403 10.2603 10.4489 10.1415 10.4567C10.0289 10.4642 9.91615 10.4687 9.80352 10.4722C9.52766 10.4807 9.25181 10.4839 8.9758 10.4851C8.61637 10.487 8.2567 10.4861 7.8972 10.4816C7.82277 10.4807 7.81242 10.3647 7.88731 10.3655C7.98749 10.3668 8.08763 10.3677 8.18775 10.3683C8.70428 10.3717 9.22129 10.3726 9.73768 10.3578C9.85452 10.3544 9.97131 10.3503 10.0881 10.3434C10.1918 10.3372 10.3007 10.334 10.4015 10.3062C10.5084 10.2768 10.6076 10.2204 10.6561 10.1167C10.6947 10.0341 10.6968 9.94439 10.689 9.85458C10.669 9.62552 10.5258 8.36426 10.4099 8.16417C10.2906 7.95853 10.1144 7.79444 9.90401 7.68493C9.72297 7.5907 9.52446 7.53559 9.32261 7.51C9.18696 7.49302 9.05566 7.48597 8.91492 7.5052C8.90407 7.50683 8.89349 7.5089 8.88287 7.5105C8.86763 7.51274 8.88859 7.50908 8.88401 7.51017C8.87442 7.51286 8.86458 7.51533 8.85497 7.51779C8.82981 7.52437 8.80461 7.53049 8.77935 7.53592L8.70612 7.55174L8.34934 7.62865L7.12011 7.89349L5.7862 8.18103C5.54054 8.23398 5.29517 8.28761 5.04945 8.33986C4.80855 8.39101 4.56233 8.24527 4.50672 8.00124C4.46824 7.83221 4.44568 7.65784 4.41849 7.48691C4.38758 7.29408 4.35917 7.10057 4.33425 6.90677C4.30994 6.71735 4.28886 6.52743 4.27522 6.33711C4.25992 6.12448 4.27091 5.91032 4.26257 5.6971C4.24895 5.34498 4.2149 4.9918 4.13996 4.64724C4.08618 4.40001 4.00943 4.15498 3.89613 3.92825C3.81693 3.7697 3.71081 3.61344 3.59082 3.49483C3.48975 3.39519 3.39337 3.326 3.27017 3.26846C3.11579 3.19627 2.98108 3.09972 2.87517 2.96519C2.76693 2.82804 2.69806 2.66183 2.67353 2.48903C2.65084 2.32964 2.63729 2.17602 2.5699 2.02721C2.52212 1.92186 2.45008 1.82816 2.35485 1.76146C2.18675 1.64344 1.96844 1.63047 1.77077 1.65385C1.66777 1.66612 1.56704 1.6885 1.46761 1.71801C1.40947 1.73535 1.34962 1.7519 1.29905 1.78684C1.23614 1.83054 1.18857 1.89514 1.16702 1.96876C1.13989 2.06202 1.16232 2.14428 1.19075 2.23093C1.26148 2.44656 1.332 2.66243 1.40252 2.8783L1.77149 4.00701C1.91905 4.45761 2.0664 4.90846 2.21372 5.35908Z" stroke="#2A2D31" stroke-width="0.7"/>
<path d="M7.89535 10.3681C7.87009 10.3685 7.84464 10.3692 7.81937 10.3696C7.74904 10.3709 7.67871 10.3723 7.60838 10.3737C7.50148 10.3759 7.39476 10.3779 7.28786 10.38C7.15304 10.3827 7.01842 10.3853 6.88361 10.388C6.72862 10.391 6.57382 10.394 6.41884 10.3972C6.25386 10.4003 6.08869 10.4037 5.92371 10.4068C5.75647 10.41 5.58904 10.4134 5.4218 10.4166C5.26078 10.4197 5.09976 10.423 4.93855 10.4261C4.79223 10.4289 4.64611 10.4317 4.49979 10.4346C4.37686 10.437 4.25393 10.4393 4.13099 10.4417C4.03992 10.4434 3.94886 10.4454 3.85779 10.4471C3.80707 10.4481 3.75654 10.449 3.70582 10.45C3.65736 10.451 3.60931 10.454 3.56058 10.4494C3.55548 10.4489 3.55038 10.4483 3.54527 10.4477C3.5362 10.4466 3.54906 10.4485 3.53998 10.447C3.53015 10.4454 3.52031 10.4437 3.51047 10.4417C3.4906 10.4375 3.47071 10.4323 3.45135 10.4251C3.43199 10.418 3.42478 10.4151 3.40419 10.4016C3.40037 10.3991 3.39675 10.3963 3.39293 10.3936C3.3817 10.3878 3.35721 10.3665 3.34904 10.3283C3.34501 10.3126 3.34229 10.2964 3.33882 10.2806C3.33004 10.2401 3.3207 10.1999 3.31136 10.1597C3.24947 9.89502 3.18383 9.6313 3.12025 9.36712C3.08791 9.2329 2.84717 7.51198 2.79333 7.16701C2.7889 7.13863 2.76161 7.1208 2.73359 7.12708V7.12708C2.70787 7.13284 2.69086 7.15733 2.69441 7.18344L2.95078 9.06408C2.96803 9.13774 2.98527 9.21119 3.00289 9.28464C3.03876 9.43493 3.07518 9.58501 3.1116 9.73508C3.14276 9.86301 3.17391 9.99095 3.20432 10.1189C3.21586 10.1672 3.22722 10.2155 3.23821 10.2641C3.24594 10.2984 3.25107 10.3351 3.26161 10.3682C3.31752 10.5447 3.52856 10.5666 3.66952 10.559C3.6942 10.5577 3.71871 10.5571 3.74341 10.5567C3.80959 10.5554 3.87577 10.5541 3.94195 10.5528C4.04735 10.5508 4.15256 10.5487 4.25796 10.5467C4.39239 10.5441 4.52702 10.5414 4.66145 10.5388C4.81738 10.5358 4.9735 10.5328 5.12943 10.5296C5.29648 10.5264 5.46354 10.523 5.6304 10.5198C5.80029 10.5166 5.96998 10.5131 6.13986 10.5099C6.30428 10.5068 6.46888 10.5034 6.63329 10.5003C6.78187 10.4974 6.93044 10.4945 7.07921 10.4916C7.2044 10.4891 7.3296 10.4866 7.4548 10.4844C7.54643 10.4826 7.63787 10.4807 7.72951 10.479C7.77929 10.478 7.82907 10.4771 7.87865 10.4761C7.88506 10.476 7.89147 10.4759 7.89789 10.4758C7.95783 10.4737 7.95607 10.3669 7.89535 10.3681Z" stroke="#2A2D31" stroke-width="0.7"/>
</svg>
