<svg width="17" height="12" viewBox="0 0 17 12" fill="none" xmlns="http://www.w3.org/2000/svg">
<circle cx="12.2998" cy="4.80469" r="4.5" fill="#189EFF"/>
<path d="M14.8623 5.05469C14.8623 5.21875 14.7334 5.33594 14.5811 5.33594H12.7061V7.21094C12.7061 7.375 12.5771 7.50391 12.4248 7.50391C12.2607 7.50391 12.1436 7.375 12.1436 7.21094V5.33594H10.2686C10.1045 5.33594 9.9873 5.21875 9.9873 5.06641C9.9873 4.90234 10.1045 4.77344 10.2686 4.77344H12.1436V2.89844C12.1436 2.74609 12.2607 2.62891 12.4248 2.62891C12.5771 2.62891 12.7061 2.74609 12.7061 2.89844V4.77344H14.5811C14.7334 4.77344 14.8623 4.90234 14.8623 5.05469Z" fill="#FAFAFA"/>
<path d="M3.7998 2.80529C3.5454 2.79859 3.29236 2.84796 3.05554 2.95048C2.81873 3.053 2.60294 3.20661 2.42086 3.40227C2.23878 3.59792 2.0941 3.83168 1.99531 4.08979C1.89652 4.34789 1.84563 4.62514 1.84563 4.90521C1.84563 5.18528 1.89652 5.46252 1.99531 5.72063C2.0941 5.97873 2.23878 6.21249 2.42086 6.40815C2.60294 6.60381 2.81873 6.75741 3.05554 6.85994C3.29236 6.96246 3.5454 7.01182 3.7998 7.00513C4.05421 7.01182 4.30725 6.96246 4.54407 6.85994C4.78088 6.75741 4.99667 6.60381 5.17875 6.40815C5.36083 6.21249 5.50551 5.97873 5.6043 5.72063C5.70309 5.46252 5.75398 5.18528 5.75398 4.90521C5.75398 4.62514 5.70309 4.34789 5.6043 4.08979C5.50551 3.83168 5.36083 3.59792 5.17875 3.40227C4.99667 3.20661 4.78088 3.053 4.54407 2.95048C4.30725 2.84796 4.05421 2.79859 3.7998 2.80529ZM2.7089 8.20457C2.20257 8.20457 1.71699 8.42593 1.35896 8.81997C1.00094 9.21401 0.799805 9.74844 0.799805 10.3057V11.8047H6.7998V10.3057C6.7998 9.74844 6.59867 9.21401 6.24065 8.81997C5.88262 8.42593 5.39704 8.20457 4.89071 8.20457H2.7089Z" fill="#67707B"/>
</svg>
