<svg width="32" height="31" viewBox="0 0 32 31" fill="none" xmlns="http://www.w3.org/2000/svg">
<circle cx="14.7969" cy="16.25" r="14" fill="#F1F5F9"/>
<g clip-path="url(#clip0_4250_41949)">
<path d="M14.7969 8.751C14.3305 8.73985 13.8666 8.82208 13.4324 8.99286C12.9982 9.16363 12.6026 9.41951 12.2688 9.74543C11.935 10.0714 11.6697 10.4607 11.4886 10.8907C11.3075 11.3206 11.2142 11.7825 11.2142 12.249C11.2142 12.7155 11.3075 13.1774 11.4886 13.6073C11.6697 14.0373 11.935 14.4266 12.2688 14.7526C12.6026 15.0785 12.9982 15.3344 13.4324 15.5051C13.8666 15.6759 14.3305 15.7582 14.7969 15.747C15.2633 15.7582 15.7272 15.6759 16.1614 15.5051C16.5955 15.3344 16.9911 15.0785 17.3249 14.7526C17.6587 14.4266 17.924 14.0373 18.1051 13.6073C18.2862 13.1774 18.3795 12.7155 18.3795 12.249C18.3795 11.7825 18.2862 11.3206 18.1051 10.8907C17.924 10.4607 17.6587 10.0714 17.3249 9.74543C16.9911 9.41951 16.5955 9.16363 16.1614 8.99286C15.7272 8.82208 15.2633 8.73985 14.7969 8.751ZM12.7969 17.745C11.8686 17.745 10.9784 18.1137 10.322 18.7701C9.66562 19.4265 9.29688 20.3167 9.29688 21.245V23.742H20.2969V21.245C20.2969 20.3167 19.9281 19.4265 19.2717 18.7701C18.6154 18.1137 17.7251 17.745 16.7969 17.745H12.7969Z" fill="#67707B"/>
</g>
<circle cx="25.5" cy="7" r="6.5" fill="#189EFF"/>
<path d="M28.75 7.5C28.75 7.71875 28.5781 7.875 28.375 7.875H25.875V10.375C25.875 10.5938 25.7031 10.7656 25.5 10.7656C25.2812 10.7656 25.125 10.5938 25.125 10.375V7.875H22.625C22.4062 7.875 22.25 7.71875 22.25 7.51562C22.25 7.29688 22.4062 7.125 22.625 7.125H25.125V4.625C25.125 4.42188 25.2812 4.26562 25.5 4.26562C25.7031 4.26562 25.875 4.42188 25.875 4.625V7.125H28.375C28.5781 7.125 28.75 7.29688 28.75 7.5Z" fill="#FAFAFA"/>
<defs>
<clipPath id="clip0_4250_41949">
<rect width="15" height="15" fill="white" transform="translate(7.29688 8.75)"/>
</clipPath>
</defs>
</svg>
