<svg width="11" height="11" viewBox="0 0 11 11" fill="none" xmlns="http://www.w3.org/2000/svg">
<circle cx="5.4229" cy="5.07812" r="5" fill="#123D6C"/>
<path d="M8.00332 3.78581V6.10808C8.00332 6.29128 7.90527 6.459 7.74529 6.55189V6.94667C7.74529 7.05247 7.65756 7.1402 7.55177 7.1402H7.42275C7.31696 7.1402 7.22923 7.05247 7.22923 6.94667V6.62414H5.42302V6.94667C5.42302 7.05247 5.33529 7.1402 5.2295 7.1402H5.10049C4.99469 7.1402 4.90696 7.05247 4.90696 6.94667V6.55189C4.74957 6.459 4.64893 6.29128 4.64893 6.10808V3.78581C4.64893 3.01172 5.42302 3.01172 6.32613 3.01172C7.22923 3.01172 8.00332 3.01172 8.00332 3.78581ZM5.68105 5.85005C5.68105 5.70813 5.56494 5.59202 5.42302 5.59202C5.28111 5.59202 5.16499 5.70813 5.16499 5.85005C5.16499 5.99196 5.28111 6.10808 5.42302 6.10808C5.56494 6.10808 5.68105 5.99196 5.68105 5.85005ZM7.48726 5.85005C7.48726 5.70813 7.37115 5.59202 7.22923 5.59202C7.08732 5.59202 6.9712 5.70813 6.9712 5.85005C6.9712 5.99196 7.08732 6.10808 7.22923 6.10808C7.37115 6.10808 7.48726 5.99196 7.48726 5.85005ZM7.48726 3.78581H5.16499V4.81793H7.48726V3.78581ZM4.13287 4.43088C4.12513 4.0748 3.83098 3.78581 3.4749 3.79871C3.30382 3.80217 3.14113 3.87342 3.02258 3.99681C2.90403 4.12019 2.83934 4.28561 2.84272 4.45669C2.84609 4.60304 2.89895 4.74393 2.99267 4.8564C3.08638 4.96886 3.21544 5.04625 3.35878 5.07596V7.1402H3.61681V5.07596C3.92129 5.01403 4.13287 4.7431 4.13287 4.43088Z" fill="white"/>
</svg>
