<svg width="13" height="13" viewBox="0 0 13 13" fill="none" xmlns="http://www.w3.org/2000/svg">
<path d="M6.2998 0.0078125C9.60449 0.0078125 12.2998 2.70312 12.2998 6.00781C12.2998 9.33594 9.60449 12.0078 6.2998 12.0078C2.97168 12.0078 0.299805 9.33594 0.299805 6.00781C0.299805 2.70312 2.97168 0.0078125 6.2998 0.0078125ZM5.7373 3.57031V6.57031C5.7373 6.89844 5.97168 7.13281 6.2998 7.13281C6.60449 7.13281 6.8623 6.89844 6.8623 6.57031V3.57031C6.8623 3.26562 6.60449 3.00781 6.2998 3.00781C5.97168 3.00781 5.7373 3.26562 5.7373 3.57031ZM6.2998 9.38281C6.69824 9.38281 7.02637 9.05469 7.02637 8.65625C7.02637 8.25781 6.69824 7.92969 6.2998 7.92969C5.87793 7.92969 5.5498 8.25781 5.5498 8.65625C5.5498 9.05469 5.87793 9.38281 6.2998 9.38281Z" fill="#DD1F03"/>
</svg>
