<svg width="13" height="12" viewBox="0 0 13 12" fill="none" xmlns="http://www.w3.org/2000/svg">
<path d="M2.88267 8.93892C3.59037 9.913 4.62581 10.599 5.79874 10.8709C6.97167 11.1427 8.20331 10.9822 9.26739 10.4188C10.3315 9.85542 11.1565 8.92697 11.5909 7.80405C12.0254 6.68113 12.04 5.43916 11.6321 4.30632C11.2243 3.17347 10.4214 2.22584 9.37085 1.63753C8.32034 1.04922 7.09282 0.859735 5.91381 1.1039C4.7348 1.34806 3.68349 2.00946 2.95303 2.96659C2.22257 3.92373 1.86202 5.1123 1.93762 6.31395M1.93762 6.31395L1.00012 5.37645M1.93762 6.31395L2.87512 5.37645" stroke="#515050" stroke-width="1.3" stroke-linecap="round" stroke-linejoin="round"/>
</svg>
