<svg width="17" height="17" viewBox="0 0 17 17" fill="none" xmlns="http://www.w3.org/2000/svg">
<g id="ep:copy-document">
<path id="Vector" d="M12.4883 13.9414C12.4883 14.4718 12.2776 14.9805 11.9025 15.3556C11.5274 15.7307 11.0187 15.9414 10.4883 15.9414H3.48828C2.95785 15.9414 2.44914 15.7307 2.07407 15.3556C1.69899 14.9805 1.48828 14.4718 1.48828 13.9414V6.94141C1.48828 6.41097 1.69899 5.90227 2.07407 5.52719C2.44914 5.15212 2.95785 4.94141 3.48828 4.94141V5.94141C3.22306 5.94141 2.96871 6.04676 2.78117 6.2343C2.59364 6.42184 2.48828 6.67619 2.48828 6.94141V13.9414C2.48828 14.2066 2.59364 14.461 2.78117 14.6485C2.96871 14.836 3.22306 14.9414 3.48828 14.9414H10.4883C10.7535 14.9414 11.0079 14.836 11.1954 14.6485C11.3829 14.461 11.4883 14.2066 11.4883 13.9414H12.4883Z" fill="#3661ED"/>
<path id="Vector_2" d="M6.48828 2.94141C6.22306 2.94141 5.96871 3.04676 5.78117 3.2343C5.59364 3.42184 5.48828 3.67619 5.48828 3.94141V10.9414C5.48828 11.2066 5.59364 11.461 5.78117 11.6485C5.96871 11.836 6.22306 11.9414 6.48828 11.9414H13.4883C13.7535 11.9414 14.0079 11.836 14.1954 11.6485C14.3829 11.461 14.4883 11.2066 14.4883 10.9414V3.94141C14.4883 3.67619 14.3829 3.42184 14.1954 3.2343C14.0079 3.04676 13.7535 2.94141 13.4883 2.94141H6.48828ZM6.48828 1.94141H13.4883C14.0187 1.94141 14.5274 2.15212 14.9025 2.52719C15.2776 2.90227 15.4883 3.41097 15.4883 3.94141V10.9414C15.4883 11.4718 15.2776 11.9805 14.9025 12.3556C14.5274 12.7307 14.0187 12.9414 13.4883 12.9414H6.48828C5.95785 12.9414 5.44914 12.7307 5.07407 12.3556C4.69899 11.9805 4.48828 11.4718 4.48828 10.9414V3.94141C4.48828 3.41097 4.69899 2.90227 5.07407 2.52719C5.44914 2.15212 5.95785 1.94141 6.48828 1.94141Z" fill="#3661ED"/>
</g>
</svg>
