<svg width="18" height="18" viewBox="0 0 18 18" fill="none" xmlns="http://www.w3.org/2000/svg">
<circle cx="9" cy="9.23242" r="8" stroke="#189EFF" stroke-width="1.5" stroke-linecap="round" stroke-linejoin="round"/>
<path d="M9.88888 1.27539C9.57955 1.53574 9.30085 1.84298 9.06372 2.19499C7.69235 4.23077 8.23096 6.99281 10.2667 8.36418C10.4274 8.47243 10.5927 8.56878 10.7614 8.65343C12.5555 9.5537 13.2405 8.34034 14.2119 8.99471C14.8421 9.41918 15.0088 10.2741 14.5843 10.9042C14.1395 11.5645 13.4444 11.8993 13.5647 12.9809C13.6326 13.5914 14.0076 14.1174 14.4936 14.566" stroke="#189EFF" stroke-width="1.5" stroke-linecap="round" stroke-linejoin="round"/>
<path d="M1.88892 6.81445C2.85059 7.04848 3.74047 7.60359 4.38315 8.45526C5.06819 9.36307 5.35216 10.4485 5.26478 11.4992C5.2185 12.0557 5.58141 12.6173 6.04839 12.9234C6.27402 13.0713 6.47845 13.26 6.65029 13.4877C7.4112 14.496 7.25937 15.9087 6.33336 16.7351" stroke="#189EFF" stroke-width="1.5" stroke-linecap="round" stroke-linejoin="round"/>
</svg>
