<svg width="35" height="35" viewBox="0 0 35 35" fill="none" xmlns="http://www.w3.org/2000/svg">
<path d="M18.5236 18.524H15.6817V9.99823H18.5236V18.524ZM18.5236 24.2078H15.6817V21.3659H18.5236V24.2078ZM17.1027 2.89343C15.2366 2.89343 13.3889 3.26097 11.6649 3.97507C9.9409 4.68917 8.37444 5.73584 7.05496 7.05533C4.39014 9.72014 2.89307 13.3344 2.89307 17.103C2.89307 20.8716 4.39014 24.4859 7.05496 27.1507C8.37444 28.4702 9.9409 29.5169 11.6649 30.231C13.3889 30.9451 15.2366 31.3126 17.1027 31.3126C20.8713 31.3126 24.4855 29.8155 27.1504 27.1507C29.8152 24.4859 31.3123 20.8716 31.3123 17.103C31.3123 15.237 30.9447 13.3892 30.2306 11.6652C29.5165 9.94126 28.4698 8.37481 27.1504 7.05533C25.8309 5.73584 24.2644 4.68917 22.5404 3.97507C20.8164 3.26097 18.9687 2.89343 17.1027 2.89343Z" fill="#EF665B"/>
</svg>
