<svg width="22" height="17" viewBox="0 0 22 17" fill="none" xmlns="http://www.w3.org/2000/svg">
<path d="M9.45188 4.94702L9.69612 4.2379C9.49587 4.16893 9.27579 4.18784 9.09024 4.28996L9.45188 4.94702ZM6.47324 6.58645L6.1116 5.9294C5.90648 6.04229 5.76585 6.24451 5.7314 6.4761C5.69695 6.70769 5.77264 6.94208 5.93602 7.10979L6.47324 6.58645ZM14.2407 6.59649L13.9965 7.30561C14.2122 7.37991 14.45 7.35198 14.6426 7.22971L14.2407 6.59649ZM15.4476 5.83046L15.0457 5.19724L15.0457 5.19724L15.4476 5.83046ZM6.8235 15.4493L6.39755 16.0666C6.63136 16.2279 6.93627 16.2433 7.18514 16.1063L6.8235 15.4493ZM5.78062 14.7297L5.35466 15.347L5.35467 15.347L5.78062 14.7297ZM5.23464 14.3529L5.6606 13.7356L5.6606 13.7356L5.23464 14.3529ZM3.69475 13.2904L3.30075 12.6522C3.08524 12.7852 2.95144 13.0181 2.94499 13.2713C2.93855 13.5245 3.06033 13.7638 3.2688 13.9077L3.69475 13.2904ZM3.69476 13.2903L4.08876 13.9285C4.30427 13.7955 4.43807 13.5626 4.44452 13.3094C4.45096 13.0562 4.32918 12.8169 4.12072 12.673L3.69476 13.2903ZM1.60894 11.8511L1.2473 11.194C1.01958 11.3193 0.872996 11.5537 0.859893 11.8133C0.846791 12.0729 0.96904 12.3207 1.18298 12.4684L1.60894 11.8511ZM4.58757 10.2116L5.01353 9.59433C4.77971 9.43299 4.47481 9.4176 4.22593 9.55458L4.58757 10.2116ZM6.48377 11.5201L6.05782 12.1374C6.30558 12.3083 6.63155 12.3146 6.8857 12.1533L6.48377 11.5201ZM9.4471 9.63915L9.84902 10.2724C10.0398 10.1513 10.1658 9.95069 10.192 9.7263C10.2183 9.50191 10.142 9.27763 9.98432 9.11581L9.4471 9.63915ZM9.09024 4.28996L6.1116 5.9294L6.83488 7.2435L9.81352 5.60407L9.09024 4.28996ZM14.485 5.88738L9.69612 4.2379L9.20763 5.65613L13.9965 7.30561L14.485 5.88738ZM15.0457 5.19724L13.8388 5.96328L14.6426 7.22971L15.8495 6.46367L15.0457 5.19724ZM21.7398 6.91397C20.4212 4.51815 17.3545 3.73172 15.0457 5.19724L15.8495 6.46367C17.4279 5.46182 19.5243 5.99944 20.4257 7.63724L21.7398 6.91397ZM21.3321 8.31986C21.8329 8.04421 22.0155 7.41477 21.7398 6.91397L20.4257 7.63724C20.3019 7.4123 20.3839 7.12957 20.6088 7.00576L21.3321 8.31986ZM7.18514 16.1063L21.3321 8.31986L20.6088 7.00576L6.46186 14.7922L7.18514 16.1063ZM5.35467 15.347L6.39755 16.0666L7.24945 14.832L6.20658 14.1124L5.35467 15.347ZM4.80868 14.9702L5.35466 15.347L6.20658 14.1124L5.6606 13.7356L4.80868 14.9702ZM3.2688 13.9077L4.80869 14.9702L5.6606 13.7356L4.12071 12.673L3.2688 13.9077ZM3.30076 12.6522L3.30075 12.6522L4.08875 13.9285L4.08876 13.9285L3.30076 12.6522ZM4.12072 12.673L2.0349 11.2338L1.18298 12.4684L3.2688 13.9076L4.12072 12.673ZM1.97058 12.5081L4.94921 10.8687L4.22593 9.55458L1.2473 11.194L1.97058 12.5081ZM4.16162 10.8289L6.05782 12.1374L6.90973 10.9028L5.01353 9.59433L4.16162 10.8289ZM9.04518 9.00594L6.08185 10.8869L6.8857 12.1533L9.84902 10.2724L9.04518 9.00594ZM5.93602 7.10979L8.90988 10.1625L9.98432 9.11581L7.01046 6.0631L5.93602 7.10979Z" fill="#189EFF"/>
</svg>
