<svg width="14" height="15" viewBox="0 0 14 15" fill="none" xmlns="http://www.w3.org/2000/svg">
<path d="M13.125 9.875C13.5898 9.875 14 10.2852 14 10.75V13.375C14 13.8672 13.5898 14.25 13.125 14.25H0.875C0.382812 14.25 0 13.8672 0 13.375V10.75C0 10.2852 0.382812 9.875 0.875 9.875H4.51172L5.74219 11.1328C6.07031 11.4609 6.50781 11.625 7 11.625C7.46484 11.625 7.90234 11.4609 8.23047 11.1328L9.46094 9.875H13.125ZM11.8125 12.7188C12.168 12.7188 12.4688 12.4453 12.4688 12.0625C12.4688 11.707 12.168 11.4062 11.8125 11.4062C11.4297 11.4062 11.1562 11.707 11.1562 12.0625C11.1562 12.4453 11.4297 12.7188 11.8125 12.7188ZM6.37109 10.5039L2.87109 7.00391C2.51562 6.67578 2.51562 6.10156 2.87109 5.77344C3.19922 5.41797 3.77344 5.41797 4.10156 5.77344L6.125 7.76953V1.125C6.125 0.660156 6.50781 0.25 7 0.25C7.46484 0.25 7.875 0.660156 7.875 1.125V7.76953L9.87109 5.77344C10.1992 5.41797 10.7734 5.41797 11.1016 5.77344C11.457 6.10156 11.457 6.67578 11.1016 7.00391L7.60156 10.5039C7.4375 10.668 7.21875 10.75 7 10.75C6.75391 10.75 6.53516 10.668 6.37109 10.5039Z" fill="#2A2D31"/>
</svg>
