<svg width="13" height="13" viewBox="0 0 13 13" fill="none" xmlns="http://www.w3.org/2000/svg">
<path d="M9.04688 1.03906C9.63281 0.453125 10.5938 0.453125 11.1797 1.03906L11.4609 1.32031C12.0469 1.90625 12.0469 2.86719 11.4609 3.45312L6.30469 8.60938C6.09375 8.82031 5.83594 8.9375 5.57812 9.00781L3.44531 9.5C3.32812 9.52344 3.1875 9.5 3.09375 9.40625C3 9.3125 2.97656 9.17188 3 9.05469L3.49219 6.92188C3.5625 6.66406 3.67969 6.40625 3.89062 6.19531L9.04688 1.03906ZM10.6406 1.57812C10.3594 1.27344 9.86719 1.27344 9.58594 1.57812L8.95312 2.1875L10.3125 3.54688L10.9219 2.91406C11.2266 2.63281 11.2266 2.14062 10.9219 1.85938L10.6406 1.57812ZM4.21875 7.08594L3.86719 8.63281L5.39062 8.28125C5.53125 8.25781 5.67188 8.1875 5.76562 8.07031L9.77344 4.0625L8.4375 2.72656L4.42969 6.73438C4.3125 6.82812 4.24219 6.96875 4.21875 7.08594ZM4.875 2C5.0625 2 5.25 2.1875 5.25 2.375C5.25 2.58594 5.0625 2.75 4.875 2.75H1.875C1.24219 2.75 0.75 3.26562 0.75 3.875V10.625C0.75 11.2578 1.24219 11.75 1.875 11.75H8.625C9.23438 11.75 9.75 11.2578 9.75 10.625V7.625C9.75 7.4375 9.91406 7.25 10.125 7.25C10.3125 7.25 10.5 7.4375 10.5 7.625V10.625C10.5 11.6797 9.65625 12.5 8.625 12.5H1.875C0.820312 12.5 0 11.6797 0 10.625V3.875C0 2.84375 0.820312 2 1.875 2H4.875Z" fill="black"/>
</svg>
