<svg width="17" height="19" viewBox="0 0 17 19" fill="none" xmlns="http://www.w3.org/2000/svg">
<path d="M15.6084 6.49773H15.176V4.41193C15.1757 4.39868 15.1744 4.38547 15.1722 4.3724C15.1728 4.2886 15.1429 4.20746 15.088 4.14411L11.6179 0.17975L11.6153 0.177199C11.5945 0.154749 11.5709 0.135036 11.5452 0.118534L11.5222 0.104505C11.5002 0.0922482 11.4769 0.0824133 11.4527 0.0751727L11.4336 0.0687963C11.4071 0.0621907 11.3799 0.0587658 11.3526 0.0585938H2.82255C2.43294 0.0585938 2.11666 0.375513 2.11666 0.764489V6.49709H1.68432C1.127 6.49709 0.675537 6.94856 0.675537 7.50588V12.7526C0.675537 13.3093 1.12764 13.7614 1.68432 13.7614H2.11666V17.3527C2.11666 17.7417 2.43294 18.0586 2.82255 18.0586H14.4701C14.8591 18.0586 15.176 17.7417 15.176 17.3527V13.7614H15.6084C16.1651 13.7614 16.6172 13.3099 16.6172 12.7526V7.50588C16.6172 6.9492 16.1657 6.49773 15.6084 6.49773ZM2.82255 0.764489H10.9993V4.37622C10.9993 4.57135 11.1575 4.72885 11.3526 4.72885H14.4708V6.49709H2.82255V0.764489ZM8.10369 10.4366C7.24667 10.1305 6.68106 9.65609 6.68106 8.90683C6.68106 8.02749 7.4233 7.36241 8.63168 7.36241C9.22088 7.36241 9.6411 7.47719 9.94718 7.62194L9.68702 8.55484C9.35357 8.39244 8.98726 8.30888 8.61638 8.31061C8.11135 8.31061 7.86648 8.54719 7.86648 8.80735C7.86648 9.13639 8.14897 9.28114 8.82234 9.53365C9.73293 9.87034 10.1531 10.3441 10.1531 11.0711C10.1531 11.9357 9.49572 12.6697 8.08074 12.6697C7.49154 12.6697 6.91062 12.509 6.61985 12.3483L6.85706 11.3924C7.25748 11.5969 7.69943 11.7068 8.14897 11.7138C8.68461 11.7138 8.96773 11.4913 8.96773 11.1552C8.96773 10.8339 8.7235 10.6508 8.10369 10.4366ZM2.0293 10.0846C2.0293 8.33293 3.28359 7.36177 4.84331 7.36177C5.44782 7.36177 5.9063 7.48356 6.1129 7.58368L5.86804 8.50893C5.55829 8.37886 5.22515 8.31375 4.88923 8.31763C3.97163 8.31763 3.25298 8.87558 3.25298 10.0227C3.25298 11.0475 3.8645 11.6979 4.89688 11.6979C5.25652 11.6979 5.63912 11.6297 5.87569 11.5295L6.04467 12.4471C5.83807 12.546 5.34834 12.6691 4.72917 12.6691C2.9469 12.6697 2.0293 11.5531 2.0293 10.0846ZM14.4701 17.1627H2.82255V13.762H14.4701V17.1627ZM13.5277 12.5932H12.1663L10.5147 7.43829H11.7919L12.4188 9.61846C12.5941 10.2376 12.7548 10.8192 12.8773 11.4613H12.9002C13.0306 10.8486 13.1861 10.2414 13.3663 9.64142L14.0244 7.43893H15.2628L13.5277 12.5932Z" fill="#2A2D31"/>
</svg>
