<svg width="12" height="10" viewBox="0 0 12 10" fill="none" xmlns="http://www.w3.org/2000/svg">
<path d="M5.04443 5.19531C5.04443 5.46053 5.14979 5.71488 5.33733 5.90242C5.52486 6.08996 5.77922 6.19531 6.04443 6.19531C6.30965 6.19531 6.564 6.08996 6.75154 5.90242C6.93908 5.71488 7.04443 5.46053 7.04443 5.19531C7.04443 4.9301 6.93908 4.67574 6.75154 4.48821C6.564 4.30067 6.30965 4.19531 6.04443 4.19531C5.77922 4.19531 5.52486 4.30067 5.33733 4.48821C5.14979 4.67574 5.04443 4.9301 5.04443 5.19531Z" stroke="#DD1F03" stroke-width="1.4" stroke-linecap="round" stroke-linejoin="round"/>
<path d="M11.0444 5.19531C9.71093 7.52881 8.04443 8.69531 6.04443 8.69531C4.04443 8.69531 2.37793 7.52881 1.04443 5.19531C2.37793 2.86181 4.04443 1.69531 6.04443 1.69531C8.04443 1.69531 9.71093 2.86181 11.0444 5.19531Z" stroke="#DD1F03" stroke-width="1.4" stroke-linecap="round" stroke-linejoin="round"/>
</svg>
