<svg width="21" height="17" viewBox="0 0 21 17" fill="none" xmlns="http://www.w3.org/2000/svg">
<path d="M19.5544 7.81603L20.2543 7.54647L19.5544 7.81603ZM19.5544 9.00233L18.8545 8.73277L19.5544 9.00233ZM0.884281 7.81603L0.184399 7.54646L0.884281 7.81603ZM0.884281 9.00233L0.184399 9.2719L0.884281 9.00233ZM1.58416 8.08559C2.91983 4.61776 6.28339 2.15918 10.2193 2.15918V0.65918C5.64258 0.65918 1.73562 3.51898 0.184399 7.54646L1.58416 8.08559ZM10.2193 2.15918C14.1553 2.15918 17.5188 4.61777 18.8545 8.0856L20.2543 7.54647C18.703 3.51899 14.7961 0.65918 10.2193 0.65918V2.15918ZM18.8545 8.73277C17.5188 12.2006 14.1553 14.6592 10.2193 14.6592V16.1592C14.7961 16.1592 18.703 13.2994 20.2543 9.2719L18.8545 8.73277ZM10.2193 14.6592C6.28339 14.6592 2.91983 12.2006 1.58416 8.73276L0.184399 9.2719C1.73562 13.2994 5.64258 16.1592 10.2193 16.1592V14.6592ZM18.8545 8.0856C18.9347 8.2937 18.9347 8.52466 18.8545 8.73277L20.2543 9.2719C20.4681 8.7168 20.4681 8.10157 20.2543 7.54647L18.8545 8.0856ZM0.184399 7.54646C-0.0294025 8.10156 -0.0294029 8.7168 0.184399 9.2719L1.58416 8.73276C1.50401 8.52466 1.50401 8.2937 1.58416 8.08559L0.184399 7.54646Z" fill="#189EFF"/>
<circle cx="10.2194" cy="8.40918" r="3" stroke="#189EFF" stroke-width="1.5" stroke-linecap="round" stroke-linejoin="round"/>
</svg>
