<svg width="15" height="19" viewBox="0 0 15 19" fill="none" xmlns="http://www.w3.org/2000/svg">
<path d="M5.19602 18.541C5.0955 18.5411 4.99617 18.5192 4.90503 18.4768C4.81389 18.4344 4.73314 18.3725 4.66845 18.2956C4.60377 18.2186 4.55672 18.1285 4.53061 18.0314C4.5045 17.9343 4.49996 17.8327 4.51731 17.7337V17.7296L5.57137 11.9415H1.49052C1.37725 11.9415 1.26629 11.9094 1.17049 11.8489C1.07469 11.7885 0.997948 11.7022 0.949151 11.6C0.900354 11.4977 0.881492 11.3838 0.894747 11.2713C0.908002 11.1588 0.952832 11.0524 1.02405 10.9643L9.24237 0.804723C9.33591 0.685978 9.46578 0.601139 9.6121 0.563181C9.75842 0.525223 9.91315 0.536235 10.0526 0.594533C10.1921 0.652831 10.3086 0.755206 10.3844 0.886003C10.4602 1.0168 10.4911 1.16882 10.4723 1.31881C10.4723 1.33006 10.4693 1.34094 10.4674 1.35219L9.40961 7.14179H13.4897C13.603 7.1418 13.7139 7.17388 13.8097 7.23432C13.9055 7.29475 13.9823 7.38107 14.0311 7.48329C14.0799 7.58551 14.0987 7.69946 14.0855 7.81196C14.0722 7.92445 14.0274 8.03089 13.9562 8.11898L5.73673 18.2785C5.67215 18.3601 5.58999 18.4261 5.49637 18.4716C5.40275 18.517 5.30008 18.5407 5.19602 18.541Z" fill="#189EFF"/>
</svg>
