<svg width="12" height="9" viewBox="0 0 12 9" fill="none" xmlns="http://www.w3.org/2000/svg">
<path d="M4.9458 4.71484C4.9458 4.98006 5.05116 5.23441 5.23869 5.42195C5.42623 5.60949 5.68058 5.71484 5.9458 5.71484C6.21102 5.71484 6.46537 5.60949 6.65291 5.42195C6.84044 5.23441 6.9458 4.98006 6.9458 4.71484C6.9458 4.44963 6.84044 4.19527 6.65291 4.00774C6.46537 3.8202 6.21102 3.71484 5.9458 3.71484C5.68058 3.71484 5.42623 3.8202 5.23869 4.00774C5.05116 4.19527 4.9458 4.44963 4.9458 4.71484Z" stroke="#DD1F03" stroke-width="1.4" stroke-linecap="round" stroke-linejoin="round"/>
<path d="M10.9458 4.71484C9.6123 7.04834 7.9458 8.21484 5.9458 8.21484C3.9458 8.21484 2.2793 7.04834 0.945801 4.71484C2.2793 2.38134 3.9458 1.21484 5.9458 1.21484C7.9458 1.21484 9.6123 2.38134 10.9458 4.71484Z" stroke="#D2DCE9" stroke-width="1.4" stroke-linecap="round" stroke-linejoin="round"/>
</svg>
