<svg width="12" height="13" viewBox="0 0 12 13" fill="none" xmlns="http://www.w3.org/2000/svg">
<path d="M5.85579 9.25C6.02107 9.25 6.15971 9.194 6.27171 9.082C6.38332 8.97039 6.43913 8.83194 6.43913 8.66667V6.31875C6.43913 6.15347 6.38332 6.01736 6.27171 5.91042C6.15971 5.80347 6.02107 5.75 5.85579 5.75C5.69052 5.75 5.55207 5.80581 5.44046 5.91742C5.32846 6.02942 5.27246 6.16806 5.27246 6.33333V8.68125C5.27246 8.84653 5.32846 8.98264 5.44046 9.08958C5.55207 9.19653 5.69052 9.25 5.85579 9.25ZM5.85579 4.58333C6.02107 4.58333 6.15971 4.52733 6.27171 4.41533C6.38332 4.30372 6.43913 4.16528 6.43913 4C6.43913 3.83472 6.38332 3.69608 6.27171 3.58408C6.15971 3.47247 6.02107 3.41667 5.85579 3.41667C5.69052 3.41667 5.55207 3.47247 5.44046 3.58408C5.32846 3.69608 5.27246 3.83472 5.27246 4C5.27246 4.16528 5.32846 4.30372 5.44046 4.41533C5.55207 4.52733 5.69052 4.58333 5.85579 4.58333ZM5.85579 12.1667C5.04885 12.1667 4.29052 12.0134 3.58079 11.707C2.87107 11.4009 2.25371 10.9854 1.72871 10.4604C1.20371 9.93542 0.788183 9.31806 0.482128 8.60833C0.175683 7.89861 0.0224609 7.14028 0.0224609 6.33333C0.0224609 5.52639 0.175683 4.76806 0.482128 4.05833C0.788183 3.34861 1.20371 2.73125 1.72871 2.20625C2.25371 1.68125 2.87107 1.26553 3.58079 0.959083C4.29052 0.653028 5.04885 0.5 5.85579 0.5C6.66274 0.5 7.42107 0.653028 8.13079 0.959083C8.84052 1.26553 9.45788 1.68125 9.98288 2.20625C10.5079 2.73125 10.9234 3.34861 11.2295 4.05833C11.5359 4.76806 11.6891 5.52639 11.6891 6.33333C11.6891 7.14028 11.5359 7.89861 11.2295 8.60833C10.9234 9.31806 10.5079 9.93542 9.98288 10.4604C9.45788 10.9854 8.84052 11.4009 8.13079 11.707C7.42107 12.0134 6.66274 12.1667 5.85579 12.1667ZM5.85579 11C7.14885 11 8.24999 10.5456 9.15921 9.63675C10.068 8.72753 10.5225 7.62639 10.5225 6.33333C10.5225 5.04028 10.068 3.93914 9.15921 3.02992C8.24999 2.12108 7.14885 1.66667 5.85579 1.66667C4.56274 1.66667 3.46179 2.12108 2.55296 3.02992C1.64374 3.93914 1.18913 5.04028 1.18913 6.33333C1.18913 7.62639 1.64374 8.72753 2.55296 9.63675C3.46179 10.5456 4.56274 11 5.85579 11Z" fill="#67707B"/>
</svg>
