<svg width="35" height="35" viewBox="0 0 35 35" fill="none" xmlns="http://www.w3.org/2000/svg">
<path d="M17.1027 2.91125C8.86335 2.91125 2.18262 9.59198 2.18262 17.8313C2.18262 26.0707 8.86335 32.7514 17.1027 32.7514C25.342 32.7514 32.0228 26.0707 32.0228 17.8313C32.0228 9.59198 25.342 2.91125 17.1027 2.91125ZM18.1684 25.0249C18.1684 25.1715 18.0485 25.2914 17.902 25.2914H16.3034C16.1569 25.2914 16.037 25.1715 16.037 25.0249V15.9663C16.037 15.8198 16.1569 15.6999 16.3034 15.6999H17.902C18.0485 15.6999 18.1684 15.8198 18.1684 15.9663V25.0249ZM17.1027 13.5684C16.6844 13.5599 16.2861 13.3877 15.9932 13.0889C15.7004 12.79 15.5364 12.3883 15.5364 11.9699C15.5364 11.5515 15.7004 11.1497 15.9932 10.8509C16.2861 10.552 16.6844 10.3798 17.1027 10.3713C17.521 10.3798 17.9193 10.552 18.2121 10.8509C18.505 11.1497 18.669 11.5515 18.669 11.9699C18.669 12.3883 18.505 12.79 18.2121 13.0889C17.9193 13.3877 17.521 13.5599 17.1027 13.5684Z" fill="#509AF8"/>
</svg>
