<svg width="15" height="15" viewBox="0 0 15 15" fill="none" xmlns="http://www.w3.org/2000/svg">
<path d="M7.76009 10.3086C7.92537 10.3086 8.06401 10.2526 8.17601 10.1406C8.28762 10.029 8.34342 9.89054 8.34342 9.72526V7.37734C8.34342 7.21207 8.28762 7.07595 8.17601 6.96901C8.06401 6.86207 7.92537 6.80859 7.76009 6.80859C7.59481 6.80859 7.45637 6.8644 7.34476 6.97601C7.23276 7.08801 7.17676 7.22665 7.17676 7.39193V9.73984C7.17676 9.90512 7.23276 10.0412 7.34476 10.1482C7.45637 10.2551 7.59481 10.3086 7.76009 10.3086ZM7.76009 5.64193C7.92537 5.64193 8.06401 5.58593 8.17601 5.47393C8.28762 5.36232 8.34342 5.22387 8.34342 5.05859C8.34342 4.89332 8.28762 4.75468 8.17601 4.64268C8.06401 4.53107 7.92537 4.47526 7.76009 4.47526C7.59481 4.47526 7.45637 4.53107 7.34476 4.64268C7.23276 4.75468 7.17676 4.89332 7.17676 5.05859C7.17676 5.22387 7.23276 5.36232 7.34476 5.47393C7.45637 5.58593 7.59481 5.64193 7.76009 5.64193ZM7.76009 13.2253C6.95315 13.2253 6.19481 13.072 5.48509 12.7656C4.77537 12.4595 4.15801 12.044 3.63301 11.519C3.10801 10.994 2.69248 10.3766 2.38642 9.66693C2.07998 8.9572 1.92676 8.19887 1.92676 7.39193C1.92676 6.58498 2.07998 5.82665 2.38642 5.11693C2.69248 4.4072 3.10801 3.78984 3.63301 3.26484C4.15801 2.73984 4.77537 2.32412 5.48509 2.01768C6.19481 1.71162 6.95315 1.55859 7.76009 1.55859C8.56704 1.55859 9.32537 1.71162 10.0351 2.01768C10.7448 2.32412 11.3622 2.73984 11.8872 3.26484C12.4122 3.78984 12.8277 4.4072 13.1338 5.11693C13.4402 5.82665 13.5934 6.58498 13.5934 7.39193C13.5934 8.19887 13.4402 8.9572 13.1338 9.66693C12.8277 10.3766 12.4122 10.994 11.8872 11.519C11.3622 12.044 10.7448 12.4595 10.0351 12.7656C9.32537 13.072 8.56704 13.2253 7.76009 13.2253ZM7.76009 12.0586C9.05315 12.0586 10.1543 11.6042 11.0635 10.6953C11.9723 9.78612 12.4268 8.68498 12.4268 7.39193C12.4268 6.09887 11.9723 4.99773 11.0635 4.08851C10.1543 3.17968 9.05315 2.72526 7.76009 2.72526C6.46704 2.72526 5.36609 3.17968 4.45726 4.08851C3.54804 4.99773 3.09342 6.09887 3.09342 7.39193C3.09342 8.68498 3.54804 9.78612 4.45726 10.6953C5.36609 11.6042 6.46704 12.0586 7.76009 12.0586Z" fill="#67707B"/>
</svg>
