<svg width="21" height="21" viewBox="0 0 21 21" fill="none" xmlns="http://www.w3.org/2000/svg">
<path d="M9.43428 13.7814L6.83428 11.1814C6.63428 10.9814 6.53428 10.7481 6.53428 10.4814C6.53428 10.2148 6.63428 9.98145 6.83428 9.78145L9.45928 7.15645C9.64261 6.97311 9.87161 6.88545 10.1463 6.89345C10.4216 6.90211 10.6509 6.99811 10.8343 7.18145C11.0176 7.36478 11.1093 7.59811 11.1093 7.88144C11.1093 8.16478 11.0176 8.39811 10.8343 8.58145L9.93428 9.48145H13.1593C13.4426 9.48145 13.6759 9.57711 13.8593 9.76845C14.0426 9.96045 14.1343 10.1981 14.1343 10.4814C14.1343 10.7648 14.0383 11.0021 13.8463 11.1934C13.6549 11.3854 13.4176 11.4814 13.1343 11.4814H9.93428L10.8593 12.4064C11.0426 12.5898 11.1303 12.8191 11.1223 13.0944C11.1136 13.3691 11.0176 13.5981 10.8343 13.7814C10.6509 13.9648 10.4176 14.0564 10.1343 14.0564C9.85094 14.0564 9.61761 13.9648 9.43428 13.7814ZM10.1343 20.4814C11.5176 20.4814 12.8176 20.2188 14.0343 19.6934C15.2509 19.1688 16.3093 18.4564 17.2093 17.5564C18.1093 16.6564 18.8216 15.5981 19.3463 14.3814C19.8716 13.1648 20.1343 11.8648 20.1343 10.4814C20.1343 9.09811 19.8716 7.79811 19.3463 6.58145C18.8216 5.36478 18.1093 4.30645 17.2093 3.40645C16.3093 2.50645 15.2509 1.79378 14.0343 1.26845C12.8176 0.743779 11.5176 0.481445 10.1343 0.481445C8.75094 0.481445 7.45094 0.743779 6.23428 1.26845C5.01761 1.79378 3.95928 2.50645 3.05928 3.40645C2.15928 4.30645 1.44694 5.36478 0.922277 6.58145C0.396944 7.79811 0.134277 9.09811 0.134277 10.4814C0.134277 11.8648 0.396944 13.1648 0.922277 14.3814C1.44694 15.5981 2.15928 16.6564 3.05928 17.5564C3.95928 18.4564 5.01761 19.1688 6.23428 19.6934C7.45094 20.2188 8.75094 20.4814 10.1343 20.4814ZM10.1343 18.4814C7.91761 18.4814 6.02994 17.7024 4.47128 16.1444C2.91328 14.5858 2.13428 12.6981 2.13428 10.4814C2.13428 8.26478 2.91328 6.37711 4.47128 4.81845C6.02994 3.26045 7.91761 2.48145 10.1343 2.48145C12.3509 2.48145 14.2383 3.26045 15.7963 4.81845C17.3549 6.37711 18.1343 8.26478 18.1343 10.4814C18.1343 12.6981 17.3549 14.5858 15.7963 16.1444C14.2383 17.7024 12.3509 18.4814 10.1343 18.4814Z" fill="#B9CBE2"/>
</svg>
