<svg width="15" height="15" viewBox="0 0 15 15" fill="none" xmlns="http://www.w3.org/2000/svg">
<path d="M0.78125 7.25C0.78125 5.39348 1.51875 3.61301 2.8315 2.30025C4.14426 0.987498 5.92473 0.25 7.78125 0.25C9.63776 0.25 11.4182 0.987498 12.731 2.30025C14.0438 3.61301 14.7812 5.39348 14.7812 7.25C14.7812 9.10651 14.0438 10.887 12.731 12.1997C11.4182 13.5125 9.63776 14.25 7.78125 14.25C5.92473 14.25 4.14426 13.5125 2.8315 12.1997C1.51875 10.887 0.78125 9.10651 0.78125 7.25ZM4.98125 6.55C4.7956 6.55 4.61755 6.62375 4.48628 6.75503C4.355 6.8863 4.28125 7.06435 4.28125 7.25C4.28125 7.43565 4.355 7.6137 4.48628 7.74497C4.61755 7.87625 4.7956 7.95 4.98125 7.95H10.5813C10.7669 7.95 10.945 7.87625 11.0762 7.74497C11.2075 7.6137 11.2812 7.43565 11.2812 7.25C11.2812 7.06435 11.2075 6.8863 11.0762 6.75503C10.945 6.62375 10.7669 6.55 10.5813 6.55H4.98125Z" fill="#2A2D31"/>
</svg>
