<svg width="16" height="17" viewBox="0 0 16 17" fill="none" xmlns="http://www.w3.org/2000/svg">
<rect x="1.14746" y="1.17188" width="5.5" height="5.5" rx="1.25" stroke="#189EFF" stroke-width="1.5"/>
<rect x="1.14746" y="9.70312" width="5.5" height="5.5" rx="1.25" stroke="#189EFF" stroke-width="1.5"/>
<rect x="9.97632" y="1.67188" width="4.5" height="4.5" rx="1.25" stroke="#189EFF" stroke-width="1.5"/>
<path d="M15.146 12.9396H12.713V15.3726C12.713 15.5016 12.6618 15.6254 12.5705 15.7166C12.4793 15.8079 12.3555 15.8592 12.2265 15.8592C12.0974 15.8592 11.9736 15.8079 11.8824 15.7166C11.7911 15.6254 11.7399 15.5016 11.7399 15.3726V12.9396H9.3069C9.17785 12.9396 9.05409 12.8883 8.96283 12.7971C8.87158 12.7058 8.82031 12.5821 8.82031 12.453C8.82031 12.324 8.87158 12.2002 8.96283 12.1089C9.05409 12.0177 9.17785 11.9664 9.3069 11.9664H11.7399V9.53347C11.7399 9.40441 11.7911 9.28065 11.8824 9.18939C11.9736 9.09814 12.0974 9.04688 12.2265 9.04688C12.3555 9.04688 12.4793 9.09814 12.5705 9.18939C12.6618 9.28065 12.713 9.40441 12.713 9.53347V11.9664H15.146C15.275 11.9664 15.3988 12.0177 15.4901 12.1089C15.5813 12.2002 15.6326 12.324 15.6326 12.453C15.6326 12.5821 15.5813 12.7058 15.4901 12.7971C15.3988 12.8883 15.275 12.9396 15.146 12.9396Z" fill="#189EFF" stroke="#189EFF" stroke-width="0.5"/>
</svg>
