<svg width="20" height="19" viewBox="0 0 20 19" fill="none" xmlns="http://www.w3.org/2000/svg">
<path d="M1 7.70117C1 6.5966 1.89543 5.70117 3 5.70117H17C18.1046 5.70117 19 6.5966 19 7.70117V9.70117C19 10.2535 18.5523 10.7012 18 10.7012H2C1.44772 10.7012 1 10.2535 1 9.70117V7.70117Z" stroke="#189EFF" stroke-width="1.5" stroke-linecap="round" stroke-linejoin="round"/>
<path d="M7 3.70117C7 2.5966 7.89543 1.70117 9 1.70117H11C12.1046 1.70117 13 2.5966 13 3.70117V5.70117H7V3.70117Z" stroke="#189EFF" stroke-width="1.5" stroke-linecap="round" stroke-linejoin="round"/>
<path d="M2 10.7012H18V15.7012C18 16.8057 17.1046 17.7012 16 17.7012H4C2.89543 17.7012 2 16.8057 2 15.7012V10.7012Z" stroke="#189EFF" stroke-width="1.5" stroke-linecap="round" stroke-linejoin="round"/>
<path d="M10 9.70117V11.7012" stroke="#189EFF" stroke-width="1.5" stroke-linecap="round" stroke-linejoin="round"/>
</svg>
