<svg width="15" height="20" viewBox="0 0 15 20" fill="none" xmlns="http://www.w3.org/2000/svg">
<path d="M11.3608 7.76758V4.76758C11.3608 2.55844 9.56998 0.767578 7.36084 0.767578C5.1517 0.767578 3.36084 2.55844 3.36084 4.76758V7.76758M7.36084 11.7676V14.7676M13.3608 12.7676C13.3608 16.0813 10.6745 18.7676 7.36084 18.7676C4.04713 18.7676 1.36084 16.0813 1.36084 12.7676C1.36084 9.45387 4.04713 6.76758 7.36084 6.76758C10.6745 6.76758 13.3608 9.45387 13.3608 12.7676ZM8.36084 11.7676C8.36084 12.3199 7.91312 12.7676 7.36084 12.7676C6.80856 12.7676 6.36084 12.3199 6.36084 11.7676C6.36084 11.2153 6.80856 10.7676 7.36084 10.7676C7.91312 10.7676 8.36084 11.2153 8.36084 11.7676Z" stroke="#189EFF" stroke-width="1.5" stroke-linecap="round" stroke-linejoin="round"/>
</svg>
