<svg width="29" height="29" viewBox="0 0 29 29" fill="none" xmlns="http://www.w3.org/2000/svg">
<path d="M22.1674 20.042C20.8463 21.8603 18.9135 23.1408 16.724 23.6483C14.5345 24.1558 12.2355 23.8562 10.2492 22.8045C8.26291 21.7528 6.72284 20.0197 5.91191 17.9236C5.10098 15.8275 5.07366 13.5091 5.83498 11.3945C6.5963 9.27981 8.09512 7.5109 10.0561 6.41271C12.017 5.31453 14.3084 4.96083 16.5092 5.41659C18.71 5.87236 20.6725 7.10699 22.036 8.89364C23.3995 10.6803 24.0726 12.899 23.9315 15.1421M23.9315 15.1421L25.6815 13.3921M23.9315 15.1421L22.1815 13.3921" stroke="#7D8B9C" stroke-width="1.4" stroke-linecap="round" stroke-linejoin="round"/>
<path d="M14.6172 9.88672V14.5534L18.1172 18.0534" stroke="#7D8B9C" stroke-width="1.4" stroke-linecap="round" stroke-linejoin="round"/>
</svg>
