<svg width="22" height="10" viewBox="0 0 22 10" fill="none" xmlns="http://www.w3.org/2000/svg">
<path d="M11.3471 1.21603L11.899 0.708184C11.7556 0.552329 11.553 0.464379 11.3412 0.466057L11.3471 1.21603ZM7.94723 1.24298L7.94129 0.493005C7.70716 0.49486 7.48733 0.605952 7.34696 0.793348C7.20659 0.980745 7.16179 1.22294 7.22584 1.44815L7.94723 1.24298ZM14.7768 4.94314L14.2249 5.45099C14.3794 5.61888 14.6019 5.70732 14.8295 5.69128L14.7768 4.94314ZM16.2027 4.84266L16.15 4.09452L16.15 4.09452L16.2027 4.84266ZM20.1913 9.07952L20.1973 9.82949L20.1913 9.07952ZM4.04356 9.2075L3.37542 9.54822C3.50447 9.80129 3.76543 9.95973 4.0495 9.95748L4.04356 9.2075ZM3.46795 8.07874L2.7998 8.41945L2.79981 8.41946L3.46795 8.07874ZM3.1666 7.48779L3.83474 7.14708L3.83474 7.14708L3.1666 7.48779ZM2.31666 5.82108L2.27328 5.07234C2.02042 5.08699 1.79205 5.22827 1.66605 5.44799C1.54005 5.6677 1.53346 5.93617 1.64852 6.1618L2.31666 5.82108ZM2.31667 5.82108L2.36006 6.56983C2.61292 6.55517 2.84129 6.41389 2.96729 6.19418C3.09328 5.97447 3.09988 5.706 2.98482 5.48037L2.31667 5.82108ZM1.16543 3.56347L1.15948 2.81349C0.899557 2.81555 0.659232 2.95205 0.524333 3.17424C0.389435 3.39643 0.3792 3.67262 0.497283 3.90418L1.16543 3.56347ZM4.56532 3.53652L5.23346 3.19581C5.10441 2.94274 4.84345 2.7843 4.55937 2.78655L4.56532 3.53652ZM5.61191 5.5889L4.94377 5.92961C5.08051 6.19778 5.36435 6.3582 5.66462 6.33704L5.61191 5.5889ZM9.11309 5.3422L9.16581 6.09035C9.39117 6.07447 9.59737 5.95785 9.72711 5.77289C9.85684 5.58793 9.89629 5.35434 9.83448 5.13703L9.11309 5.3422ZM11.3412 0.466057L7.94129 0.493005L7.95318 1.99296L11.3531 1.96601L11.3412 0.466057ZM15.3287 4.43529L11.899 0.708184L10.7952 1.72388L14.2249 5.45099L15.3287 4.43529ZM16.15 4.09452L14.7241 4.19499L14.8295 5.69128L16.2554 5.59081L16.15 4.09452ZM21.2241 8.78625C21.2024 6.05161 18.8779 3.9023 16.15 4.09452L16.2554 5.59081C18.1203 5.45941 19.7093 6.9287 19.7241 8.79814L21.2241 8.78625ZM20.1973 9.82949C20.7689 9.82496 21.2286 9.35789 21.2241 8.78625L19.7241 8.79814C19.7221 8.54138 19.9286 8.33158 20.1854 8.32954L20.1973 9.82949ZM4.0495 9.95748L20.1973 9.82949L20.1854 8.32954L4.03761 8.45753L4.0495 9.95748ZM2.79981 8.41946L3.37542 9.54822L4.7117 8.86678L4.13609 7.73802L2.79981 8.41946ZM2.49845 7.82851L2.7998 8.41945L4.13609 7.73803L3.83474 7.14708L2.49845 7.82851ZM1.64852 6.1618L2.49846 7.82851L3.83474 7.14708L2.98481 5.48037L1.64852 6.1618ZM2.27329 5.07234L2.27328 5.07234L2.36005 6.56983L2.36006 6.56983L2.27329 5.07234ZM2.98482 5.48037L1.83357 3.22276L0.497283 3.90418L1.64853 6.1618L2.98482 5.48037ZM1.17137 4.31345L4.57126 4.2865L4.55937 2.78655L1.15948 2.81349L1.17137 4.31345ZM3.89718 3.87724L4.94377 5.92961L6.28005 5.24819L5.23346 3.19581L3.89718 3.87724ZM9.06038 4.59406L5.55919 4.84075L5.66462 6.33704L9.16581 6.09035L9.06038 4.59406ZM7.22584 1.44815L8.3917 5.54737L9.83448 5.13703L8.66862 1.03781L7.22584 1.44815Z" fill="#189EFF"/>
</svg>
