<svg width="20" height="12" viewBox="0 0 20 12" fill="none" xmlns="http://www.w3.org/2000/svg">
<path d="M10.5201 1.0465L11.072 0.538646C10.9286 0.38279 10.7259 0.29484 10.5141 0.296519L10.5201 1.0465ZM7.46483 1.07071L7.45889 0.320734C7.22476 0.32259 7.00493 0.433682 6.86456 0.621078C6.72419 0.808475 6.67939 1.05067 6.74344 1.27588L7.46483 1.07071ZM13.6021 4.39578L13.0502 4.90363C13.2047 5.07152 13.4272 5.15996 13.6548 5.14392L13.6021 4.39578ZM14.8834 4.30549L14.8307 3.55734L14.8307 3.55734L14.8834 4.30549ZM3.95684 8.22786L3.2887 8.56858C3.41775 8.82165 3.67871 8.98009 3.96278 8.97784L3.95684 8.22786ZM2.405 5.18473L2.35222 4.43659C2.10124 4.45429 1.87585 4.59667 1.75206 4.81572C1.62826 5.03477 1.62256 5.3013 1.73686 5.52544L2.405 5.18473ZM2.40517 5.18471L2.45795 5.93286C2.70894 5.91515 2.93432 5.77277 3.05812 5.55372C3.18191 5.33468 3.18762 5.06815 3.07332 4.844L2.40517 5.18471ZM1.37064 3.15597L1.36469 2.406C1.10477 2.40806 0.864442 2.54455 0.729544 2.76674C0.594645 2.98893 0.58441 3.26512 0.702493 3.49668L1.37064 3.15597ZM4.42588 3.13176L5.09402 2.79104C4.96497 2.53797 4.70401 2.37953 4.41993 2.38178L4.42588 3.13176ZM5.36637 4.97607L4.69823 5.31678C4.83497 5.58495 5.11881 5.74537 5.41908 5.72421L5.36637 4.97607ZM8.51251 4.75439L8.56522 5.50254C8.79059 5.48666 8.99679 5.37003 9.12652 5.18507C9.25626 5.00011 9.2957 4.76653 9.2339 4.54922L8.51251 4.75439ZM10.5141 0.296519L7.45889 0.320734L7.47078 1.82069L10.526 1.79647L10.5141 0.296519ZM14.154 3.88793L11.072 0.538646L9.96818 1.55435L13.0502 4.90363L14.154 3.88793ZM14.8307 3.55734L13.5493 3.64763L13.6548 5.14392L14.9361 5.05363L14.8307 3.55734ZM19.4718 7.84871C19.452 5.34743 17.3258 3.38153 14.8307 3.55734L14.9361 5.05363C16.5682 4.93864 17.9589 6.22452 17.9718 7.8606L19.4718 7.84871ZM18.4736 8.86283C19.0293 8.85842 19.4762 8.40438 19.4718 7.84871L17.9718 7.8606C17.9697 7.58788 18.189 7.36504 18.4617 7.36287L18.4736 8.86283ZM3.96278 8.97784L18.4736 8.86283L18.4617 7.36287L3.95089 7.47789L3.96278 8.97784ZM1.73686 5.52544L3.2887 8.56858L4.62498 7.88715L3.07314 4.84401L1.73686 5.52544ZM2.3524 4.43657L2.35222 4.43659L2.45778 5.93287L2.45795 5.93286L2.3524 4.43657ZM3.07332 4.844L2.03878 2.81526L0.702493 3.49668L1.73703 5.52543L3.07332 4.844ZM1.37658 3.90595L4.43182 3.88173L4.41993 2.38178L1.36469 2.406L1.37658 3.90595ZM3.75774 3.47247L4.69823 5.31678L6.03451 4.63535L5.09402 2.79104L3.75774 3.47247ZM8.45979 4.00625L5.31365 4.22792L5.41908 5.72421L8.56522 5.50254L8.45979 4.00625ZM6.74344 1.27588L7.79112 4.95956L9.2339 4.54922L8.18623 0.86554L6.74344 1.27588Z" fill="#189EFF"/>
<circle cx="8.71349" cy="10.9551" r="1" fill="#189EFF"/>
<circle cx="12.644" cy="10.9551" r="1" fill="#189EFF"/>
</svg>
