<svg width="22" height="18" viewBox="0 0 22 18" fill="none" xmlns="http://www.w3.org/2000/svg">
<path d="M9.06493 10.9728L9.61683 10.4649C9.47341 10.3091 9.27078 10.2211 9.05899 10.2228L9.06493 10.9728ZM6.52274 10.9929L6.5168 10.2429C6.28267 10.2448 6.06284 10.3559 5.92247 10.5433C5.7821 10.7307 5.7373 10.9729 5.80135 11.1981L6.52274 10.9929ZM11.6294 13.7596L11.0775 14.2675C11.232 14.4354 11.4545 14.5238 11.6821 14.5078L11.6294 13.7596ZM12.6955 13.6845L12.6428 12.9363L12.6427 12.9363L12.6955 13.6845ZM15.6779 16.8525L15.6719 16.1025L15.6779 16.8525ZM3.60377 16.9482L2.93563 17.2889C3.06469 17.542 3.32565 17.7004 3.60972 17.6982L3.60377 16.9482ZM2.31253 14.4161L2.26024 13.6679C2.00916 13.6854 1.78362 13.8278 1.65971 14.0468C1.5358 14.2659 1.53005 14.5326 1.64439 14.7568L2.31253 14.4161ZM2.31272 14.4161L2.36501 15.1642C2.61609 15.1467 2.84163 15.0044 2.96554 14.7853C3.08945 14.5662 3.0952 14.2996 2.98086 14.0753L2.31272 14.4161ZM1.45191 12.728L1.44597 11.978C1.18604 11.9801 0.945715 12.1166 0.810817 12.3388C0.675919 12.561 0.665683 12.8371 0.783767 13.0687L1.45191 12.728ZM3.9941 12.7078L4.66224 12.3671C4.53319 12.1141 4.27222 11.9556 3.98815 11.9579L3.9941 12.7078ZM4.77665 14.2424L4.10851 14.5832C4.24526 14.8513 4.52909 15.0118 4.82937 14.9906L4.77665 14.2424ZM7.39448 14.058L7.4472 14.8061C7.67256 14.7903 7.87876 14.6736 8.0085 14.4887C8.13823 14.3037 8.17768 14.0701 8.11588 13.8528L7.39448 14.058ZM9.05899 10.2228L6.5168 10.2429L6.52869 11.7429L9.07087 11.7227L9.05899 10.2228ZM12.1813 13.2518L9.61683 10.4649L8.51303 11.4806L11.0775 14.2675L12.1813 13.2518ZM12.6427 12.9363L11.5766 13.0115L11.6821 14.5078L12.7482 14.4326L12.6427 12.9363ZM16.6393 16.6317C16.6222 14.4778 14.7914 12.7849 12.6428 12.9363L12.7482 14.4326C14.0337 14.342 15.1291 15.3549 15.1393 16.6436L16.6393 16.6317ZM15.6838 17.6025C16.2157 17.5982 16.6435 17.1636 16.6393 16.6317L15.1393 16.6436C15.137 16.3471 15.3754 16.1049 15.6719 16.1025L15.6838 17.6025ZM3.60972 17.6982L15.6838 17.6025L15.6719 16.1025L3.59783 16.1982L3.60972 17.6982ZM1.64439 14.7568L2.93563 17.2889L4.27192 16.6075L2.98067 14.0754L1.64439 14.7568ZM2.26043 13.6679L2.26024 13.6679L2.36482 15.1642L2.36501 15.1642L2.26043 13.6679ZM2.98086 14.0753L2.12005 12.3873L0.783767 13.0687L1.64458 14.7568L2.98086 14.0753ZM1.45785 13.478L4.00004 13.4578L3.98815 11.9579L1.44597 11.978L1.45785 13.478ZM3.32595 13.0486L4.10851 14.5832L5.4448 13.9017L4.66224 12.3671L3.32595 13.0486ZM7.34177 13.3099L4.72394 13.4943L4.82937 14.9906L7.4472 14.8061L7.34177 13.3099ZM5.80135 11.1981L6.67309 14.2632L8.11588 13.8528L7.24413 10.7877L5.80135 11.1981Z" fill="#189EFF"/>
<path d="M13.0142 1.01768L12.4623 0.509829C12.6057 0.353974 12.8083 0.266024 13.0201 0.267702L13.0142 1.01768ZM15.5564 1.03783L15.5623 0.287851C15.7964 0.289707 16.0163 0.400798 16.1566 0.588195C16.297 0.775592 16.3418 1.01779 16.2778 1.243L15.5564 1.03783ZM10.4498 3.8045L11.0017 4.31235C10.8472 4.48025 10.6246 4.56868 10.397 4.55265L10.4498 3.8045ZM9.38389 3.7294L9.43661 2.98126L9.38389 3.7294ZM18.4756 6.9931L19.1437 7.33382C19.0147 7.58689 18.7537 7.74533 18.4696 7.74308L18.4756 6.9931ZM19.7668 4.46099L19.8196 3.71285C20.0706 3.73054 20.296 3.87291 20.4198 4.09197C20.5436 4.31102 20.5493 4.57755 20.435 4.80171L19.7668 4.46099ZM19.7664 4.46096L19.7136 5.2091C19.4627 5.19141 19.2373 5.04903 19.1135 4.82998C18.9897 4.61093 18.9839 4.3444 19.0982 4.12025L19.7664 4.46096ZM20.6272 2.77291L20.6331 2.02294C20.8931 2.025 21.1334 2.16149 21.2683 2.38368C21.4032 2.60587 21.4134 2.88206 21.2953 3.11363L20.6272 2.77291ZM18.085 2.75276L17.4169 2.41205C17.5459 2.15898 17.8069 2.00054 18.0909 2.00279L18.085 2.75276ZM17.3025 4.28735L17.9706 4.62806C17.8339 4.89623 17.55 5.05665 17.2497 5.03549L17.3025 4.28735ZM14.6846 4.10289L14.6319 4.85104C14.4065 4.83516 14.2003 4.71854 14.0706 4.53358C13.9409 4.34862 13.9014 4.11503 13.9632 3.89772L14.6846 4.10289ZM13.0201 0.267702L15.5623 0.287851L15.5504 1.7878L13.0082 1.76766L13.0201 0.267702ZM9.89786 3.29665L12.4623 0.509829L13.5661 1.52553L11.0017 4.31235L9.89786 3.29665ZM9.43661 2.98126L10.5025 3.05636L10.397 4.55265L9.33118 4.47755L9.43661 2.98126ZM5.44006 6.67662C5.45713 4.52272 7.28797 2.82986 9.43661 2.98126L9.33118 4.47755C8.04563 4.38697 6.95023 5.39982 6.94001 6.68851L5.44006 6.67662ZM6.39555 7.64738C5.86364 7.64317 5.43584 7.20854 5.44006 6.67662L6.94001 6.68851C6.94236 6.39203 6.70392 6.14978 6.40744 6.14743L6.39555 7.64738ZM18.4696 7.74308L6.39555 7.64738L6.40744 6.14743L18.4815 6.24313L18.4696 7.74308ZM20.435 4.80171L19.1437 7.33382L17.8074 6.65239L19.0987 4.12027L20.435 4.80171ZM19.8191 3.71282L19.8196 3.71285L19.7141 5.20913L19.7136 5.2091L19.8191 3.71282ZM19.0982 4.12025L19.959 2.4322L21.2953 3.11363L20.4345 4.80167L19.0982 4.12025ZM20.6212 3.52289L18.0791 3.50274L18.0909 2.00279L20.6331 2.02294L20.6212 3.52289ZM18.7531 3.09348L17.9706 4.62806L16.6343 3.94664L17.4169 2.41205L18.7531 3.09348ZM14.7373 3.35475L17.3552 3.5392L17.2497 5.03549L14.6319 4.85104L14.7373 3.35475ZM16.2778 1.243L15.406 4.30806L13.9632 3.89772L14.835 0.832657L16.2778 1.243Z" fill="#189EFF"/>
</svg>
