<svg width="17" height="17" viewBox="0 0 17 17" fill="none" xmlns="http://www.w3.org/2000/svg">
<path d="M16.375 8.5C16.375 9.04688 15.9453 9.4375 15.4375 9.4375H9.1875V15.6875C9.1875 16.2344 8.75781 16.6641 8.25 16.6641C7.70312 16.6641 7.3125 16.2344 7.3125 15.6875V9.4375H1.0625C0.515625 9.4375 0.125 9.04688 0.125 8.53906C0.125 7.99219 0.515625 7.5625 1.0625 7.5625H7.3125V1.3125C7.3125 0.804688 7.70312 0.414062 8.25 0.414062C8.75781 0.414062 9.1875 0.804688 9.1875 1.3125V7.5625H15.4375C15.9453 7.5625 16.375 7.99219 16.375 8.5Z" fill="#121213"/>
</svg>
