<svg width="15" height="15" viewBox="0 0 15 15" fill="none" xmlns="http://www.w3.org/2000/svg">
<path d="M7.08125 8.69414V10.7941C7.08125 10.9925 7.14845 11.1588 7.28285 11.2932C7.41725 11.4276 7.58338 11.4946 7.78125 11.4941C7.97958 11.4941 8.14595 11.4269 8.28035 11.2925C8.41475 11.1581 8.48172 10.992 8.48125 10.7941V8.69414H10.5812C10.7796 8.69414 10.9459 8.62694 11.0803 8.49254C11.2147 8.35814 11.2817 8.19201 11.2812 7.99414C11.2812 7.79581 11.214 7.62944 11.0796 7.49504C10.9452 7.36064 10.7791 7.29367 10.5812 7.29414H8.48125V5.19414C8.48125 4.99581 8.41405 4.82944 8.27965 4.69504C8.14525 4.56064 7.97912 4.49367 7.78125 4.49414C7.58292 4.49414 7.41655 4.56134 7.28215 4.69574C7.14775 4.83014 7.08078 4.99627 7.08125 5.19414V7.29414H4.98125C4.78292 7.29414 4.61655 7.36134 4.48215 7.49574C4.34775 7.63014 4.28078 7.79627 4.28125 7.99414C4.28125 8.19247 4.34845 8.35884 4.48285 8.49324C4.61725 8.62764 4.78338 8.69461 4.98125 8.69414H7.08125ZM7.78125 14.9941C6.81292 14.9941 5.90292 14.8103 5.05125 14.4425C4.19958 14.0748 3.45875 13.5762 2.82875 12.9466C2.19875 12.3166 1.70012 11.5758 1.33285 10.7241C0.965583 9.87247 0.781717 8.96247 0.78125 7.99414C0.78125 7.02581 0.965117 6.11581 1.33285 5.26414C1.70058 4.41247 2.19922 3.67164 2.82875 3.04164C3.45875 2.41164 4.19958 1.91301 5.05125 1.54574C5.90292 1.17847 6.81292 0.994607 7.78125 0.994141C8.74958 0.994141 9.65958 1.17801 10.5112 1.54574C11.3629 1.91347 12.1037 2.41211 12.7337 3.04164C13.3637 3.67164 13.8626 4.41247 14.2303 5.26414C14.5981 6.11581 14.7817 7.02581 14.7812 7.99414C14.7812 8.96247 14.5974 9.87247 14.2296 10.7241C13.8619 11.5758 13.3633 12.3166 12.7337 12.9466C12.1037 13.5766 11.3629 14.0755 10.5112 14.4432C9.65958 14.811 8.74958 14.9946 7.78125 14.9941Z" fill="#2A2D31"/>
</svg>
