<svg width="14" height="15" viewBox="0 0 14 15" fill="none" xmlns="http://www.w3.org/2000/svg">
<path d="M12.25 5.5C13.207 5.5 14 6.29297 14 7.25V9.875C14 10.3672 13.5898 10.75 13.125 10.75H12.25V13.375C12.25 13.8672 11.8398 14.25 11.375 14.25H2.625C2.13281 14.25 1.75 13.8672 1.75 13.375V10.75H0.875C0.382812 10.75 0 10.3672 0 9.875V7.25C0 6.29297 0.765625 5.5 1.75 5.5H12.25ZM10.5 12.5V9.875H3.5V12.5H10.5ZM11.8125 8.34375C12.168 8.34375 12.4688 8.07031 12.4688 7.6875C12.4688 7.33203 12.168 7.03125 11.8125 7.03125C11.4297 7.03125 11.1562 7.33203 11.1562 7.6875C11.1562 8.07031 11.4297 8.34375 11.8125 8.34375ZM3.5 2V4.625H1.75V1.125C1.75 0.660156 2.13281 0.25 2.625 0.25H10.1172C10.3633 0.25 10.582 0.359375 10.7461 0.523438L11.9766 1.75391C12.1406 1.91797 12.25 2.13672 12.25 2.38281V4.625H10.5V2.73828L9.76172 2H3.5Z" fill="#2A2D31"/>
</svg>
