<svg width="12" height="10" viewBox="0 0 12 10" fill="none" xmlns="http://www.w3.org/2000/svg">
<path d="M4.73145 4.89844C4.73145 5.16365 4.8368 5.41801 5.02434 5.60554C5.21188 5.79308 5.46623 5.89844 5.73145 5.89844C5.99666 5.89844 6.25102 5.79308 6.43855 5.60554C6.62609 5.41801 6.73145 5.16365 6.73145 4.89844C6.73145 4.63322 6.62609 4.37887 6.43855 4.19133C6.25102 4.00379 5.99666 3.89844 5.73145 3.89844C5.46623 3.89844 5.21188 4.00379 5.02434 4.19133C4.8368 4.37887 4.73145 4.63322 4.73145 4.89844Z" stroke="#DD1F03" stroke-width="1.4" stroke-linecap="round" stroke-linejoin="round"/>
<path d="M10.7314 4.89844C9.39794 7.23194 7.73144 8.39844 5.73144 8.39844C3.73144 8.39844 2.06495 7.23194 0.731445 4.89844C2.06495 2.56494 3.73144 1.39844 5.73144 1.39844C7.73144 1.39844 9.39794 2.56494 10.7314 4.89844Z" stroke="#DD1F03" stroke-width="1.4" stroke-linecap="round" stroke-linejoin="round"/>
</svg>
