<svg width="23" height="17" viewBox="0 0 23 17" fill="none" xmlns="http://www.w3.org/2000/svg">
<path d="M13.2845 4.94702L13.0402 4.2379C13.2405 4.16893 13.4605 4.18784 13.6461 4.28996L13.2845 4.94702ZM16.2631 6.58645L16.6247 5.9294C16.8298 6.04229 16.9705 6.24451 17.0049 6.4761C17.0394 6.70769 16.9637 6.94208 16.8003 7.10979L16.2631 6.58645ZM8.49561 6.59649L8.73986 7.30561C8.52414 7.37991 8.28632 7.35198 8.09369 7.22971L8.49561 6.59649ZM7.28875 5.83046L7.69067 5.19724L7.69067 5.19724L7.28875 5.83046ZM15.9128 15.4493L16.3388 16.0666C16.105 16.2279 15.8001 16.2433 15.5512 16.1063L15.9128 15.4493ZM16.9557 14.7297L17.3817 15.347L17.3817 15.347L16.9557 14.7297ZM17.5017 14.3529L17.0757 13.7356L17.0757 13.7356L17.5017 14.3529ZM19.0416 13.2904L19.4356 12.6522C19.6511 12.7852 19.7849 13.0181 19.7913 13.2713C19.7978 13.5245 19.676 13.7638 19.4675 13.9077L19.0416 13.2904ZM19.0416 13.2903L18.6476 13.9285C18.4321 13.7955 18.2983 13.5626 18.2918 13.3094C18.2854 13.0562 18.4071 12.8169 18.6156 12.673L19.0416 13.2903ZM21.1274 11.8511L21.489 11.194C21.7167 11.3193 21.8633 11.5537 21.8764 11.8133C21.8895 12.0729 21.7673 12.3207 21.5533 12.4684L21.1274 11.8511ZM18.1488 10.2116L17.7228 9.59433C17.9566 9.43299 18.2615 9.4176 18.5104 9.55458L18.1488 10.2116ZM16.2526 11.5201L16.6785 12.1374C16.4308 12.3083 16.1048 12.3146 15.8506 12.1533L16.2526 11.5201ZM13.2892 9.63915L12.8873 10.2724C12.6966 10.1513 12.5706 9.95069 12.5443 9.7263C12.5181 9.50191 12.5944 9.27763 12.752 9.11581L13.2892 9.63915ZM13.6461 4.28996L16.6247 5.9294L15.9014 7.2435L12.9228 5.60407L13.6461 4.28996ZM8.25136 5.88738L13.0402 4.2379L13.5287 5.65613L8.73986 7.30561L8.25136 5.88738ZM7.69067 5.19724L8.89753 5.96328L8.09369 7.22971L6.88683 6.46367L7.69067 5.19724ZM0.996504 6.91397C2.31515 4.51815 5.38178 3.73172 7.69067 5.19724L6.88683 6.46367C5.30844 5.46182 3.21205 5.99944 2.31061 7.63724L0.996504 6.91397ZM1.4042 8.31986C0.903392 8.04421 0.720861 7.41477 0.996504 6.91397L2.31061 7.63724C2.43442 7.4123 2.35243 7.12957 2.12748 7.00576L1.4042 8.31986ZM15.5512 16.1063L1.4042 8.31986L2.12748 7.00576L16.2745 14.7922L15.5512 16.1063ZM17.3817 15.347L16.3388 16.0666L15.4869 14.832L16.5298 14.1124L17.3817 15.347ZM17.9276 14.9702L17.3817 15.347L16.5297 14.1124L17.0757 13.7356L17.9276 14.9702ZM19.4675 13.9077L17.9276 14.9702L17.0757 13.7356L18.6156 12.673L19.4675 13.9077ZM19.4356 12.6522L19.4356 12.6522L18.6476 13.9285L18.6476 13.9285L19.4356 12.6522ZM18.6156 12.673L20.7014 11.2338L21.5533 12.4684L19.4675 13.9076L18.6156 12.673ZM20.7657 12.5081L17.7871 10.8687L18.5104 9.55458L21.489 11.194L20.7657 12.5081ZM18.5747 10.8289L16.6785 12.1374L15.8266 10.9028L17.7228 9.59433L18.5747 10.8289ZM13.6911 9.00594L16.6545 10.8869L15.8506 12.1533L12.8873 10.2724L13.6911 9.00594ZM16.8003 7.10979L13.8265 10.1625L12.752 9.11581L15.7259 6.0631L16.8003 7.10979Z" fill="#189EFF"/>
</svg>
