<svg width="5" height="9" viewBox="0 0 5 9" fill="none" xmlns="http://www.w3.org/2000/svg">
<path d="M0.158103 8.3419C0.0527009 8.2365 0 8.1117 0 7.96751C0 7.82332 0.0527009 7.69867 0.158103 7.59354L3.24638 4.50527L0.147563 1.40646C0.0491875 1.30808 0 1.18511 0 1.03755C0 0.889987 0.0527009 0.763505 0.158103 0.658103C0.263505 0.552701 0.3883 0.5 0.53249 0.5C0.67668 0.5 0.801335 0.552701 0.906456 0.658103L4.44796 4.21014C4.49012 4.25231 4.52005 4.29798 4.53776 4.34717C4.55547 4.39635 4.56418 4.44906 4.5639 4.50527C4.5639 4.56148 4.55505 4.61419 4.53734 4.66337C4.51963 4.71256 4.48984 4.75823 4.44796 4.8004L0.895915 8.35244C0.79754 8.45081 0.676258 8.5 0.532068 8.5C0.387879 8.5 0.263224 8.4473 0.158103 8.3419Z" fill="black"/>
</svg>
