<svg width="21" height="21" viewBox="0 0 21 21" fill="none" xmlns="http://www.w3.org/2000/svg">
<path d="M11.283 13.7814L13.883 11.1814C14.083 10.9814 14.183 10.7481 14.183 10.4814C14.183 10.2148 14.083 9.98145 13.883 9.78145L11.258 7.15645C11.0747 6.97311 10.8457 6.88545 10.571 6.89345C10.2957 6.90211 10.0663 6.99811 9.88301 7.18145C9.69967 7.36478 9.60801 7.59811 9.60801 7.88144C9.60801 8.16478 9.69967 8.39811 9.88301 8.58145L10.783 9.48145H7.55801C7.27467 9.48145 7.04134 9.57711 6.85801 9.76845C6.67467 9.96045 6.58301 10.1981 6.58301 10.4814C6.58301 10.7648 6.67901 11.0021 6.87101 11.1934C7.06234 11.3854 7.29967 11.4814 7.58301 11.4814H10.783L9.85801 12.4064C9.67467 12.5898 9.58701 12.8191 9.59501 13.0944C9.60367 13.3691 9.69967 13.5981 9.88301 13.7814C10.0663 13.9648 10.2997 14.0564 10.583 14.0564C10.8663 14.0564 11.0997 13.9648 11.283 13.7814ZM10.583 20.4814C9.19967 20.4814 7.89967 20.2188 6.68301 19.6934C5.46634 19.1688 4.40801 18.4564 3.50801 17.5564C2.60801 16.6564 1.89567 15.5981 1.37101 14.3814C0.845675 13.1648 0.583008 11.8648 0.583008 10.4814C0.583008 9.09811 0.845675 7.79811 1.37101 6.58145C1.89567 5.36478 2.60801 4.30645 3.50801 3.40645C4.40801 2.50645 5.46634 1.79378 6.68301 1.26845C7.89967 0.743779 9.19967 0.481445 10.583 0.481445C11.9663 0.481445 13.2663 0.743779 14.483 1.26845C15.6997 1.79378 16.758 2.50645 17.658 3.40645C18.558 4.30645 19.2703 5.36478 19.795 6.58145C20.3203 7.79811 20.583 9.09811 20.583 10.4814C20.583 11.8648 20.3203 13.1648 19.795 14.3814C19.2703 15.5981 18.558 16.6564 17.658 17.5564C16.758 18.4564 15.6997 19.1688 14.483 19.6934C13.2663 20.2188 11.9663 20.4814 10.583 20.4814ZM10.583 18.4814C12.7997 18.4814 14.6873 17.7024 16.246 16.1444C17.804 14.5858 18.583 12.6981 18.583 10.4814C18.583 8.26478 17.804 6.37711 16.246 4.81845C14.6873 3.26045 12.7997 2.48145 10.583 2.48145C8.36634 2.48145 6.47901 3.26045 4.92101 4.81845C3.36234 6.37711 2.58301 8.26478 2.58301 10.4814C2.58301 12.6981 3.36234 14.5858 4.92101 16.1444C6.47901 17.7024 8.36634 18.4814 10.583 18.4814Z" fill="#B9CBE2"/>
</svg>
