<svg width="17" height="16" viewBox="0 0 17 16" fill="none" xmlns="http://www.w3.org/2000/svg">
<path d="M6.08092 0.0356073C6.37126 0.0356073 6.6374 0.18884 6.7987 0.430787L10.5811 6.48752H15.0168C15.6862 6.48752 16.2266 7.02787 16.2266 7.69726C16.2266 8.36664 15.6862 8.90699 15.0168 8.90699H10.5811L6.7987 14.9637C6.68869 15.1364 6.51987 15.2633 6.32348 15.3211C6.12708 15.3788 5.91642 15.3635 5.73047 15.2779C5.54451 15.1923 5.39586 15.0422 5.31202 14.8555C5.22818 14.6687 5.21483 14.4579 5.27444 14.2621L6.95193 8.90699H2.51624L1.42748 10.3587C1.39084 10.4097 1.34232 10.4511 1.28611 10.4792C1.22991 10.5073 1.16771 10.5213 1.10488 10.52H0.629055C0.362913 10.52 0.169355 10.2619 0.24194 10.0038L0.903261 7.69726L0.24194 5.3907C0.169355 5.13262 0.362913 4.87454 0.629055 4.87454H1.10488C1.16771 4.87323 1.22991 4.88723 1.28611 4.91533C1.34232 4.94343 1.39084 4.98479 1.42748 5.03584L2.51624 6.48752H6.95193L5.27444 1.13243C5.10507 0.584021 5.51638 0.0356073 6.08092 0.0356073Z" fill="#189EFF"/>
</svg>
