<svg width="17" height="17" viewBox="0 0 17 17" fill="none" xmlns="http://www.w3.org/2000/svg">
<path d="M3.2447 9.86279C3.02689 9.19651 2.80908 8.53024 2.59091 7.86399C2.36283 7.16638 2.13472 6.46841 1.90628 5.77082C1.71588 5.18836 1.52548 4.6059 1.33507 4.02343C1.2259 3.68923 1.11672 3.35503 1.00721 3.02122C0.963214 2.88706 0.92848 2.75972 0.970478 2.61534C1.00385 2.50138 1.07749 2.40136 1.17489 2.3337C1.25317 2.27962 1.34582 2.254 1.43584 2.22715C1.58976 2.18146 1.74571 2.14683 1.90516 2.12782C2.21119 2.09162 2.54916 2.1117 2.8094 2.29441C2.95682 2.39768 3.06835 2.54274 3.14233 2.70584C3.24664 2.93621 3.26762 3.17404 3.30275 3.4208C3.34073 3.6883 3.44735 3.94563 3.61491 4.15794C3.77888 4.36622 3.98743 4.51568 4.22643 4.62745C4.41716 4.71653 4.56636 4.82363 4.72283 4.9779C4.90859 5.16152 5.07289 5.40343 5.1955 5.64889C5.3709 5.99989 5.48971 6.37924 5.57298 6.76198C5.68899 7.2954 5.7417 7.84217 5.76279 8.38729C5.7757 8.71738 5.75869 9.04893 5.78238 9.37811C5.80349 9.67275 5.83613 9.96678 5.87377 10.26C5.91235 10.5601 5.95632 10.8596 6.00418 11.1581C6.04626 11.4228 6.0812 11.6927 6.14076 11.9544C6.22687 12.3322 6.60804 12.5578 6.98099 12.4786C7.36139 12.3977 7.74125 12.3147 8.12157 12.2327C8.81004 12.0843 9.49816 11.936 10.1866 11.7876C10.8211 11.651 11.4552 11.5141 12.0896 11.3776C12.2738 11.338 12.4579 11.2981 12.642 11.2585C12.6796 11.2502 12.7177 11.2423 12.7554 11.234C12.7945 11.2256 12.8335 11.2161 12.8724 11.206C12.8873 11.2022 12.9025 11.1983 12.9174 11.1942C12.9245 11.1925 12.892 11.1981 12.9156 11.1947C12.932 11.1922 12.9484 11.189 12.9652 11.1865C13.1831 11.1567 13.3864 11.1676 13.5964 11.1939C13.9089 11.2335 14.2162 11.3188 14.4965 11.4647C14.8222 11.6342 15.095 11.8883 15.2796 12.2066C15.4591 12.5164 15.6807 14.469 15.7117 14.8236C15.7239 14.9627 15.7205 15.1016 15.6608 15.2294C15.5858 15.3899 15.4321 15.4772 15.2666 15.5228C15.1107 15.5658 14.9421 15.5707 14.7814 15.5804C14.6007 15.5911 14.4199 15.5974 14.239 15.6027C13.4395 15.6256 12.6391 15.6242 11.8395 15.6188C11.6845 15.6179 11.5294 15.6166 11.3744 15.6147C11.2584 15.6133 11.2744 15.7929 11.3897 15.7943C11.9462 15.8012 12.503 15.8027 13.0595 15.7998C13.4868 15.7978 13.9138 15.7929 14.3409 15.7797C14.5153 15.7743 14.6899 15.7674 14.8641 15.7558C15.048 15.7438 15.2354 15.7303 15.4099 15.6662C15.5857 15.6017 15.7392 15.4833 15.8213 15.312C15.8886 15.1716 15.9037 15.0125 15.8953 14.859C15.8755 14.4955 15.6497 12.5277 15.4824 12.2042C15.1393 11.5414 14.4779 11.1568 13.7574 11.0354C13.515 10.9945 13.2627 10.9773 13.0173 10.9992C12.9002 11.0099 12.7883 11.0434 12.6736 11.0683C12.2261 11.1647 11.7786 11.2611 11.3311 11.3578C10.6174 11.5116 9.90368 11.6654 9.18996 11.8192C8.59143 11.9484 7.99286 12.0772 7.39468 12.2063C7.2557 12.2363 7.11637 12.2662 6.97739 12.2962C6.8935 12.3142 6.81035 12.3238 6.72499 12.3075C6.60542 12.2848 6.49337 12.2186 6.41754 12.123C6.33964 12.0243 6.31509 11.9146 6.29358 11.7937C6.19078 11.2114 6.09792 10.6268 6.02836 10.0394C5.99415 9.75244 5.95396 9.45905 5.95137 9.16935C5.94839 8.83262 5.95165 8.4968 5.93277 8.16034C5.88223 7.24817 5.7459 6.28901 5.30693 5.47399C5.17365 5.22654 5.00668 4.99571 4.80132 4.8029C4.6349 4.64659 4.44681 4.53339 4.24192 4.43537C3.99776 4.31826 3.7943 4.13072 3.6561 3.89781C3.58683 3.78136 3.53643 3.65282 3.50495 3.52121C3.47341 3.38889 3.47044 3.25196 3.44851 3.11773C3.38092 2.70651 3.20117 2.30448 2.8247 2.0915C2.52806 1.92347 2.16626 1.90832 1.83542 1.95495C1.67196 1.97792 1.51018 2.01631 1.3521 2.06416C1.12134 2.13412 0.921221 2.25794 0.824811 2.4902C0.74555 2.68155 0.768956 2.87139 0.830637 3.06015C0.86979 3.17988 0.908912 3.29925 0.948064 3.41898C1.10218 3.8898 1.25596 4.361 1.41007 4.83181C1.62643 5.49387 1.84316 6.15589 2.05952 6.81794C2.29104 7.52612 2.52255 8.23431 2.75445 8.94281C2.94689 9.53109 3.13935 10.1197 3.33178 10.708C3.34362 10.7442 3.37879 10.7675 3.41673 10.7643V10.7643C3.46881 10.7598 3.50352 10.7085 3.48823 10.6585L3.2447 9.86279Z" stroke="#189EFF" stroke-width="1.3"/>
<path d="M11.3869 15.6168C11.3478 15.6175 11.3084 15.6185 11.2693 15.6191C11.1604 15.6212 11.0515 15.6234 10.9427 15.6255C10.7772 15.6289 10.6119 15.6319 10.4464 15.6353C10.2377 15.6394 10.0293 15.6435 9.82062 15.6476C9.58068 15.6522 9.34103 15.6569 9.1011 15.6618C8.84568 15.6667 8.58999 15.6719 8.33457 15.6768C8.07566 15.6817 7.81646 15.687 7.55755 15.6919C7.30826 15.6967 7.05899 15.7018 6.80941 15.7065C6.5829 15.7109 6.35668 15.7153 6.13017 15.7197C5.93985 15.7235 5.74953 15.727 5.55922 15.7308C5.41823 15.7334 5.27725 15.7364 5.13626 15.7391C5.05774 15.7407 4.97951 15.742 4.90099 15.7436C4.82597 15.7452 4.75159 15.7497 4.67614 15.7427C4.66824 15.7418 4.66034 15.741 4.65245 15.7401C4.6384 15.7384 4.65831 15.7413 4.64425 15.7389C4.62903 15.7365 4.6138 15.7338 4.59857 15.7308C4.5678 15.7243 4.53701 15.7162 4.50704 15.7051C4.47708 15.694 4.46591 15.6896 4.43403 15.6686C4.42812 15.6647 4.42251 15.6605 4.4166 15.6563C4.39922 15.6472 4.3613 15.6143 4.34865 15.5552C4.34241 15.5308 4.3382 15.5058 4.33283 15.4814C4.31924 15.4187 4.30478 15.3564 4.29032 15.2941C4.19451 14.8844 4.09288 14.4762 3.99445 14.0672C3.94438 13.8594 3.57169 11.1952 3.48834 10.6611C3.48149 10.6172 3.43924 10.5896 3.39585 10.5993V10.5993C3.35605 10.6082 3.3297 10.6461 3.33521 10.6865L3.7321 13.598C3.7588 13.7121 3.78549 13.8258 3.81277 13.9395C3.86829 14.1722 3.92468 14.4045 3.98107 14.6368C4.0293 14.8349 4.07753 15.0329 4.1246 15.231C4.14248 15.3058 4.16006 15.3806 4.17707 15.4558C4.18904 15.5089 4.19698 15.5657 4.21331 15.617C4.29986 15.8902 4.62657 15.9242 4.84479 15.9123C4.88301 15.9104 4.92095 15.9094 4.95919 15.9088C5.06165 15.9067 5.1641 15.9047 5.26656 15.9027C5.42973 15.8997 5.5926 15.8963 5.75578 15.8933C5.9639 15.8892 6.17231 15.8851 6.38044 15.881C6.62183 15.8764 6.86353 15.8717 7.10492 15.8668C7.36355 15.8618 7.62216 15.8566 7.88049 15.8517C8.14349 15.8467 8.4062 15.8413 8.6692 15.8363C8.92374 15.8315 9.17856 15.8263 9.43309 15.8214C9.66311 15.817 9.89312 15.8125 10.1234 15.8081C10.3172 15.8042 10.5111 15.8003 10.7049 15.7968C10.8468 15.7941 10.9883 15.7912 11.1302 15.7885C11.2072 15.7869 11.2843 15.7856 11.3611 15.784C11.371 15.7838 11.3809 15.7837 11.3909 15.7835C11.4837 15.7803 11.4809 15.6149 11.3869 15.6168Z" stroke="#189EFF" stroke-width="1.3"/>
<path d="M6.20068 9.36272L10.4763 8.34766" stroke="#189EFF" stroke-width="1.3" stroke-linecap="round" stroke-linejoin="round"/>
</svg>
