<svg width="17" height="17" viewBox="0 0 17 17" fill="none" xmlns="http://www.w3.org/2000/svg">
<path d="M3.2447 9.41357C3.02689 8.74729 2.80908 8.08102 2.59091 7.41477C2.36283 6.71716 2.13472 6.01919 1.90628 5.3216C1.71588 4.73914 1.52548 4.15668 1.33507 3.57421C1.2259 3.24001 1.11672 2.90581 1.00721 2.572C0.963214 2.43785 0.92848 2.3105 0.970478 2.16612C1.00385 2.05216 1.07749 1.95214 1.17489 1.88449C1.25317 1.8304 1.34582 1.80478 1.43584 1.77793C1.58976 1.73224 1.74571 1.69761 1.90516 1.6786C2.21119 1.6424 2.54916 1.66249 2.8094 1.84519C2.95682 1.94846 3.06835 2.09352 3.14233 2.25662C3.24664 2.48699 3.26762 2.72482 3.30275 2.97158C3.34073 3.23909 3.44735 3.49641 3.61491 3.70872C3.77888 3.917 3.98743 4.06647 4.22643 4.17823C4.41716 4.26731 4.56636 4.37442 4.72283 4.52868C4.90859 4.7123 5.07289 4.95421 5.1955 5.19967C5.3709 5.55067 5.48971 5.93002 5.57298 6.31276C5.68899 6.84618 5.7417 7.39295 5.76279 7.93807C5.7757 8.26816 5.75869 8.59972 5.78238 8.92889C5.80349 9.22353 5.83613 9.51756 5.87377 9.8108C5.91235 10.1108 5.95632 10.4104 6.00418 10.7089C6.04626 10.9736 6.0812 11.2435 6.14076 11.5052C6.22687 11.883 6.60804 12.1086 6.98099 12.0294C7.36139 11.9485 7.74125 11.8655 8.12157 11.7835C8.81004 11.6351 9.49816 11.4868 10.1866 11.3384C10.8211 11.2018 11.4552 11.0649 12.0896 10.9284C12.2738 10.8888 12.4579 10.8489 12.642 10.8093C12.6796 10.801 12.7177 10.7931 12.7554 10.7848C12.7945 10.7764 12.8335 10.7669 12.8724 10.7567C12.8873 10.7529 12.9025 10.7491 12.9174 10.7449C12.9245 10.7433 12.892 10.7489 12.9156 10.7455C12.932 10.743 12.9484 10.7398 12.9652 10.7373C13.1831 10.7075 13.3864 10.7184 13.5964 10.7447C13.9089 10.7843 14.2162 10.8696 14.4965 11.0155C14.8222 11.185 15.095 11.4391 15.2796 11.7574C15.4591 12.0672 15.6807 14.0198 15.7117 14.3744C15.7239 14.5134 15.7205 14.6523 15.6608 14.7801C15.5858 14.9407 15.4321 15.028 15.2666 15.0736C15.1107 15.1165 14.9421 15.1215 14.7814 15.1312C14.6007 15.1419 14.4199 15.1482 14.239 15.1535C13.4395 15.1763 12.6391 15.175 11.8395 15.1696C11.6845 15.1687 11.5294 15.1674 11.3744 15.1654C11.2584 15.1641 11.2744 15.3437 11.3897 15.3451C11.9462 15.352 12.503 15.3535 13.0595 15.3506C13.4868 15.3486 13.9138 15.3437 14.3409 15.3305C14.5153 15.3251 14.6899 15.3182 14.8641 15.3066C15.048 15.2945 15.2354 15.2811 15.4099 15.217C15.5857 15.1525 15.7392 15.0341 15.8213 14.8627C15.8886 14.7224 15.9037 14.5633 15.8953 14.4098C15.8755 14.0463 15.6497 12.0785 15.4824 11.755C15.1393 11.0921 14.4779 10.7076 13.7574 10.5862C13.515 10.5453 13.2627 10.528 13.0173 10.55C12.9002 10.5607 12.7883 10.5941 12.6736 10.6191C12.2261 10.7155 11.7786 10.8119 11.3311 10.9086C10.6174 11.0624 9.90368 11.2162 9.18996 11.37C8.59143 11.4992 7.99286 11.628 7.39468 11.7571C7.2557 11.787 7.11637 11.817 6.97739 11.8469C6.8935 11.8649 6.81035 11.8746 6.72499 11.8583C6.60542 11.8355 6.49337 11.7694 6.41754 11.6738C6.33964 11.5751 6.31509 11.4654 6.29358 11.3445C6.19078 10.7622 6.09792 10.1776 6.02836 9.59023C5.99415 9.30322 5.95396 9.00983 5.95137 8.72013C5.94839 8.3834 5.95165 8.04759 5.93277 7.71113C5.88223 6.79895 5.7459 5.8398 5.30693 5.02477C5.17365 4.77732 5.00668 4.54649 4.80132 4.35368C4.6349 4.19737 4.44681 4.08417 4.24192 3.98616C3.99776 3.86904 3.7943 3.6815 3.6561 3.44859C3.58683 3.33215 3.53643 3.2036 3.50495 3.07199C3.47341 2.93967 3.47044 2.80274 3.44851 2.66851C3.38092 2.25729 3.20117 1.85526 2.8247 1.64228C2.52806 1.47426 2.16626 1.4591 1.83542 1.50573C1.67196 1.5287 1.51018 1.56709 1.3521 1.61494C1.12134 1.6849 0.921221 1.80872 0.824811 2.04098C0.74555 2.23233 0.768956 2.42217 0.830637 2.61093C0.86979 2.73066 0.908912 2.85003 0.948064 2.96977C1.10218 3.44058 1.25596 3.91178 1.41007 4.38259C1.62643 5.04465 1.84316 5.70667 2.05952 6.36873C2.29104 7.07691 2.52255 7.78509 2.75445 8.4936C2.94689 9.08187 3.13935 9.67049 3.33178 10.2588C3.34362 10.295 3.37879 10.3183 3.41673 10.315V10.315C3.46881 10.3106 3.50352 10.2592 3.48823 10.2093L3.2447 9.41357Z" stroke="#189EFF" stroke-width="1.3"/>
<path d="M11.3869 15.1676C11.3478 15.1683 11.3084 15.1692 11.2693 15.1699C11.1604 15.172 11.0515 15.1741 10.9427 15.1763C10.7772 15.1796 10.6119 15.1827 10.4464 15.1861C10.2377 15.1902 10.0293 15.1943 9.82062 15.1984C9.58068 15.203 9.34103 15.2076 9.1011 15.2126C8.84568 15.2175 8.58999 15.2227 8.33457 15.2275C8.07566 15.2325 7.81646 15.2377 7.55755 15.2427C7.30826 15.2474 7.05899 15.2525 6.80941 15.2573C6.5829 15.2617 6.35668 15.2661 6.13017 15.2705C5.93985 15.2743 5.74953 15.2778 5.55922 15.2816C5.41823 15.2842 5.27725 15.2872 5.13626 15.2899C5.05774 15.2915 4.97951 15.2928 4.90099 15.2944C4.82597 15.296 4.75159 15.3005 4.67614 15.2935C4.66824 15.2926 4.66034 15.2918 4.65245 15.2909C4.6384 15.2891 4.65831 15.2921 4.64425 15.2897C4.62903 15.2873 4.6138 15.2846 4.59857 15.2815C4.5678 15.2751 4.53701 15.267 4.50704 15.2559C4.47708 15.2448 4.46591 15.2404 4.43403 15.2194C4.42812 15.2155 4.42251 15.2113 4.4166 15.2071C4.39922 15.198 4.3613 15.1651 4.34865 15.106C4.34241 15.0816 4.3382 15.0565 4.33283 15.0321C4.31924 14.9695 4.30478 14.9072 4.29032 14.8449C4.19451 14.4352 4.09288 14.0269 3.99445 13.618C3.94438 13.4102 3.57169 10.746 3.48834 10.2119C3.48149 10.168 3.43924 10.1404 3.39585 10.1501V10.1501C3.35605 10.159 3.3297 10.1969 3.33521 10.2373L3.7321 13.1488C3.7588 13.2628 3.78549 13.3766 3.81277 13.4903C3.86829 13.7229 3.92468 13.9553 3.98107 14.1876C4.0293 14.3857 4.07753 14.5837 4.1246 14.7818C4.14248 14.8566 4.16006 14.9314 4.17707 15.0066C4.18904 15.0597 4.19698 15.1164 4.21331 15.1678C4.29986 15.441 4.62657 15.475 4.84479 15.4631C4.88301 15.4611 4.92095 15.4602 4.95919 15.4595C5.06165 15.4575 5.1641 15.4555 5.26656 15.4535C5.42973 15.4505 5.5926 15.4471 5.75578 15.4441C5.9639 15.44 6.17231 15.4359 6.38044 15.4318C6.62183 15.4272 6.86353 15.4225 7.10492 15.4175C7.36355 15.4126 7.62216 15.4074 7.88049 15.4024C8.14349 15.3974 8.4062 15.3921 8.6692 15.3871C8.92374 15.3823 9.17856 15.3771 9.43309 15.3722C9.66311 15.3678 9.89312 15.3633 10.1234 15.3588C10.3172 15.355 10.5111 15.3511 10.7049 15.3476C10.8468 15.3449 10.9883 15.3419 11.1302 15.3393C11.2072 15.3377 11.2843 15.3364 11.3611 15.3348C11.371 15.3346 11.3809 15.3345 11.3909 15.3343C11.4837 15.3311 11.4809 15.1657 11.3869 15.1676Z" stroke="#189EFF" stroke-width="1.3"/>
<path d="M5.91943 9.34319L10.1951 8.32812" stroke="#189EFF" stroke-width="1.3" stroke-linecap="round" stroke-linejoin="round"/>
<rect x="2.32227" y="1.16992" width="3.53198" height="3.49084" rx="1.74542" transform="rotate(-17.4085 2.32227 1.16992)" fill="#189EFF"/>
</svg>
