<svg width="17" height="17" viewBox="0 0 17 17" fill="none" xmlns="http://www.w3.org/2000/svg">
<path d="M3.46736 9.19482C3.24955 8.52854 3.03174 7.86227 2.81357 7.19602C2.58549 6.49841 2.35738 5.80044 2.12894 5.10285C1.93854 4.52039 1.74813 3.93793 1.55773 3.35546C1.44855 3.02126 1.33938 2.68706 1.22987 2.35325C1.18587 2.2191 1.15114 2.09175 1.19313 1.94737C1.2265 1.83341 1.30015 1.73339 1.39755 1.66574C1.47583 1.61165 1.56848 1.58603 1.65849 1.55918C1.81241 1.51349 1.96836 1.47886 2.12782 1.45985C2.43385 1.42365 2.77181 1.44374 3.03206 1.62644C3.17948 1.72971 3.29101 1.87477 3.36498 2.03787C3.4693 2.26824 3.49028 2.50607 3.52541 2.75283C3.56339 3.02034 3.67 3.27766 3.83757 3.48997C4.00154 3.69825 4.21009 3.84772 4.44908 3.95948C4.63982 4.04856 4.78902 4.15567 4.94549 4.30993C5.13125 4.49355 5.29555 4.73546 5.41816 4.98092C5.59356 5.33192 5.71237 5.71127 5.79564 6.09401C5.91164 6.62743 5.96436 7.1742 5.98545 7.71932C5.99835 8.04941 5.98134 8.38097 6.00503 8.71014C6.02614 9.00478 6.05878 9.29881 6.09642 9.59205C6.135 9.89208 6.17898 10.1917 6.22684 10.4902C6.26892 10.7548 6.30385 11.0247 6.36342 11.2864C6.44952 11.6642 6.83069 11.8898 7.20364 11.8107C7.58405 11.7298 7.96391 11.6467 8.34422 11.5648C9.0327 11.4164 9.72081 11.268 10.4093 11.1196C11.0438 10.9831 11.6778 10.8462 12.3123 10.7096C12.4964 10.67 12.6805 10.6301 12.8646 10.5905C12.9023 10.5823 12.9403 10.5743 12.978 10.5661C13.0171 10.5577 13.0561 10.5482 13.0951 10.538C13.1099 10.5342 13.1252 10.5304 13.14 10.5262C13.1471 10.5245 13.1147 10.5302 13.1383 10.5267C13.1547 10.5242 13.1711 10.521 13.1879 10.5185C13.4058 10.4887 13.609 10.4996 13.819 10.5259C14.1315 10.5655 14.4389 10.6509 14.7191 10.7968C15.0448 10.9663 15.3177 11.2203 15.5022 11.5387C15.6817 11.8484 15.9034 13.801 15.9343 14.1556C15.9465 14.2947 15.9431 14.4336 15.8834 14.5614C15.8084 14.722 15.6548 14.8093 15.4893 14.8548C15.3333 14.8978 15.1647 14.9027 15.0041 14.9124C14.8233 14.9231 14.6425 14.9295 14.4616 14.9348C13.6622 14.9576 12.8618 14.9562 12.0621 14.9509C11.9071 14.95 11.7521 14.9487 11.597 14.9467C11.4811 14.9453 11.4971 15.125 11.6123 15.1264C12.1689 15.1333 12.7257 15.1347 13.2821 15.1318C13.7094 15.1298 14.1365 15.125 14.5636 15.1118C14.7379 15.1063 14.9125 15.0994 15.0867 15.0878C15.2707 15.0758 15.4581 15.0624 15.6325 14.9983C15.8084 14.9337 15.9619 14.8153 16.0439 14.644C16.1113 14.5036 16.1263 14.3445 16.1179 14.191C16.0982 13.8275 15.8724 11.8597 15.7051 11.5362C15.362 10.8734 14.7005 10.4889 13.98 10.3674C13.7376 10.3265 13.4853 10.3093 13.24 10.3313C13.1229 10.342 13.011 10.3754 12.8962 10.4004C12.4487 10.4967 12.0012 10.5931 11.5538 10.6899C10.84 10.8437 10.1263 10.9975 9.41262 11.1513C8.81408 11.2804 8.21551 11.4092 7.61734 11.5384C7.47836 11.5683 7.33902 11.5982 7.20005 11.6282C7.11616 11.6462 7.033 11.6558 6.94765 11.6395C6.82807 11.6168 6.71603 11.5507 6.6402 11.4551C6.5623 11.3564 6.53775 11.2466 6.51623 11.1257C6.41344 10.5434 6.32058 9.95881 6.25102 9.37148C6.2168 9.08447 6.17662 8.79108 6.17402 8.50138C6.17105 8.16465 6.1743 7.82884 6.15542 7.49238C6.10489 6.5802 5.96855 5.62105 5.52959 4.80602C5.39631 4.55857 5.22933 4.32774 5.02397 4.13493C4.85755 3.97862 4.66947 3.86542 4.46458 3.76741C4.22042 3.65029 4.01696 3.46275 3.87876 3.22984C3.80948 3.1134 3.75908 2.98485 3.72761 2.85324C3.69607 2.72092 3.69309 2.58399 3.67117 2.44976C3.60357 2.03854 3.42383 1.63651 3.04735 1.42353C2.75072 1.25551 2.38892 1.24035 2.05808 1.28698C1.89462 1.30995 1.73284 1.34834 1.57475 1.39619C1.34399 1.46615 1.14388 1.58997 1.04747 1.82223C0.968206 2.01358 0.991612 2.20342 1.05329 2.39218C1.09245 2.51191 1.13157 2.63128 1.17072 2.75102C1.32483 3.22183 1.47861 3.69303 1.63272 4.16384C1.84909 4.8259 2.06581 5.48792 2.28218 6.14998C2.51369 6.85816 2.74521 7.56634 2.97711 8.27485C3.16954 8.86312 3.362 9.45174 3.55444 10.04C3.56628 10.0762 3.60145 10.0995 3.63939 10.0963V10.0963C3.69147 10.0918 3.72618 10.0405 3.71088 9.99052L3.46736 9.19482Z" stroke="#189EFF" stroke-width="1.3"/>
<path d="M11.6096 14.9489C11.5705 14.9495 11.5311 14.9505 11.492 14.9511C11.3831 14.9533 11.2742 14.9554 11.1653 14.9575C10.9998 14.9609 10.8346 14.964 10.6691 14.9673C10.4604 14.9714 10.252 14.9755 10.0433 14.9796C9.80334 14.9843 9.56369 14.9889 9.32375 14.9938C9.06834 14.9987 8.81264 15.0039 8.55723 15.0088C8.29832 15.0137 8.03912 15.019 7.7802 15.0239C7.53092 15.0287 7.28164 15.0338 7.03207 15.0386C6.80556 15.043 6.57934 15.0474 6.35282 15.0518C6.16251 15.0556 5.97219 15.059 5.78187 15.0628C5.64088 15.0655 5.4999 15.0685 5.35891 15.0711C5.2804 15.0727 5.20216 15.074 5.12364 15.0757C5.04863 15.0772 4.97425 15.0818 4.8988 15.0747C4.8909 15.0739 4.883 15.073 4.8751 15.0722C4.86106 15.0704 4.88096 15.0734 4.86691 15.071C4.85168 15.0686 4.83646 15.0658 4.82122 15.0628C4.79046 15.0563 4.75966 15.0482 4.7297 15.0372C4.69973 15.0261 4.68856 15.0216 4.65668 15.0006C4.65078 14.9968 4.64516 14.9926 4.63925 14.9884C4.62188 14.9793 4.58396 14.9463 4.5713 14.8872C4.56506 14.8629 4.56085 14.8378 4.55549 14.8134C4.5419 14.7507 4.52744 14.6885 4.51298 14.6262C4.41717 14.2165 4.31554 13.8082 4.21711 13.3992C4.16704 13.1914 3.79434 10.5272 3.711 9.99314C3.70414 9.94921 3.66189 9.92161 3.6185 9.93133V9.93133C3.5787 9.94025 3.55235 9.97816 3.55786 10.0186L3.95476 12.9301C3.98146 13.0441 4.00815 13.1578 4.03543 13.2715C4.09095 13.5042 4.14734 13.7365 4.20373 13.9689C4.25196 14.1669 4.30019 14.365 4.34726 14.563C4.36513 14.6379 4.38272 14.7127 4.39973 14.7878C4.4117 14.8409 4.41964 14.8977 4.43596 14.949C4.52252 15.2222 4.84923 15.2562 5.06744 15.2443C5.10566 15.2424 5.14361 15.2414 5.18185 15.2408C5.2843 15.2388 5.38676 15.2368 5.48921 15.2347C5.65239 15.2317 5.81526 15.2284 5.97843 15.2253C6.18656 15.2213 6.39497 15.2172 6.60309 15.2131C6.84449 15.2084 7.08618 15.2038 7.32758 15.1988C7.5862 15.1939 7.84482 15.1886 8.10315 15.1837C8.36615 15.1787 8.62886 15.1734 8.89186 15.1684C9.14639 15.1635 9.40121 15.1583 9.65575 15.1535C9.88577 15.149 10.1158 15.1446 10.3461 15.1401C10.5399 15.1362 10.7337 15.1324 10.9275 15.1288C11.0694 15.1262 11.211 15.1232 11.3528 15.1205C11.4299 15.1189 11.507 15.1176 11.5837 15.116C11.5937 15.1159 11.6036 15.1157 11.6135 15.1156C11.7063 15.1124 11.7036 14.947 11.6096 14.9489Z" stroke="#189EFF" stroke-width="1.3"/>
</svg>
