<svg width="17" height="17" viewBox="0 0 17 17" fill="none" xmlns="http://www.w3.org/2000/svg">
<path d="M3.2447 9.36279C3.02689 8.69651 2.80908 8.03024 2.59091 7.36399C2.36283 6.66638 2.13472 5.96841 1.90628 5.27082C1.71588 4.68836 1.52548 4.1059 1.33507 3.52343C1.2259 3.18923 1.11672 2.85503 1.00721 2.52122C0.963214 2.38706 0.92848 2.25972 0.970478 2.11534C1.00385 2.00138 1.07749 1.90136 1.17489 1.8337C1.25317 1.77962 1.34582 1.754 1.43584 1.72715C1.58976 1.68146 1.74571 1.64683 1.90516 1.62782C2.21119 1.59162 2.54916 1.6117 2.8094 1.79441C2.95682 1.89768 3.06835 2.04274 3.14233 2.20584C3.24664 2.43621 3.26762 2.67404 3.30275 2.9208C3.34073 3.1883 3.44735 3.44563 3.61491 3.65794C3.77888 3.86622 3.98743 4.01568 4.22643 4.12745C4.41716 4.21653 4.56636 4.32363 4.72283 4.4779C4.90859 4.66152 5.07289 4.90343 5.1955 5.14889C5.3709 5.49989 5.48971 5.87924 5.57298 6.26198C5.68899 6.7954 5.7417 7.34217 5.76279 7.88729C5.7757 8.21738 5.75869 8.54893 5.78238 8.87811C5.80349 9.17275 5.83613 9.46678 5.87377 9.76002C5.91235 10.0601 5.95632 10.3596 6.00418 10.6581C6.04626 10.9228 6.0812 11.1927 6.14076 11.4544C6.22687 11.8322 6.60804 12.0578 6.98099 11.9786C7.36139 11.8977 7.74125 11.8147 8.12157 11.7327C8.81004 11.5843 9.49816 11.436 10.1866 11.2876C10.8211 11.151 11.4552 11.0141 12.0896 10.8776C12.2738 10.838 12.4579 10.7981 12.642 10.7585C12.6796 10.7502 12.7177 10.7423 12.7554 10.734C12.7945 10.7256 12.8335 10.7161 12.8724 10.706C12.8873 10.7022 12.9025 10.6983 12.9174 10.6942C12.9245 10.6925 12.892 10.6981 12.9156 10.6947C12.932 10.6922 12.9484 10.689 12.9652 10.6865C13.1831 10.6567 13.3864 10.6676 13.5964 10.6939C13.9089 10.7335 14.2162 10.8188 14.4965 10.9647C14.8222 11.1342 15.095 11.3883 15.2796 11.7066C15.4591 12.0164 15.6807 13.969 15.7117 14.3236C15.7239 14.4627 15.7205 14.6016 15.6608 14.7294C15.5858 14.8899 15.4321 14.9772 15.2666 15.0228C15.1107 15.0658 14.9421 15.0707 14.7814 15.0804C14.6007 15.0911 14.4199 15.0974 14.239 15.1027C13.4395 15.1256 12.6391 15.1242 11.8395 15.1188C11.6845 15.1179 11.5294 15.1166 11.3744 15.1147C11.2584 15.1133 11.2744 15.2929 11.3897 15.2943C11.9462 15.3012 12.503 15.3027 13.0595 15.2998C13.4868 15.2978 13.9138 15.2929 14.3409 15.2797C14.5153 15.2743 14.6899 15.2674 14.8641 15.2558C15.048 15.2438 15.2354 15.2303 15.4099 15.1662C15.5857 15.1017 15.7392 14.9833 15.8213 14.812C15.8886 14.6716 15.9037 14.5125 15.8953 14.359C15.8755 13.9955 15.6497 12.0277 15.4824 11.7042C15.1393 11.0414 14.4779 10.6568 13.7574 10.5354C13.515 10.4945 13.2627 10.4773 13.0173 10.4992C12.9002 10.5099 12.7883 10.5434 12.6736 10.5683C12.2261 10.6647 11.7786 10.7611 11.3311 10.8578C10.6174 11.0116 9.90368 11.1654 9.18996 11.3192C8.59143 11.4484 7.99286 11.5772 7.39468 11.7063C7.2557 11.7363 7.11637 11.7662 6.97739 11.7962C6.8935 11.8142 6.81035 11.8238 6.72499 11.8075C6.60542 11.7848 6.49337 11.7186 6.41754 11.623C6.33964 11.5243 6.31509 11.4146 6.29358 11.2937C6.19078 10.7114 6.09792 10.1268 6.02836 9.53945C5.99415 9.25244 5.95396 8.95905 5.95137 8.66935C5.94839 8.33262 5.95165 7.9968 5.93277 7.66034C5.88223 6.74817 5.7459 5.78901 5.30693 4.97399C5.17365 4.72654 5.00668 4.49571 4.80132 4.3029C4.6349 4.14659 4.44681 4.03339 4.24192 3.93537C3.99776 3.81826 3.7943 3.63072 3.6561 3.39781C3.58683 3.28136 3.53643 3.15282 3.50495 3.02121C3.47341 2.88889 3.47044 2.75196 3.44851 2.61773C3.38092 2.20651 3.20117 1.80448 2.8247 1.5915C2.52806 1.42347 2.16626 1.40832 1.83542 1.45495C1.67196 1.47792 1.51018 1.51631 1.3521 1.56416C1.12134 1.63412 0.921221 1.75794 0.824811 1.9902C0.74555 2.18155 0.768956 2.37139 0.830637 2.56015C0.86979 2.67988 0.908912 2.79925 0.948064 2.91898C1.10218 3.3898 1.25596 3.861 1.41007 4.33181C1.62643 4.99387 1.84316 5.65589 2.05952 6.31794C2.29104 7.02612 2.52255 7.73431 2.75445 8.44281C2.94689 9.03109 3.13935 9.61971 3.33178 10.208C3.34362 10.2442 3.37879 10.2675 3.41673 10.2643V10.2643C3.46881 10.2598 3.50352 10.2085 3.48823 10.1585L3.2447 9.36279Z" stroke="#189EFF" stroke-width="1.3"/>
<path d="M11.3869 15.1168C11.3478 15.1175 11.3084 15.1185 11.2693 15.1191C11.1604 15.1212 11.0515 15.1234 10.9427 15.1255C10.7772 15.1289 10.6119 15.1319 10.4464 15.1353C10.2377 15.1394 10.0293 15.1435 9.82062 15.1476C9.58068 15.1522 9.34103 15.1569 9.1011 15.1618C8.84568 15.1667 8.58999 15.1719 8.33457 15.1768C8.07566 15.1817 7.81646 15.187 7.55755 15.1919C7.30826 15.1967 7.05899 15.2018 6.80941 15.2065C6.5829 15.2109 6.35668 15.2153 6.13017 15.2197C5.93985 15.2235 5.74953 15.227 5.55922 15.2308C5.41823 15.2334 5.27725 15.2364 5.13626 15.2391C5.05774 15.2407 4.97951 15.242 4.90099 15.2436C4.82597 15.2452 4.75159 15.2497 4.67614 15.2427C4.66824 15.2418 4.66034 15.241 4.65245 15.2401C4.6384 15.2384 4.65831 15.2413 4.64425 15.2389C4.62903 15.2365 4.6138 15.2338 4.59857 15.2308C4.5678 15.2243 4.53701 15.2162 4.50704 15.2051C4.47708 15.194 4.46591 15.1896 4.43403 15.1686C4.42812 15.1647 4.42251 15.1605 4.4166 15.1563C4.39922 15.1472 4.3613 15.1143 4.34865 15.0552C4.34241 15.0308 4.3382 15.0058 4.33283 14.9814C4.31924 14.9187 4.30478 14.8564 4.29032 14.7941C4.19451 14.3844 4.09288 13.9762 3.99445 13.5672C3.94438 13.3594 3.57169 10.6952 3.48834 10.1611C3.48149 10.1172 3.43924 10.0896 3.39585 10.0993V10.0993C3.35605 10.1082 3.3297 10.1461 3.33521 10.1865L3.7321 13.098C3.7588 13.2121 3.78549 13.3258 3.81277 13.4395C3.86829 13.6722 3.92468 13.9045 3.98107 14.1368C4.0293 14.3349 4.07753 14.5329 4.1246 14.731C4.14248 14.8058 4.16006 14.8806 4.17707 14.9558C4.18904 15.0089 4.19698 15.0657 4.21331 15.117C4.29986 15.3902 4.62657 15.4242 4.84479 15.4123C4.88301 15.4104 4.92095 15.4094 4.95919 15.4088C5.06165 15.4067 5.1641 15.4047 5.26656 15.4027C5.42973 15.3997 5.5926 15.3963 5.75578 15.3933C5.9639 15.3892 6.17231 15.3851 6.38044 15.381C6.62183 15.3764 6.86353 15.3717 7.10492 15.3668C7.36355 15.3618 7.62216 15.3566 7.88049 15.3517C8.14349 15.3467 8.4062 15.3413 8.6692 15.3363C8.92374 15.3315 9.17856 15.3263 9.43309 15.3214C9.66311 15.317 9.89312 15.3125 10.1234 15.3081C10.3172 15.3042 10.5111 15.3003 10.7049 15.2968C10.8468 15.2941 10.9883 15.2912 11.1302 15.2885C11.2072 15.2869 11.2843 15.2856 11.3611 15.284C11.371 15.2838 11.3809 15.2837 11.3909 15.2835C11.4837 15.2803 11.4809 15.1149 11.3869 15.1168Z" stroke="#189EFF" stroke-width="1.3"/>
</svg>
