<svg width="35" height="36" viewBox="0 0 35 36" fill="none" xmlns="http://www.w3.org/2000/svg">
<path fill-rule="evenodd" clip-rule="evenodd" d="M17.1027 2.39258C8.47039 2.39258 1.47217 9.3908 1.47217 18.0231C1.47217 26.6555 8.47039 33.6537 17.1027 33.6537C25.735 33.6537 32.7333 26.6555 32.7333 18.0231C32.7333 9.3908 25.735 2.39258 17.1027 2.39258ZM23.8779 15.3801C24.0026 15.2375 24.0976 15.0714 24.1572 14.8916C24.2168 14.7117 24.2398 14.5218 24.225 14.3329C24.2101 14.144 24.1576 13.96 24.0705 13.7917C23.9835 13.6234 23.8636 13.4742 23.7181 13.3529C23.5725 13.2316 23.4042 13.1407 23.2229 13.0854C23.0417 13.0301 22.8512 13.0116 22.6628 13.0311C22.4743 13.0505 22.2916 13.1074 22.1254 13.1985C21.9593 13.2895 21.813 13.4129 21.6953 13.5613L15.5851 20.892L12.4235 17.729C12.1555 17.4702 11.7966 17.3269 11.424 17.3302C11.0514 17.3334 10.695 17.4828 10.4316 17.7463C10.1681 18.0098 10.0187 18.3662 10.0154 18.7387C10.0122 19.1113 10.1554 19.4702 10.4143 19.7382L14.6771 24.0011C14.8168 24.1406 14.9839 24.2496 15.168 24.3209C15.352 24.3923 15.5489 24.4245 15.7461 24.4155C15.9433 24.4066 16.1364 24.3566 16.3133 24.2689C16.4901 24.1811 16.6467 24.0575 16.7731 23.9059L23.8779 15.3801Z" fill="#393A37"/>
</svg>
