<svg width="17" height="17" viewBox="0 0 17 17" fill="none" xmlns="http://www.w3.org/2000/svg">
<g clip-path="url(#clip0_1768_827)">
<path d="M5.66826 3.62414C5.61856 3.50058 5.61955 3.3624 5.67103 3.23956C5.7225 3.11672 5.82031 3.01911 5.94326 2.96789C6.00391 2.94254 6.06902 2.92955 6.13476 2.92969C6.2005 2.92983 6.26555 2.9431 6.32609 2.96871C6.38663 2.99432 6.44145 3.03177 6.48733 3.07885C6.53321 3.12594 6.56922 3.18171 6.59326 3.24289L7.07451 4.39289C7.12459 4.51568 7.12449 4.65322 7.07424 4.77594C7.02398 4.89865 6.92758 4.99675 6.80576 5.04914C6.74409 5.07363 6.67837 5.08635 6.61201 5.08664C6.51366 5.08536 6.41776 5.0558 6.33575 5.0015C6.25374 4.94719 6.18909 4.87044 6.14951 4.78039L5.66826 3.62414ZM2.15576 7.68039L3.30576 8.16164C3.36744 8.18613 3.43315 8.19885 3.49951 8.19914C3.61564 8.20003 3.72846 8.16046 3.81859 8.08723C3.90873 8.014 3.97056 7.91168 3.99348 7.79783C4.0164 7.68398 3.99897 7.5657 3.94419 7.4633C3.88941 7.3609 3.80069 7.28076 3.69326 7.23664L2.53701 6.75539C2.41344 6.70569 2.27527 6.70668 2.15243 6.75816C2.02959 6.80963 1.93198 6.90744 1.88076 7.03039C1.85541 7.09105 1.84242 7.15615 1.84256 7.22189C1.8427 7.28763 1.85596 7.35268 1.88158 7.41322C1.90719 7.47376 1.94464 7.52858 1.99172 7.57446C2.0388 7.62034 2.09458 7.65636 2.15576 7.68039ZM14.1245 8.19914C14.1909 8.19885 14.2566 8.18613 14.3183 8.16164L15.4683 7.68039C15.5294 7.65636 15.5852 7.62034 15.6323 7.57446C15.6794 7.52858 15.7168 7.47376 15.7424 7.41322C15.7681 7.35268 15.7813 7.28763 15.7815 7.22189C15.7816 7.15615 15.7686 7.09105 15.7433 7.03039C15.692 6.90744 15.5944 6.80963 15.4716 6.75816C15.3488 6.70668 15.2106 6.70569 15.087 6.75539L13.9308 7.23664C13.8233 7.28076 13.7346 7.3609 13.6798 7.4633C13.6251 7.5657 13.6076 7.68398 13.6305 7.79783C13.6535 7.91168 13.7153 8.014 13.8054 8.08723C13.8956 8.16046 14.0084 8.20003 14.1245 8.19914ZM10.8183 5.04914C10.8799 5.07363 10.9457 5.08635 11.012 5.08664C11.1104 5.08536 11.2063 5.0558 11.2883 5.0015C11.3703 4.94719 11.4349 4.87044 11.4745 4.78039L11.9558 3.62414C12.0055 3.50058 12.0045 3.3624 11.953 3.23956C11.9015 3.11672 11.8037 3.01911 11.6808 2.96789C11.6201 2.94254 11.555 2.92955 11.4893 2.92969C11.4235 2.92983 11.3585 2.9431 11.2979 2.96871C11.2374 2.99432 11.1826 3.03177 11.1367 3.07885C11.0908 3.12594 11.0548 3.18171 11.0308 3.24289L10.5495 4.39289C10.4994 4.51568 10.4995 4.65322 10.5498 4.77594C10.6 4.89865 10.6964 4.99675 10.8183 5.04914ZM16.312 10.8991C16.312 11.0318 16.2593 11.1589 16.1656 11.2527C16.0718 11.3465 15.9446 11.3991 15.812 11.3991H1.81201C1.6794 11.3991 1.55223 11.3465 1.45846 11.2527C1.36469 11.1589 1.31201 11.0318 1.31201 10.8991C1.31201 10.7665 1.36469 10.6394 1.45846 10.5456C1.55223 10.4518 1.6794 10.3991 1.81201 10.3991H4.59326C4.57332 10.2332 4.56288 10.0663 4.56201 9.89914C4.56201 8.77197 5.00978 7.69097 5.80681 6.89394C6.60384 6.09691 7.68484 5.64914 8.81201 5.64914C9.93918 5.64914 11.0202 6.09691 11.8172 6.89394C12.6142 7.69097 13.062 8.77197 13.062 9.89914C13.0611 10.0663 13.0507 10.2332 13.0308 10.3991H15.812C15.9446 10.3991 16.0718 10.4518 16.1656 10.5456C16.2593 10.6394 16.312 10.7665 16.312 10.8991ZM5.59951 10.3991H12.0245C12.0496 10.2337 12.0622 10.0665 12.062 9.89914C12.062 9.03719 11.7196 8.21054 11.1101 7.60105C10.5006 6.99155 9.67397 6.64914 8.81201 6.64914C7.95006 6.64914 7.12341 6.99155 6.51391 7.60105C5.90442 8.21054 5.56201 9.03719 5.56201 9.89914C5.56184 10.0665 5.57437 10.2337 5.59951 10.3991ZM13.812 12.8991H3.81201C3.6794 12.8991 3.55223 12.9518 3.45846 13.0456C3.36469 13.1394 3.31201 13.2665 3.31201 13.3991C3.31201 13.5318 3.36469 13.6589 3.45846 13.7527C3.55223 13.8465 3.6794 13.8991 3.81201 13.8991H13.812C13.9446 13.8991 14.0718 13.8465 14.1656 13.7527C14.2593 13.6589 14.312 13.5318 14.312 13.3991C14.312 13.2665 14.2593 13.1394 14.1656 13.0456C14.0718 12.9518 13.9446 12.8991 13.812 12.8991Z" fill="black"/>
</g>
<defs>
<clipPath id="clip0_1768_827">
<rect width="16" height="16" fill="white" transform="translate(0.812012 0.898438)"/>
</clipPath>
</defs>
</svg>
