<svg width="17" height="17" viewBox="0 0 17 17" fill="none" xmlns="http://www.w3.org/2000/svg">
<g clip-path="url(#clip0_1768_829)">
<path d="M8.31201 4.64844C7.47144 4.64844 6.64975 4.8977 5.95084 5.36469C5.25193 5.83169 4.7072 6.49545 4.38552 7.27203C4.06385 8.04862 3.97969 8.90315 4.14367 9.72757C4.30766 10.552 4.71243 11.3093 5.30681 11.9036C5.90118 12.498 6.65846 12.9028 7.48288 13.0668C8.3073 13.2308 9.16183 13.1466 9.93842 12.8249C10.715 12.5033 11.3788 11.9585 11.8458 11.2596C12.3128 10.5607 12.562 9.73901 12.562 8.89844C12.5604 7.77178 12.1121 6.69173 11.3154 5.89506C10.5187 5.09839 9.43867 4.65009 8.31201 4.64844ZM8.31201 12.1484C7.66922 12.1484 7.04087 11.9578 6.50641 11.6007C5.97195 11.2436 5.55539 10.736 5.3094 10.1422C5.06342 9.5483 4.99906 8.89483 5.12446 8.26439C5.24986 7.63396 5.55939 7.05486 6.01391 6.60034C6.46844 6.14582 7.04753 5.83629 7.67797 5.71089C8.30841 5.58548 8.96187 5.64984 9.55573 5.89583C10.1496 6.14181 10.6572 6.55837 11.0143 7.09283C11.3714 7.62729 11.562 8.25565 11.562 8.89844C11.562 9.76039 11.2196 10.587 10.6101 11.1965C10.0006 11.806 9.17397 12.1484 8.31201 12.1484ZM7.81201 3.14844V1.89844C7.81201 1.76583 7.86469 1.63865 7.95846 1.54488C8.05223 1.45112 8.1794 1.39844 8.31201 1.39844C8.44462 1.39844 8.5718 1.45112 8.66557 1.54488C8.75933 1.63865 8.81201 1.76583 8.81201 1.89844V3.14844C8.81201 3.28105 8.75933 3.40822 8.66557 3.50199C8.5718 3.59576 8.44462 3.64844 8.31201 3.64844C8.1794 3.64844 8.05223 3.59576 7.95846 3.50199C7.86469 3.40822 7.81201 3.28105 7.81201 3.14844ZM3.00576 4.30469C2.95114 4.25986 2.9065 4.20409 2.87473 4.14097C2.84296 4.07785 2.82476 4.00877 2.82129 3.93819C2.81783 3.86761 2.82917 3.79709 2.85461 3.73116C2.88004 3.66523 2.91899 3.60535 2.96896 3.55539C3.01893 3.50542 3.0788 3.46647 3.14473 3.44103C3.21066 3.4156 3.28119 3.40425 3.35177 3.40772C3.42235 3.41119 3.49142 3.42939 3.55454 3.46116C3.61766 3.49293 3.67343 3.53756 3.71826 3.59219L4.59951 4.47969C4.69302 4.57342 4.74553 4.70041 4.74553 4.83281C4.74553 4.96521 4.69302 5.0922 4.59951 5.18594C4.50499 5.27795 4.37829 5.32943 4.24639 5.32943C4.11448 5.32943 3.98778 5.27795 3.89326 5.18594L3.00576 4.30469ZM2.56201 9.39844H1.31201C1.1794 9.39844 1.05223 9.34576 0.958458 9.25199C0.86469 9.15822 0.812012 9.03105 0.812012 8.89844C0.812012 8.76583 0.86469 8.63865 0.958458 8.54488C1.05223 8.45112 1.1794 8.39844 1.31201 8.39844H2.56201C2.69462 8.39844 2.8218 8.45112 2.91557 8.54488C3.00933 8.63865 3.06201 8.76583 3.06201 8.89844C3.06201 9.03105 3.00933 9.15822 2.91557 9.25199C2.8218 9.34576 2.69462 9.39844 2.56201 9.39844ZM4.59951 12.6109C4.69302 12.7047 4.74553 12.8317 4.74553 12.9641C4.74553 13.0965 4.69302 13.2235 4.59951 13.3172L3.71826 14.2047C3.62228 14.2964 3.49478 14.3479 3.36201 14.3484C3.22949 14.3466 3.10242 14.2954 3.00576 14.2047C2.91187 14.1099 2.8592 13.9819 2.8592 13.8484C2.8592 13.715 2.91187 13.587 3.00576 13.4922L3.89326 12.6109C3.98699 12.5174 4.11399 12.4649 4.24639 12.4649C4.37879 12.4649 4.50578 12.5174 4.59951 12.6109ZM8.81201 14.6484V15.8984C8.81201 16.031 8.75933 16.1582 8.66557 16.252C8.5718 16.3458 8.44462 16.3984 8.31201 16.3984C8.1794 16.3984 8.05223 16.3458 7.95846 16.252C7.86469 16.1582 7.81201 16.031 7.81201 15.8984V14.6484C7.81201 14.5158 7.86469 14.3887 7.95846 14.2949C8.05223 14.2011 8.1794 14.1484 8.31201 14.1484C8.44462 14.1484 8.5718 14.2011 8.66557 14.2949C8.75933 14.3887 8.81201 14.5158 8.81201 14.6484ZM13.6183 13.4922C13.7122 13.587 13.7648 13.715 13.7648 13.8484C13.7648 13.9819 13.7122 14.1099 13.6183 14.2047C13.5216 14.2954 13.3945 14.3466 13.262 14.3484C13.1292 14.3479 13.0017 14.2964 12.9058 14.2047L12.0245 13.3172C11.9383 13.2221 11.892 13.0975 11.8952 12.9692C11.8983 12.8408 11.9507 12.7187 12.0415 12.6279C12.1322 12.5372 12.2544 12.4848 12.3827 12.4816C12.511 12.4785 12.6356 12.5248 12.7308 12.6109L13.6183 13.4922ZM15.812 8.89844C15.812 9.03105 15.7593 9.15822 15.6656 9.25199C15.5718 9.34576 15.4446 9.39844 15.312 9.39844H14.062C13.9294 9.39844 13.8022 9.34576 13.7085 9.25199C13.6147 9.15822 13.562 9.03105 13.562 8.89844C13.562 8.76583 13.6147 8.63865 13.7085 8.54488C13.8022 8.45112 13.9294 8.39844 14.062 8.39844H15.312C15.4446 8.39844 15.5718 8.45112 15.6656 8.54488C15.7593 8.63865 15.812 8.76583 15.812 8.89844ZM12.0245 5.18594C11.931 5.0922 11.8785 4.96521 11.8785 4.83281C11.8785 4.70041 11.931 4.57342 12.0245 4.47969L12.9058 3.59219C13.0029 3.51246 13.1262 3.47171 13.2518 3.47787C13.3773 3.48404 13.496 3.53668 13.5849 3.62554C13.6738 3.71441 13.7264 3.83316 13.7326 3.95868C13.7387 4.08421 13.698 4.20754 13.6183 4.30469L12.7308 5.18594C12.6362 5.27795 12.5095 5.32943 12.3776 5.32943C12.2457 5.32943 12.119 5.27795 12.0245 5.18594Z" fill="white"/>
</g>
<defs>
<clipPath id="clip0_1768_829">
<rect width="16" height="16" fill="white" transform="translate(0.312012 0.898438)"/>
</clipPath>
</defs>
</svg>
