<svg width="17" height="17" viewBox="0 0 17 17" fill="none" xmlns="http://www.w3.org/2000/svg">
<g clip-path="url(#clip0_1768_831)">
<path d="M7.81208 8.89822C8.27637 8.89816 8.73604 8.99048 9.1643 9.16981C9.59257 9.34913 9.98087 9.61186 10.3066 9.94272C10.6323 10.2736 10.889 10.6659 11.0616 11.0969C11.2342 11.5279 11.3194 11.989 11.3121 12.4532C11.3109 12.5301 11.3275 12.6062 11.3605 12.6756C11.3935 12.745 11.4421 12.8059 11.5024 12.8535C11.5628 12.9011 11.6333 12.9341 11.7085 12.95C11.7838 12.9659 11.8616 12.9643 11.9361 12.9452C12.1578 12.8884 12.3896 12.883 12.6137 12.9294C12.8379 12.9758 13.0485 13.0728 13.2294 13.2129C13.4104 13.3531 13.5569 13.5327 13.6579 13.7381C13.7589 13.9436 13.8116 14.1693 13.8121 14.3982C13.8121 14.796 13.654 15.1776 13.3727 15.4589C13.0914 15.7402 12.7099 15.8982 12.3121 15.8982H3.81208C3.54618 15.8967 3.28326 15.8422 3.03867 15.7379C2.79409 15.6336 2.57277 15.4815 2.38765 15.2906C2.20254 15.0997 2.05734 14.8739 1.96056 14.6262C1.86378 14.3785 1.81735 14.1141 1.824 13.8482C1.83065 13.5824 1.89024 13.3206 1.99928 13.0781C2.10832 12.8356 2.26463 12.6172 2.45906 12.4358C2.65349 12.2545 2.88214 12.1137 3.13163 12.0217C3.38112 11.9297 3.64644 11.8884 3.91208 11.9002C4.0273 11.9062 4.14103 11.8721 4.23398 11.8037C4.32694 11.7354 4.39339 11.637 4.42208 11.5252C4.61605 10.7735 5.05428 10.1076 5.66791 9.63209C6.28154 9.15657 7.03577 8.89843 7.81208 8.89822ZM12.2851 11.8982C12.1726 10.8844 11.7189 9.93881 10.9985 9.21659C10.2781 8.49437 9.33374 8.03834 8.32017 7.92326C7.3066 7.80819 6.284 8.0409 5.42004 8.58325C4.55607 9.12559 3.90201 9.94539 3.56508 10.9082C2.79302 10.9714 2.07533 11.3308 1.56225 11.9112C1.04916 12.4915 0.780449 13.2478 0.812364 14.0218C0.84428 14.7958 1.17435 15.5274 1.73347 16.0636C2.2926 16.5997 3.03744 16.8988 3.81208 16.8982H12.3121C12.9751 16.8982 13.611 16.6348 14.0798 16.166C14.5487 15.6971 14.8121 15.0613 14.8121 14.3982C14.8121 13.7352 14.5487 13.0993 14.0798 12.6305C13.611 12.1616 12.9751 11.8982 12.3121 11.8982H12.2851Z" fill="black"/>
<path d="M11.3121 2.39844C11.3121 2.26583 11.2594 2.13865 11.1656 2.04488C11.0719 1.95112 10.9447 1.89844 10.8121 1.89844C10.6795 1.89844 10.5523 1.95112 10.4585 2.04488C10.3647 2.13865 10.3121 2.26583 10.3121 2.39844V3.39844C10.3121 3.53105 10.3647 3.65822 10.4585 3.75199C10.5523 3.84576 10.6795 3.89844 10.8121 3.89844C10.9447 3.89844 11.0719 3.84576 11.1656 3.75199C11.2594 3.65822 11.3121 3.53105 11.3121 3.39844V2.39844ZM15.0551 4.36244C15.1028 4.31631 15.1409 4.26114 15.1671 4.20014C15.1933 4.13914 15.2071 4.07353 15.2077 4.00714C15.2083 3.94075 15.1956 3.87491 15.1705 3.81346C15.1453 3.75201 15.1082 3.69619 15.0613 3.64924C15.0143 3.60229 14.9585 3.56517 14.897 3.54003C14.8356 3.51489 14.7698 3.50224 14.7034 3.50281C14.637 3.50339 14.5714 3.51718 14.5104 3.54339C14.4494 3.56959 14.3942 3.60768 14.3481 3.65544L13.6401 4.36244C13.5462 4.45632 13.4934 4.58366 13.4934 4.71644C13.4934 4.84921 13.5462 4.97655 13.6401 5.07044C13.734 5.16432 13.8613 5.21707 13.9941 5.21707C14.1268 5.21707 14.2542 5.16432 14.3481 5.07044L15.0551 4.36244ZM7.27607 3.65544C7.18177 3.56436 7.05546 3.51396 6.92437 3.5151C6.79327 3.51624 6.66786 3.56882 6.57516 3.66153C6.48245 3.75423 6.42987 3.87964 6.42873 4.01074C6.42759 4.14184 6.47799 4.26814 6.56907 4.36244L7.27607 5.07044C7.32256 5.11693 7.37774 5.1538 7.43848 5.17896C7.49922 5.20412 7.56432 5.21707 7.63007 5.21707C7.69581 5.21707 7.76091 5.20412 7.82165 5.17896C7.88239 5.1538 7.93758 5.11693 7.98407 5.07044C8.03055 5.02395 8.06743 4.96876 8.09259 4.90802C8.11775 4.84728 8.1307 4.78218 8.1307 4.71644C8.1307 4.65069 8.11775 4.58559 8.09259 4.52485C8.06743 4.46411 8.03055 4.40893 7.98407 4.36244L7.27607 3.65544ZM9.01007 7.02944C9.13435 6.77188 9.31243 6.54397 9.53229 6.36108C9.75214 6.17819 10.0087 6.04458 10.2845 5.96925C10.5604 5.89393 10.8493 5.87865 11.1315 5.92444C11.4138 5.97023 11.683 6.07602 11.9209 6.23469C12.1589 6.39336 12.36 6.6012 12.5108 6.84421C12.6616 7.08721 12.7585 7.35973 12.795 7.64337C12.8315 7.92701 12.8067 8.21518 12.7224 8.48844C12.638 8.76171 12.4961 9.0137 12.3061 9.22744C12.5051 9.50844 12.6781 9.80944 12.8221 10.1254C13.161 9.81924 13.4255 9.4397 13.5954 9.01576C13.7654 8.59182 13.8363 8.13467 13.8027 7.67917C13.7692 7.22366 13.6321 6.78183 13.4019 6.38736C13.1717 5.99288 12.8544 5.65618 12.4743 5.40292C12.0943 5.14966 11.6614 4.98652 11.2087 4.92596C10.756 4.86539 10.2954 4.90899 9.8621 5.05343C9.4288 5.19787 9.03421 5.43934 8.7084 5.75943C8.38259 6.07952 8.13416 6.46977 7.98207 6.90044C8.33407 6.91144 8.67807 6.95544 9.01007 7.02944ZM13.4941 11.1034C14.0941 11.3184 14.6191 11.6934 15.0161 12.1754C15.0705 12.1313 15.1151 12.0763 15.1469 12.0139C15.1787 11.9515 15.197 11.8831 15.2007 11.8131C15.2044 11.7432 15.1933 11.6732 15.1682 11.6078C15.1431 11.5424 15.1046 11.483 15.0551 11.4334L14.3481 10.7264C14.2768 10.6547 14.1854 10.6063 14.0861 10.5876C13.9867 10.5689 13.884 10.5807 13.7915 10.6215C13.699 10.6624 13.6211 10.7303 13.568 10.8163C13.5149 10.9023 13.4891 11.0025 13.4941 11.1034ZM15.3121 7.39844C15.1795 7.39844 15.0523 7.45112 14.9585 7.54488C14.8647 7.63865 14.8121 7.76583 14.8121 7.89844C14.8121 8.03105 14.8647 8.15822 14.9585 8.25199C15.0523 8.34576 15.1795 8.39844 15.3121 8.39844H16.3121C16.4447 8.39844 16.5719 8.34576 16.6656 8.25199C16.7594 8.15822 16.8121 8.03105 16.8121 7.89844C16.8121 7.76583 16.7594 7.63865 16.6656 7.54488C16.5719 7.45112 16.4447 7.39844 16.3121 7.39844H15.3121Z" fill="black"/>
</g>
<defs>
<clipPath id="clip0_1768_831">
<rect width="16" height="16" fill="white" transform="translate(0.812012 0.898438)"/>
</clipPath>
</defs>
</svg>
