<svg width="17" height="17" viewBox="0 0 17 17" fill="none" xmlns="http://www.w3.org/2000/svg">
<path d="M8.979 6.23647C11.0913 6.23647 12.2897 7.63447 12.464 9.32313H12.5173C13.8767 9.32313 14.9787 10.4221 14.9787 11.7781C14.9787 13.1341 13.8767 14.2331 12.5173 14.2331H5.44067C4.08134 14.2331 2.97934 13.1341 2.97934 11.7781C2.97934 10.4221 4.08134 9.32313 5.44067 9.32313H5.494C5.66934 7.62313 6.86667 6.23647 8.979 6.23647ZM8.979 7.06813C7.55867 7.06813 6.32067 8.21747 6.32067 9.8048C6.32067 10.0565 6.102 10.2538 5.85167 10.2538H5.378C4.51334 10.2538 3.81234 10.9585 3.81234 11.8275C3.81234 12.6968 4.51334 13.4015 5.378 13.4015H12.58C13.4447 13.4015 14.1457 12.6968 14.1457 11.8275C14.1457 10.9585 13.4447 10.2541 12.58 10.2541H12.1067C11.856 10.2541 11.6373 10.0565 11.6373 9.8048C11.6373 8.19713 10.3993 7.06813 8.979 7.06813ZM4.70567 3.56713C5.23567 3.5958 5.75 3.74847 6.214 4.01647C6.89046 4.40561 7.41095 5.0174 7.68667 5.74747C7.43478 5.81857 7.1904 5.91402 6.957 6.03247C6.74367 5.45213 6.27034 4.98047 5.62667 4.6118C5.47677 4.52725 5.31716 4.46121 5.15134 4.41513C5.27267 5.42847 5.23367 6.1178 4.799 6.94113L4.70967 7.1008C4.278 7.83313 3.64067 8.26647 2.668 8.71413C2.77534 8.82013 2.939 8.9448 3.072 9.0388C3.223 9.14547 3.37967 9.23647 3.54 9.31147C3.3094 9.49043 3.10487 9.70068 2.93234 9.93613L2.829 9.8788C2.39362 9.62803 2.01975 9.28319 1.73467 8.86947C1.69123 8.80633 1.66287 8.73406 1.65177 8.65824C1.64066 8.58241 1.64711 8.50505 1.67062 8.43211C1.69413 8.35917 1.73407 8.2926 1.78736 8.23753C1.84065 8.18246 1.90587 8.14036 1.978 8.11447C3.073 7.72247 3.663 7.28113 4.00034 6.63713C4.369 5.9338 4.437 5.1878 4.19234 4.1858C4.17381 4.1099 4.1733 4.03072 4.19085 3.95459C4.20841 3.87846 4.24353 3.8075 4.29342 3.74737C4.34331 3.68725 4.40657 3.63963 4.47816 3.60833C4.54974 3.57704 4.62766 3.56293 4.70567 3.56713Z" fill="black"/>
</svg>
