<svg width="21" height="18" viewBox="0 0 21 18" fill="none" xmlns="http://www.w3.org/2000/svg">
<path d="M1.5 5.89258C1.5 4.49475 1.5 3.79584 1.72836 3.24453C2.03284 2.50944 2.61687 1.92542 3.35195 1.62094C3.90326 1.39258 4.60218 1.39258 6 1.39258H15C16.3978 1.39258 17.0967 1.39258 17.6481 1.62094C18.3831 1.92542 18.9672 2.50944 19.2716 3.24453C19.5 3.79584 19.5 4.49475 19.5 5.89258V6.64258C19.5 7.05679 19.1642 7.39258 18.75 7.39258H18.5C17.3954 7.39258 16.5 8.28801 16.5 9.39258V9.39258C16.5 10.4971 17.3954 11.3926 18.5 11.3926H18.75C19.1642 11.3926 19.5 11.7284 19.5 12.1426V12.8926C19.5 14.2904 19.5 14.9893 19.2716 15.5406C18.9672 16.2757 18.3831 16.8597 17.6481 17.1642C17.0967 17.3926 16.3978 17.3926 15 17.3926H6C4.60218 17.3926 3.90326 17.3926 3.35195 17.1642C2.61687 16.8597 2.03284 16.2757 1.72836 15.5406C1.5 14.9893 1.5 14.2904 1.5 12.8926V12.1426C1.5 11.7284 1.83579 11.3926 2.25 11.3926H2.5C3.60457 11.3926 4.5 10.4971 4.5 9.39258V9.39258C4.5 8.28801 3.60457 7.39258 2.5 7.39258H2.25C1.83579 7.39258 1.5 7.05679 1.5 6.64258V5.89258Z" stroke="#189EFF" stroke-width="1.2"/>
</svg>
