<svg width="25" height="25" viewBox="0 0 25 25" fill="none" xmlns="http://www.w3.org/2000/svg">
<path d="M3.5 8.89453C3.5 7.49671 3.5 6.79779 3.72836 6.24648C4.03284 5.5114 4.61687 4.92737 5.35195 4.62289C5.90326 4.39453 6.60218 4.39453 8 4.39453H17C18.3978 4.39453 19.0967 4.39453 19.6481 4.62289C20.3831 4.92737 20.9672 5.5114 21.2716 6.24648C21.5 6.79779 21.5 7.49671 21.5 8.89453V9.64453C21.5 10.0587 21.1642 10.3945 20.75 10.3945H20.5C19.3954 10.3945 18.5 11.29 18.5 12.3945V12.3945C18.5 13.4991 19.3954 14.3945 20.5 14.3945H20.75C21.1642 14.3945 21.5 14.7303 21.5 15.1445V15.8945C21.5 17.2924 21.5 17.9913 21.2716 18.5426C20.9672 19.2777 20.3831 19.8617 19.6481 20.1662C19.0967 20.3945 18.3978 20.3945 17 20.3945H8C6.60218 20.3945 5.90326 20.3945 5.35195 20.1662C4.61687 19.8617 4.03284 19.2777 3.72836 18.5426C3.5 17.9913 3.5 17.2924 3.5 15.8945V15.1445C3.5 14.7303 3.83579 14.3945 4.25 14.3945H4.5C5.60457 14.3945 6.5 13.4991 6.5 12.3945V12.3945C6.5 11.29 5.60457 10.3945 4.5 10.3945H4.25C3.83579 10.3945 3.5 10.0587 3.5 9.64453V8.89453Z" stroke="#189EFF" stroke-width="1.2"/>
<path d="M12.0568 11.0831C12.2249 10.6481 12.309 10.4306 12.4455 10.4005C12.4814 10.3925 12.5186 10.3925 12.5545 10.4005C12.691 10.4306 12.7751 10.6481 12.9432 11.0831C13.0389 11.3304 13.0867 11.4541 13.1761 11.5382C13.2012 11.5618 13.2284 11.5829 13.2574 11.601C13.3608 11.6657 13.4899 11.6777 13.748 11.7016C14.185 11.7423 14.4035 11.7626 14.4702 11.8918C14.484 11.9186 14.4934 11.9476 14.498 11.9776C14.5201 12.1225 14.3595 12.2741 14.0383 12.5774L13.949 12.6616C13.7989 12.8034 13.7238 12.8743 13.6803 12.9628C13.6543 13.0159 13.6368 13.073 13.6286 13.132C13.615 13.2303 13.637 13.3331 13.6809 13.5388L13.6967 13.6123C13.7755 13.9812 13.815 14.1657 13.7657 14.2563C13.7215 14.3378 13.6401 14.3899 13.5501 14.3944C13.4499 14.3993 13.3088 14.28 13.0265 14.0413C12.8406 13.884 12.7476 13.8054 12.6443 13.7747C12.55 13.7466 12.45 13.7466 12.3557 13.7747C12.2524 13.8054 12.1594 13.884 11.9735 14.0413C11.6912 14.28 11.5501 14.3993 11.4499 14.3944C11.3599 14.3899 11.2785 14.3378 11.2343 14.2563C11.185 14.1657 11.2245 13.9812 11.3033 13.6123L11.3191 13.5388C11.363 13.3331 11.385 13.2303 11.3714 13.132C11.3632 13.073 11.3457 13.0159 11.3197 12.9628C11.2762 12.8743 11.2011 12.8034 11.051 12.6616L10.9617 12.5774C10.6405 12.2741 10.4799 12.1225 10.502 11.9776C10.5066 11.9476 10.516 11.9186 10.5298 11.8918C10.5965 11.7626 10.815 11.7423 11.252 11.7016C11.5101 11.6777 11.6392 11.6657 11.7426 11.601C11.7716 11.5829 11.7988 11.5618 11.8239 11.5382C11.9133 11.4541 11.9611 11.3304 12.0568 11.0831Z" fill="#189EFF" stroke="#189EFF" stroke-width="1.2"/>
</svg>
