<svg width="20" height="16" viewBox="0 0 20 16" fill="none" xmlns="http://www.w3.org/2000/svg">
<path d="M1.73535 14.9867V14.0153C1.73535 11.8693 3.47505 10.1296 5.62107 10.1296H9.50678C11.6528 10.1296 13.3925 11.8693 13.3925 14.0153V14.9867M13.3925 7.21529C15.002 7.21529 16.3068 5.91052 16.3068 4.301C16.3068 2.69149 15.002 1.38672 13.3925 1.38672M19.2211 14.9867V14.0153C19.2211 11.8693 17.4814 10.1296 15.3354 10.1296H14.8496M10.4782 4.301C10.4782 5.91052 9.17344 7.21529 7.56392 7.21529C5.95441 7.21529 4.64964 5.91052 4.64964 4.301C4.64964 2.69149 5.95441 1.38672 7.56392 1.38672C9.17344 1.38672 10.4782 2.69149 10.4782 4.301Z" stroke="#189EFF" stroke-width="1.5" stroke-linecap="round" stroke-linejoin="round"/>
</svg>
