<svg width="17" height="16" viewBox="0 0 17 16" fill="none" xmlns="http://www.w3.org/2000/svg">
<path d="M7.81208 7.89822C8.27637 7.89816 8.73604 7.99048 9.1643 8.16981C9.59257 8.34913 9.98087 8.61186 10.3066 8.94272C10.6323 9.27357 10.889 9.66592 11.0616 10.0969C11.2342 10.5279 11.3194 10.989 11.3121 11.4532C11.3109 11.5301 11.3275 11.6062 11.3605 11.6756C11.3935 11.745 11.4421 11.8059 11.5024 11.8535C11.5628 11.9011 11.6333 11.9341 11.7085 11.95C11.7838 11.9659 11.8616 11.9643 11.9361 11.9452C12.1578 11.8884 12.3896 11.883 12.6137 11.9294C12.8379 11.9758 13.0485 12.0728 13.2294 12.2129C13.4104 12.3531 13.5569 12.5327 13.6579 12.7381C13.7589 12.9436 13.8116 13.1693 13.8121 13.3982C13.8121 13.796 13.654 14.1776 13.3727 14.4589C13.0914 14.7402 12.7099 14.8982 12.3121 14.8982H3.81208C3.54618 14.8967 3.28326 14.8422 3.03867 14.7379C2.79409 14.6336 2.57277 14.4815 2.38765 14.2906C2.20254 14.0997 2.05734 13.8739 1.96056 13.6262C1.86378 13.3785 1.81735 13.1141 1.824 12.8482C1.83065 12.5824 1.89024 12.3206 1.99928 12.0781C2.10832 11.8356 2.26463 11.6172 2.45906 11.4358C2.65349 11.2545 2.88214 11.1137 3.13163 11.0217C3.38112 10.9297 3.64644 10.8884 3.91208 10.9002C4.0273 10.9062 4.14103 10.8721 4.23398 10.8037C4.32694 10.7354 4.39339 10.637 4.42208 10.5252C4.61605 9.77354 5.05428 9.10761 5.66791 8.63209C6.28154 8.15657 7.03577 7.89843 7.81208 7.89822ZM12.2851 10.8982C12.1726 9.88436 11.7189 8.93881 10.9985 8.21659C10.2781 7.49437 9.33374 7.03834 8.32017 6.92326C7.3066 6.80819 6.284 7.0409 5.42004 7.58325C4.55607 8.12559 3.90201 8.94539 3.56508 9.90822C2.79302 9.97142 2.07533 10.3308 1.56225 10.9112C1.04916 11.4915 0.780449 12.2478 0.812364 13.0218C0.84428 13.7958 1.17435 14.5274 1.73347 15.0636C2.2926 15.5997 3.03744 15.8988 3.81208 15.8982H12.3121C12.9751 15.8982 13.611 15.6348 14.0798 15.166C14.5487 14.6971 14.8121 14.0613 14.8121 13.3982C14.8121 12.7352 14.5487 12.0993 14.0798 11.6305C13.611 11.1616 12.9751 10.8982 12.3121 10.8982H12.2851Z" fill="black"/>
<path d="M11.3121 1.39844C11.3121 1.26583 11.2594 1.13865 11.1656 1.04488C11.0719 0.951116 10.9447 0.898438 10.8121 0.898438C10.6795 0.898438 10.5523 0.951116 10.4585 1.04488C10.3647 1.13865 10.3121 1.26583 10.3121 1.39844V2.39844C10.3121 2.53105 10.3647 2.65822 10.4585 2.75199C10.5523 2.84576 10.6795 2.89844 10.8121 2.89844C10.9447 2.89844 11.0719 2.84576 11.1656 2.75199C11.2594 2.65822 11.3121 2.53105 11.3121 2.39844V1.39844ZM15.0551 3.36244C15.1028 3.31631 15.1409 3.26114 15.1671 3.20014C15.1933 3.13914 15.2071 3.07353 15.2077 3.00714C15.2083 2.94075 15.1956 2.87491 15.1705 2.81346C15.1453 2.75201 15.1082 2.69619 15.0613 2.64924C15.0143 2.60229 14.9585 2.56517 14.897 2.54003C14.8356 2.51489 14.7698 2.50224 14.7034 2.50281C14.637 2.50339 14.5714 2.51718 14.5104 2.54339C14.4494 2.56959 14.3942 2.60768 14.3481 2.65544L13.6401 3.36244C13.5462 3.45632 13.4934 3.58366 13.4934 3.71644C13.4934 3.84921 13.5462 3.97655 13.6401 4.07044C13.734 4.16432 13.8613 4.21707 13.9941 4.21707C14.1268 4.21707 14.2542 4.16432 14.3481 4.07044L15.0551 3.36244ZM7.27607 2.65544C7.18177 2.56436 7.05546 2.51396 6.92437 2.5151C6.79327 2.51624 6.66786 2.56882 6.57516 2.66153C6.48245 2.75423 6.42987 2.87964 6.42873 3.01074C6.42759 3.14184 6.47799 3.26814 6.56907 3.36244L7.27607 4.07044C7.32256 4.11693 7.37774 4.1538 7.43848 4.17896C7.49922 4.20412 7.56432 4.21707 7.63007 4.21707C7.69581 4.21707 7.76091 4.20412 7.82165 4.17896C7.88239 4.1538 7.93758 4.11693 7.98407 4.07044C8.03055 4.02395 8.06743 3.96876 8.09259 3.90802C8.11775 3.84728 8.1307 3.78218 8.1307 3.71644C8.1307 3.65069 8.11775 3.58559 8.09259 3.52485C8.06743 3.46411 8.03055 3.40893 7.98407 3.36244L7.27607 2.65544ZM9.01007 6.02944C9.13435 5.77188 9.31243 5.54397 9.53229 5.36108C9.75214 5.17819 10.0087 5.04458 10.2845 4.96925C10.5604 4.89393 10.8493 4.87865 11.1315 4.92444C11.4138 4.97023 11.683 5.07602 11.9209 5.23469C12.1589 5.39336 12.36 5.6012 12.5108 5.84421C12.6616 6.08721 12.7585 6.35973 12.795 6.64337C12.8315 6.92701 12.8067 7.21518 12.7224 7.48844C12.638 7.76171 12.4961 8.0137 12.3061 8.22744C12.5051 8.50844 12.6781 8.80944 12.8221 9.12544C13.161 8.81924 13.4255 8.4397 13.5954 8.01576C13.7654 7.59182 13.8363 7.13467 13.8027 6.67917C13.7692 6.22366 13.6321 5.78183 13.4019 5.38736C13.1717 4.99288 12.8544 4.65618 12.4743 4.40292C12.0943 4.14966 11.6614 3.98652 11.2087 3.92596C10.756 3.86539 10.2954 3.90899 9.8621 4.05343C9.4288 4.19787 9.03421 4.43934 8.7084 4.75943C8.38259 5.07952 8.13416 5.46977 7.98207 5.90044C8.33407 5.91144 8.67807 5.95544 9.01007 6.02944ZM13.4941 10.1034C14.0941 10.3184 14.6191 10.6934 15.0161 11.1754C15.0705 11.1313 15.1151 11.0763 15.1469 11.0139C15.1787 10.9515 15.197 10.8831 15.2007 10.8131C15.2044 10.7432 15.1933 10.6732 15.1682 10.6078C15.1431 10.5424 15.1046 10.483 15.0551 10.4334L14.3481 9.72644C14.2768 9.65473 14.1854 9.60632 14.0861 9.58759C13.9867 9.56886 13.884 9.5807 13.7915 9.62153C13.699 9.66236 13.6211 9.73027 13.568 9.81631C13.5149 9.90234 13.4891 10.0025 13.4941 10.1034ZM15.3121 6.39844C15.1795 6.39844 15.0523 6.45112 14.9585 6.54488C14.8647 6.63865 14.8121 6.76583 14.8121 6.89844C14.8121 7.03105 14.8647 7.15822 14.9585 7.25199C15.0523 7.34576 15.1795 7.39844 15.3121 7.39844H16.3121C16.4447 7.39844 16.5719 7.34576 16.6656 7.25199C16.7594 7.15822 16.8121 7.03105 16.8121 6.89844C16.8121 6.76583 16.7594 6.63865 16.6656 6.54488C16.5719 6.45112 16.4447 6.39844 16.3121 6.39844H15.3121Z" fill="black"/>
</svg>
