<svg width="29" height="29" viewBox="0 0 29 29" fill="none" xmlns="http://www.w3.org/2000/svg">
<circle cx="14.7109" cy="14.1719" r="14" fill="#F1F5F9"/>
<g clip-path="url(#clip0_3945_9205)">
<path d="M14.7109 6.67288C14.2445 6.66172 13.7806 6.74395 13.3465 6.91473C12.9123 7.08551 12.5167 7.34139 12.1829 7.66731C11.8491 7.99323 11.5838 8.38262 11.4027 8.81257C11.2216 9.24252 11.1283 9.70434 11.1283 10.1709C11.1283 10.6374 11.2216 11.0992 11.4027 11.5292C11.5838 11.9591 11.8491 12.3485 12.1829 12.6744C12.5167 13.0004 12.9123 13.2562 13.3465 13.427C13.7806 13.5978 14.2445 13.68 14.7109 13.6689C15.1773 13.68 15.6413 13.5978 16.0754 13.427C16.5096 13.2562 16.9052 13.0004 17.239 12.6744C17.5728 12.3485 17.8381 11.9591 18.0192 11.5292C18.2003 11.0992 18.2936 10.6374 18.2936 10.1709C18.2936 9.70434 18.2003 9.24252 18.0192 8.81257C17.8381 8.38262 17.5728 7.99323 17.239 7.66731C16.9052 7.34139 16.5096 7.08551 16.0754 6.91473C15.6413 6.74395 15.1773 6.66172 14.7109 6.67288ZM12.7109 15.6669C11.7827 15.6669 10.8924 16.0356 10.2361 16.692C9.57969 17.3484 9.21094 18.2386 9.21094 19.1669V21.6639H20.2109V19.1669C20.2109 18.2386 19.8422 17.3484 19.1858 16.692C18.5294 16.0356 17.6392 15.6669 16.7109 15.6669H12.7109Z" fill="#67707B"/>
</g>
<defs>
<clipPath id="clip0_3945_9205">
<rect width="15" height="15" fill="white" transform="translate(7.21094 6.67188)"/>
</clipPath>
</defs>
</svg>
