<svg width="18" height="17" viewBox="0 0 18 17" fill="none" xmlns="http://www.w3.org/2000/svg">
<path d="M1.5 2.64258V2.64258C1.5 1.53801 2.39543 0.642578 3.5 0.642578L14.9286 0.642578C14.9949 0.642578 15.0281 0.642578 15.056 0.645722C15.2878 0.671841 15.4707 0.854786 15.4969 1.0866C15.5 1.1145 15.5 1.14767 15.5 1.21401V1.21401C15.5 1.61204 15.5 1.81105 15.4811 1.97847C15.3244 3.36933 14.2268 4.467 12.8359 4.62371C12.6685 4.64258 12.4695 4.64258 12.0714 4.64258H12M1.5 2.64258V2.64258C1.5 3.74715 2.39543 4.64258 3.5 4.64258L14.5 4.64258C15.4428 4.64258 15.9142 4.64258 16.2071 4.93547C16.5 5.22836 16.5 5.69977 16.5 6.64258V8.64258M1.5 2.64258L1.5 11.6426C1.5 13.5282 1.5 14.471 2.08579 15.0568C2.67157 15.6426 3.61438 15.6426 5.5 15.6426L14.5 15.6426C15.4428 15.6426 15.9142 15.6426 16.2071 15.3497C16.5 15.0568 16.5 14.5854 16.5 13.6426V12.6426M16.5 12.6426H14.5C13.5572 12.6426 13.0858 12.6426 12.7929 12.3497C12.5 12.0568 12.5 11.5854 12.5 10.6426V10.6426C12.5 9.69977 12.5 9.22836 12.7929 8.93547C13.0858 8.64258 13.5572 8.64258 14.5 8.64258H16.5M16.5 12.6426V8.64258" stroke="#189EFF" stroke-width="1.2"/>
</svg>
