<svg width="11" height="10" viewBox="0 0 11 10" fill="none" xmlns="http://www.w3.org/2000/svg">
<path d="M4.31798 0.363047C4.4813 0.363047 4.631 0.44924 4.72173 0.585336L6.84935 3.99225H9.34443C9.72096 3.99225 10.0249 4.2962 10.0249 4.67272C10.0249 5.04925 9.72096 5.3532 9.34443 5.3532H6.84935L4.72173 8.76011C4.65985 8.85722 4.56489 8.92863 4.45442 8.96112C4.34395 8.9936 4.22545 8.98498 4.12085 8.93683C4.01625 8.88868 3.93263 8.80427 3.88547 8.69922C3.83831 8.59417 3.8308 8.4756 3.86433 8.36544L4.80792 5.3532H2.31285L1.70042 6.16977C1.67981 6.19849 1.65252 6.22175 1.6209 6.23756C1.58928 6.25337 1.5543 6.26124 1.51896 6.2605H1.2513C1.1016 6.2605 0.992723 6.11533 1.03355 5.97016L1.40555 4.67272L1.03355 3.37528C0.992723 3.23012 1.1016 3.08495 1.2513 3.08495H1.51896C1.5543 3.08421 1.58928 3.09208 1.6209 3.10789C1.65252 3.1237 1.67981 3.14696 1.70042 3.17568L2.31285 3.99225L4.80792 3.99225L3.86433 0.980012C3.76906 0.671529 4.00043 0.363047 4.31798 0.363047Z" fill="white" stroke="white" stroke-width="0.5"/>
</svg>
