<svg width="33" height="10" viewBox="0 0 33 10" fill="none" xmlns="http://www.w3.org/2000/svg">
<path d="M0.462891 9.89962C0.495331 9.30181 0.686522 8.72345 1.01686 8.22416C1.3472 7.72486 1.80476 7.32268 2.34227 7.05903C2.87977 6.79538 3.47781 6.67978 4.07485 6.72419C4.67188 6.7686 5.2463 6.9714 5.73888 7.31167C5.99855 6.51046 6.46871 5.79372 7.10016 5.23638C7.7316 4.67904 8.50113 4.30157 9.32839 4.14342C10.1556 3.98527 11.0101 4.05225 11.8026 4.33736C12.5952 4.62247 13.2966 5.11523 13.8335 5.76414C14.1163 4.14327 14.9962 2.68723 16.2998 1.68321C17.6033 0.679182 19.2357 0.200077 20.8751 0.340381C22.5145 0.480684 24.0417 1.23021 25.1557 2.44113C26.2696 3.65205 26.8895 5.23645 26.8928 6.88181C26.8933 7.128 26.8796 7.374 26.8515 7.61858C27.3202 7.18145 27.9038 6.88716 28.534 6.77029C29.1641 6.65342 29.8146 6.71884 30.4088 6.95883C31.0031 7.19883 31.5165 7.60342 31.8887 8.12512C32.261 8.64682 32.4768 9.26395 32.5105 9.90397L0.462891 9.89962Z" fill="url(#paint0_linear_945_4926)"/>
<defs>
<linearGradient id="paint0_linear_945_4926" x1="856.998" y1="10.2299" x2="856.998" y2="0.0863046" gradientUnits="userSpaceOnUse">
<stop stop-color="white" stop-opacity="0"/>
<stop offset="0.099" stop-color="white" stop-opacity="0.067"/>
<stop offset="0.294" stop-color="white" stop-opacity="0.239"/>
<stop offset="0.568" stop-color="white" stop-opacity="0.522"/>
<stop offset="0.907" stop-color="white" stop-opacity="0.902"/>
<stop offset="0.989" stop-color="white"/>
</linearGradient>
</defs>
</svg>
