<svg width="33" height="10" viewBox="0 0 33 10" fill="none" xmlns="http://www.w3.org/2000/svg">
<path d="M0.510498 9.6418C0.542939 9.044 0.734129 8.46564 1.06447 7.96635C1.3948 7.46705 1.85237 7.06487 2.38987 6.80122C2.92738 6.53757 3.52542 6.42197 4.12245 6.46638C4.71949 6.51079 5.29391 6.71358 5.78649 7.05386C6.04615 6.25265 6.51631 5.53591 7.14776 4.97857C7.77921 4.42122 8.54874 4.04376 9.37599 3.88561C10.2032 3.72745 11.0577 3.79444 11.8503 4.07955C12.6428 4.36466 13.3442 4.85741 13.8811 5.50633C14.1639 3.88546 15.0438 2.42942 16.3474 1.42539C17.6509 0.42137 19.2833 -0.0577351 20.9227 0.0825681C22.5621 0.222871 24.0893 0.972395 25.2033 2.18332C26.3173 3.39424 26.9371 4.97864 26.9404 6.624C26.9409 6.87018 26.9272 7.11619 26.8991 7.36077C27.3678 6.92363 27.9514 6.62934 28.5816 6.51248C29.2117 6.39561 29.8622 6.46102 30.4564 6.70102C31.0507 6.94101 31.5641 7.34561 31.9363 7.86731C32.3086 8.38901 32.5244 9.00613 32.5581 9.64615L0.510498 9.6418Z" fill="url(#paint0_linear_945_4930)"/>
<defs>
<linearGradient id="paint0_linear_945_4930" x1="857.046" y1="9.97213" x2="857.046" y2="-0.171508" gradientUnits="userSpaceOnUse">
<stop stop-color="white" stop-opacity="0"/>
<stop offset="0.099" stop-color="white" stop-opacity="0.067"/>
<stop offset="0.294" stop-color="white" stop-opacity="0.239"/>
<stop offset="0.568" stop-color="white" stop-opacity="0.522"/>
<stop offset="0.907" stop-color="white" stop-opacity="0.902"/>
<stop offset="0.989" stop-color="white"/>
</linearGradient>
</defs>
</svg>
