<svg width="34" height="10" viewBox="0 0 34 10" fill="none" xmlns="http://www.w3.org/2000/svg">
<path d="M0.967285 9.57897C0.999845 8.98135 1.19111 8.4032 1.52139 7.90407C1.85166 7.40493 2.30893 7.00286 2.84626 6.73924C3.38359 6.47562 3.98144 6.35999 4.57831 6.40425C5.17519 6.44851 5.74951 6.65105 6.24208 6.99105C6.50145 6.1896 6.97152 5.47259 7.60296 4.91502C8.23439 4.35746 9.00406 3.97981 9.83145 3.82163C10.6588 3.66345 11.5135 3.73055 12.3061 4.01587C13.0987 4.3012 13.7999 4.79427 14.3367 5.44352C14.6334 3.76277 15.5717 2.26309 16.9533 1.26109C18.335 0.259085 20.052 -0.166825 21.7418 0.0732604C23.4316 0.313346 24.962 1.20064 26.0099 2.54784C27.0578 3.89503 27.5411 5.59669 27.358 7.29359C27.8265 6.856 28.4102 6.56132 29.0405 6.4442C29.6708 6.32708 30.3214 6.39239 30.9159 6.63246C31.5103 6.87253 32.0238 7.27735 32.3961 7.79933C32.7683 8.32132 32.9837 8.93874 33.017 9.57897H0.967285Z" fill="url(#paint0_linear_945_4890)"/>
<defs>
<linearGradient id="paint0_linear_945_4890" x1="1340.52" y1="9.90439" x2="1340.52" y2="-0.221896" gradientUnits="userSpaceOnUse">
<stop stop-color="white" stop-opacity="0"/>
<stop offset="0.099" stop-color="white" stop-opacity="0.067"/>
<stop offset="0.294" stop-color="white" stop-opacity="0.239"/>
<stop offset="0.568" stop-color="white" stop-opacity="0.522"/>
<stop offset="0.907" stop-color="white" stop-opacity="0.902"/>
<stop offset="0.989" stop-color="white"/>
</linearGradient>
</defs>
</svg>
