<svg width="41" height="13" viewBox="0 0 41 13" fill="none" xmlns="http://www.w3.org/2000/svg">
<path d="M0.657471 12.4316C0.69771 11.6841 0.936549 10.9608 1.34946 10.3363C1.76237 9.7118 2.33441 9.20874 3.00652 8.87897C3.67862 8.54919 4.42653 8.40463 5.17311 8.46019C5.9197 8.51576 6.63796 8.76943 7.25385 9.19506C7.57883 8.19358 8.16679 7.29775 8.95631 6.60115C9.74583 5.90456 10.7079 5.43276 11.742 5.23506C12.7762 5.03736 13.8445 5.121 14.8353 5.47726C15.8261 5.83352 16.7031 6.44933 17.3745 7.26033C17.7243 5.22997 18.8233 3.4048 20.4542 2.14586C22.085 0.886922 24.129 0.28588 26.1818 0.461641C28.2346 0.637402 30.1465 1.57716 31.5397 3.09503C32.9328 4.61289 33.7055 6.59831 33.705 8.65858C33.7047 8.9654 33.6879 9.27196 33.6546 9.57696C34.2403 9.03206 34.9692 8.66535 35.7559 8.5198C36.5425 8.37424 37.3542 8.45587 38.0961 8.75511C38.8381 9.05435 39.4793 9.55882 39.9448 10.2094C40.4103 10.86 40.6809 11.6298 40.7247 12.4286L0.657471 12.4316Z" fill="url(#paint0_linear_945_4918)"/>
<defs>
<linearGradient id="paint0_linear_945_4918" x1="569.011" y1="12.8396" x2="569.011" y2="0.14364" gradientUnits="userSpaceOnUse">
<stop stop-color="white" stop-opacity="0"/>
<stop offset="0.099" stop-color="white" stop-opacity="0.067"/>
<stop offset="0.294" stop-color="white" stop-opacity="0.239"/>
<stop offset="0.568" stop-color="white" stop-opacity="0.522"/>
<stop offset="0.907" stop-color="white" stop-opacity="0.902"/>
<stop offset="0.989" stop-color="white"/>
</linearGradient>
</defs>
</svg>
