<svg width="34" height="10" viewBox="0 0 34 10" fill="none" xmlns="http://www.w3.org/2000/svg">
<path d="M0.978027 9.95919C1.01047 9.36138 1.20166 8.78302 1.532 8.28373C1.86233 7.78443 2.3199 7.38225 2.8574 7.1186C3.39491 6.85495 3.99295 6.73935 4.58998 6.78376C5.18702 6.82817 5.76144 7.03097 6.25402 7.37124C6.51368 6.57003 6.98384 5.85329 7.61529 5.29595C8.24674 4.73861 9.01627 4.36114 9.84352 4.20299C10.6708 4.04484 11.5253 4.11182 12.3178 4.39693C13.1103 4.68204 13.8117 5.1748 14.3486 5.82371C14.6314 4.20284 15.5114 2.7468 16.8149 1.74278C18.1184 0.738752 19.7509 0.259648 21.3903 0.399951C23.0296 0.540254 24.5569 1.28978 25.6708 2.5007C26.7848 3.71162 27.4046 5.29602 27.4079 6.94138C27.4085 7.18757 27.3947 7.43357 27.3666 7.67815C27.8353 7.24102 28.4189 6.94673 29.0491 6.82986C29.6793 6.71299 30.3297 6.77841 30.924 7.0184C31.5182 7.2584 32.0316 7.66299 32.4039 8.18469C32.7761 8.70639 32.9919 9.32352 33.0256 9.96354L0.978027 9.95919Z" fill="url(#paint0_linear_945_4886)"/>
<defs>
<linearGradient id="paint0_linear_945_4886" x1="857.513" y1="10.2895" x2="857.513" y2="0.145875" gradientUnits="userSpaceOnUse">
<stop stop-color="white" stop-opacity="0"/>
<stop offset="0.099" stop-color="white" stop-opacity="0.067"/>
<stop offset="0.294" stop-color="white" stop-opacity="0.239"/>
<stop offset="0.568" stop-color="white" stop-opacity="0.522"/>
<stop offset="0.907" stop-color="white" stop-opacity="0.902"/>
<stop offset="0.989" stop-color="white"/>
</linearGradient>
</defs>
</svg>
