<svg width="33" height="10" viewBox="0 0 33 10" fill="none" xmlns="http://www.w3.org/2000/svg">
<path d="M0.401855 9.71993C0.434296 9.12213 0.625487 8.54377 0.955824 8.04447C1.28616 7.54517 1.74373 7.14299 2.28123 6.87934C2.81873 6.61569 3.41678 6.50009 4.01381 6.5445C4.61084 6.58891 5.18527 6.79171 5.67784 7.13198C5.93751 6.33078 6.40767 5.61403 7.03912 5.05669C7.67057 4.49935 8.4401 4.12189 9.26735 3.96373C10.0946 3.80558 10.9491 3.87256 11.7416 4.15767C12.5341 4.44278 13.2355 4.93554 13.7724 5.58446C14.0553 3.96358 14.9352 2.50754 16.2387 1.50352C17.5422 0.499495 19.1747 0.0203899 20.8141 0.160693C22.4535 0.300996 23.9807 1.05052 25.0947 2.26144C26.2086 3.47236 26.8284 5.05676 26.8318 6.70213C26.8323 6.94831 26.8185 7.19432 26.7904 7.43889C27.2591 7.00176 27.8428 6.70747 28.4729 6.5906C29.1031 6.47373 29.7535 6.53915 30.3478 6.77914C30.9421 7.01914 31.4554 7.42373 31.8277 7.94543C32.2 8.46713 32.4157 9.08426 32.4494 9.72428L0.401855 9.71993Z" fill="url(#paint0_linear_945_4882)"/>
<defs>
<linearGradient id="paint0_linear_945_4882" x1="856.937" y1="10.0503" x2="856.937" y2="-0.0933829" gradientUnits="userSpaceOnUse">
<stop stop-color="white" stop-opacity="0"/>
<stop offset="0.099" stop-color="white" stop-opacity="0.067"/>
<stop offset="0.294" stop-color="white" stop-opacity="0.239"/>
<stop offset="0.568" stop-color="white" stop-opacity="0.522"/>
<stop offset="0.907" stop-color="white" stop-opacity="0.902"/>
<stop offset="0.989" stop-color="white"/>
</linearGradient>
</defs>
</svg>
