<svg width="88" height="32" viewBox="0 0 88 32" fill="none" xmlns="http://www.w3.org/2000/svg">
<path d="M87.6789 31.8521C87.573 29.9291 86.9569 28.069 85.8938 26.4631C84.8307 24.8572 83.3591 23.5634 81.6303 22.7148C79.9014 21.8662 77.9777 21.4934 76.057 21.6348C74.1363 21.7762 72.2878 22.4266 70.7018 23.5192C69.8671 20.9396 68.3545 18.6318 66.3223 16.8373C64.29 15.0427 61.8126 13.8273 59.1496 13.3183C56.4866 12.8092 53.7359 13.0253 51.185 13.9437C48.6341 14.8622 46.3768 16.4494 44.6496 18.5392C43.7483 13.3125 40.9185 8.61427 36.7199 5.3736C32.5212 2.13294 27.2593 0.585799 21.9747 1.03813C16.6902 1.49047 11.7678 3.90933 8.1809 7.81641C4.59403 11.7235 2.60391 16.8343 2.60401 22.1382C2.60532 22.9304 2.64959 23.722 2.73673 24.5095C1.22923 23.1048 -0.647482 22.1592 -2.67344 21.7835C-4.69939 21.4079 -6.79057 21.6177 -8.70147 22.3885C-10.6124 23.1593 -12.2637 24.459 -13.462 26.1352C-14.6603 27.8114 -15.3558 29.7946 -15.4668 31.8521H87.6789Z" fill="url(#paint0_linear_945_4902)"/>
<defs>
<linearGradient id="paint0_linear_945_4902" x1="36.106" y1="32.9024" x2="36.106" y2="0.219548" gradientUnits="userSpaceOnUse">
<stop stop-color="white" stop-opacity="0"/>
<stop offset="0.099" stop-color="white" stop-opacity="0.067"/>
<stop offset="0.294" stop-color="white" stop-opacity="0.239"/>
<stop offset="0.568" stop-color="white" stop-opacity="0.522"/>
<stop offset="0.907" stop-color="white" stop-opacity="0.902"/>
<stop offset="0.989" stop-color="white"/>
</linearGradient>
</defs>
</svg>
