<svg width="48" height="15" viewBox="0 0 48 15" fill="none" xmlns="http://www.w3.org/2000/svg">
<path d="M0.96167 14.2324C1.00862 13.3603 1.28726 12.5164 1.76899 11.7878C2.25072 11.0593 2.9181 10.4724 3.70223 10.0876C4.48635 9.7029 5.3589 9.53424 6.22992 9.59907C7.10093 9.66389 7.93891 9.95984 8.65744 10.4564C9.03659 9.28802 9.72254 8.24288 10.6436 7.43019C11.5648 6.61749 12.6871 6.06706 13.8936 5.83641C15.1002 5.60576 16.3465 5.70335 17.5025 6.11898C18.6584 6.53462 19.6815 7.25306 20.4649 8.19922C20.873 5.83047 22.1551 3.70111 24.0578 2.23235C25.9605 0.763584 28.3452 0.062368 30.74 0.267422C33.1349 0.472477 35.3656 1.56887 36.9909 3.3397C38.6162 5.11054 39.5177 7.42687 39.5172 9.83052C39.5168 10.1885 39.4972 10.5461 39.4583 10.902C40.1416 10.2662 40.9921 9.83842 41.9098 9.66861C42.8275 9.49879 43.7745 9.59402 44.6401 9.94314C45.5057 10.2922 46.2538 10.8808 46.7969 11.6398C47.34 12.3989 47.6557 13.2969 47.7068 14.2289L0.96167 14.2324Z" fill="url(#paint0_linear_945_4922)"/>
<defs>
<linearGradient id="paint0_linear_945_4922" x1="664.041" y1="14.7084" x2="664.041" y2="-0.103579" gradientUnits="userSpaceOnUse">
<stop stop-color="white" stop-opacity="0"/>
<stop offset="0.099" stop-color="white" stop-opacity="0.067"/>
<stop offset="0.294" stop-color="white" stop-opacity="0.239"/>
<stop offset="0.568" stop-color="white" stop-opacity="0.522"/>
<stop offset="0.907" stop-color="white" stop-opacity="0.902"/>
<stop offset="0.989" stop-color="white"/>
</linearGradient>
</defs>
</svg>
