<svg width="58" height="18" viewBox="0 0 58 18" fill="none" xmlns="http://www.w3.org/2000/svg">
<path d="M0.512695 17.2326C0.569914 16.1696 0.909537 15.1411 1.49669 14.2531C2.08384 13.3651 2.89727 12.6498 3.85298 12.1808C4.8087 11.7119 5.87219 11.5063 6.93382 11.5853C7.99544 11.6643 9.0168 12.0251 9.89257 12.6303C10.3547 11.2062 11.1908 9.93237 12.3134 8.94183C13.4361 7.95129 14.8041 7.28041 16.2746 6.99928C17.7452 6.71816 19.2643 6.8371 20.6732 7.34369C22.0821 7.85028 23.3291 8.72594 24.2839 9.87916C24.7813 6.99204 26.344 4.3967 28.6631 2.60652C30.9822 0.816344 33.8887 -0.0383222 36.8076 0.211605C39.7266 0.461532 42.4454 1.79785 44.4264 3.95621C46.4073 6.11457 47.5062 8.93779 47.5055 11.8674C47.5051 12.3037 47.4812 12.7396 47.4337 13.1733C48.2666 12.3985 49.3031 11.8771 50.4217 11.6701C51.5403 11.4631 52.6945 11.5792 53.7495 12.0047C54.8045 12.4302 55.7163 13.1476 56.3783 14.0727C57.0402 14.9978 57.425 16.0924 57.4873 17.2283L0.512695 17.2326Z" fill="url(#paint0_linear_945_4878)"/>
<defs>
<linearGradient id="paint0_linear_945_4878" x1="808.697" y1="17.8128" x2="808.697" y2="-0.240584" gradientUnits="userSpaceOnUse">
<stop stop-color="white" stop-opacity="0"/>
<stop offset="0.099" stop-color="white" stop-opacity="0.067"/>
<stop offset="0.294" stop-color="white" stop-opacity="0.239"/>
<stop offset="0.568" stop-color="white" stop-opacity="0.522"/>
<stop offset="0.907" stop-color="white" stop-opacity="0.902"/>
<stop offset="0.989" stop-color="white"/>
</linearGradient>
</defs>
</svg>
