<svg width="58" height="18" viewBox="0 0 58 18" fill="none" xmlns="http://www.w3.org/2000/svg">
<path d="M0.696289 17.2014C0.753508 16.1384 1.09313 15.1098 1.68028 14.2218C2.26743 13.3338 3.08086 12.6185 4.03658 12.1496C4.99229 11.6806 6.05579 11.4751 7.11741 11.5541C8.17904 11.6331 9.20039 11.9938 10.0762 12.5991C10.5383 11.175 11.3743 9.90112 12.497 8.91058C13.6197 7.92004 14.9877 7.24916 16.4582 6.96803C17.9288 6.68691 19.4479 6.80585 20.8568 7.31244C22.2656 7.81903 23.5127 8.69469 24.4675 9.84791C24.9649 6.96079 26.5276 4.36545 28.8467 2.57527C31.1657 0.785094 34.0722 -0.0695722 36.9912 0.180355C39.9102 0.430282 42.629 1.7666 44.6099 3.92496C46.5909 6.08332 47.6897 8.90654 47.6891 11.8362C47.6886 12.2725 47.6648 12.7084 47.6173 13.1421C48.4502 12.3673 49.4867 11.8458 50.6053 11.6388C51.7239 11.4319 52.8781 11.5479 53.9331 11.9734C54.9881 12.399 55.8999 13.1163 56.5619 14.0414C57.2238 14.9666 57.6086 16.0612 57.6709 17.197L0.696289 17.2014Z" fill="url(#paint0_linear_945_4874)"/>
<defs>
<linearGradient id="paint0_linear_945_4874" x1="808.881" y1="17.7815" x2="808.881" y2="-0.271834" gradientUnits="userSpaceOnUse">
<stop stop-color="white" stop-opacity="0"/>
<stop offset="0.099" stop-color="white" stop-opacity="0.067"/>
<stop offset="0.294" stop-color="white" stop-opacity="0.239"/>
<stop offset="0.568" stop-color="white" stop-opacity="0.522"/>
<stop offset="0.907" stop-color="white" stop-opacity="0.902"/>
<stop offset="0.989" stop-color="white"/>
</linearGradient>
</defs>
</svg>
