<svg width="32" height="32" viewBox="0 0 32 32" fill="none" xmlns="http://www.w3.org/2000/svg">
<path id="Vector" d="M30 32C26.6564 32 23.2141 31.1545 19.6731 29.4634C16.1321 27.7724 12.8154 25.3808 9.72305 22.2885C6.64872 19.1962 4.25962 15.8731 2.55575 12.3193C0.851917 8.76538 0 5.32563 0 2V0H8.40385L10.1731 7.87305L4.7077 13.0154C5.6923 14.6692 6.6955 16.1827 7.7173 17.5557C8.7391 18.9289 9.78333 20.1487 10.85 21.2154C12.05 22.441 13.3654 23.5788 14.7962 24.6289C16.2269 25.6789 17.8538 26.7013 19.6769 27.6961L24.95 22.1846L32 23.6346V32H30ZM3.95 11.6L8.5 7.3846L7.19615 1.53845H1.53845C1.48718 2.95898 1.66603 4.50385 2.075 6.17305C2.48397 7.84228 3.10897 9.65127 3.95 11.6ZM21.1308 28.3654C22.3692 29.0244 23.8205 29.541 25.4846 29.9154C27.1487 30.2898 28.8077 30.4846 30.4616 30.5V24.8423L25.4654 23.8307L21.1308 28.3654Z" fill="#123D6C"/>
</svg>
