<svg width="176" height="63" viewBox="0 0 176 63" fill="none" xmlns="http://www.w3.org/2000/svg">
<path d="M7.77077 52.4609L8.94184 50.2856H9.62202L8.07236 53.0128V54.8993H7.43068V53.0192L5.90027 50.2856H6.61895L7.76435 52.4609H7.77077Z" fill="white"/>
<path d="M11.5938 51.4761C11.8922 51.4761 12.1393 51.5146 12.3318 51.5948C12.5275 51.675 12.6815 51.7873 12.7938 51.9285C12.9093 52.0696 12.9895 52.2397 13.0344 52.4354C13.0793 52.6311 13.1018 52.8396 13.1018 53.0707V53.3754C13.1018 53.6097 13.0761 53.8214 13.028 54.0171C12.9799 54.2128 12.8964 54.3797 12.7777 54.5241C12.659 54.6684 12.505 54.7775 12.3125 54.8577C12.1168 54.9379 11.8794 54.9764 11.5938 54.9764C11.3083 54.9764 11.0484 54.9379 10.8559 54.8577C10.6602 54.7775 10.5062 54.6652 10.3939 54.5241C10.2784 54.3829 10.1982 54.2128 10.1533 54.0171C10.1083 53.8214 10.0859 53.6097 10.0859 53.3754V53.0707C10.0859 52.8429 10.1115 52.6311 10.1597 52.4354C10.2078 52.2397 10.2912 52.0728 10.4099 51.9285C10.5286 51.7841 10.6826 51.675 10.8751 51.5948C11.0709 51.5146 11.3083 51.4761 11.5938 51.4761ZM11.6002 54.4695C11.9243 54.4695 12.1489 54.3861 12.274 54.2193C12.3991 54.0524 12.4633 53.7765 12.4633 53.3947V53.0578C12.4633 52.8621 12.4505 52.6985 12.4216 52.5637C12.3927 52.429 12.3446 52.3167 12.2804 52.23C12.213 52.1434 12.1264 52.0793 12.0141 52.0375C11.9018 51.9958 11.7671 51.9766 11.6035 51.9766C11.4398 51.9766 11.3019 51.9958 11.1896 52.0375C11.0773 52.0793 10.9874 52.1434 10.9201 52.23C10.8527 52.3167 10.8046 52.429 10.7757 52.5637C10.7468 52.6985 10.7308 52.8653 10.7308 53.0578V53.3947C10.7308 53.5904 10.7468 53.754 10.7757 53.892C10.8046 54.03 10.8559 54.1423 10.9201 54.2257C10.9874 54.3091 11.0773 54.3701 11.1896 54.4118C11.3019 54.4535 11.4398 54.4695 11.6035 54.4695H11.6002Z" fill="white"/>
<path d="M17.2802 51.553V54.8962H16.7348L16.6835 54.4887C16.5808 54.6395 16.4396 54.7582 16.2632 54.8448C16.0867 54.9315 15.8782 54.9732 15.6343 54.9732C15.2686 54.9732 14.9766 54.8737 14.7648 54.678C14.5531 54.4823 14.4472 54.1871 14.4472 53.7925V51.5498H15.0696V53.5839C15.0696 53.8951 15.1242 54.1165 15.2333 54.2513C15.3423 54.386 15.5349 54.4534 15.8076 54.4534C16.0803 54.4534 16.2985 54.3796 16.4396 54.232C16.5808 54.0844 16.6514 53.8438 16.6514 53.5069V51.5498H17.2802V51.553Z" fill="white"/>
<path d="M20.6688 52.0955C20.6111 52.0827 20.5501 52.0698 20.4763 52.0602C20.4058 52.0506 20.3352 52.0442 20.2646 52.0442C20.1395 52.0442 20.024 52.0602 19.9181 52.0923C19.8122 52.1244 19.7192 52.1789 19.6422 52.2559C19.5652 52.3329 19.5042 52.4388 19.4625 52.5736C19.4208 52.7083 19.3983 52.8751 19.3983 53.0709V54.89H18.7695V51.5469H19.3149L19.3662 51.9928C19.4753 51.8292 19.6101 51.7073 19.7705 51.6239C19.9309 51.5405 20.1298 51.502 20.364 51.502C20.5277 51.502 20.6688 51.5244 20.7843 51.5661L20.6688 52.0891V52.0955Z" fill="white"/>
<path d="M26.9857 53.3467C26.9857 53.6419 26.9472 53.8889 26.8734 54.0943C26.7964 54.2996 26.6905 54.4665 26.5494 54.5948C26.4082 54.7231 26.2414 54.8194 26.0489 54.8803C25.8531 54.9413 25.6382 54.9702 25.4008 54.9702C25.1633 54.9702 24.9163 54.9413 24.6853 54.8835C24.4543 54.8258 24.2425 54.7424 24.0468 54.6333V50.0806H24.6757V51.9126C24.788 51.7618 24.9291 51.6495 25.1024 51.5789C25.2756 51.5083 25.4713 51.473 25.6927 51.473C25.8949 51.473 26.0777 51.5019 26.2414 51.5629C26.405 51.6238 26.5397 51.7201 26.6488 51.8516C26.7579 51.9832 26.8445 52.15 26.9023 52.3521C26.96 52.5542 26.9889 52.7981 26.9889 53.0836V53.3435L26.9857 53.3467ZM26.344 53.1318C26.344 52.9457 26.3312 52.782 26.3055 52.6409C26.2799 52.4997 26.2349 52.3778 26.1772 52.2815C26.1194 52.1853 26.0328 52.1115 25.9237 52.0602C25.8146 52.0088 25.6831 51.9864 25.5227 51.9864C25.2211 51.9864 25.0029 52.0698 24.8714 52.2398C24.7398 52.4099 24.6725 52.6537 24.6725 52.9778V54.3125C24.7687 54.3638 24.8778 54.4023 24.9997 54.428C25.1216 54.4536 25.2532 54.4665 25.3911 54.4665C25.7376 54.4665 25.9815 54.3766 26.1259 54.2002C26.2702 54.0237 26.344 53.7349 26.344 53.3371V53.1285V53.1318Z" fill="white"/>
<path d="M28.8887 53.4236C28.8919 53.6194 28.9144 53.7798 28.9497 53.9113C28.9849 54.0429 29.0491 54.1519 29.1357 54.2354C29.2224 54.3188 29.3379 54.3797 29.4855 54.4182C29.633 54.4568 29.8191 54.4728 30.0501 54.4728C30.233 54.4728 30.3966 54.4632 30.5442 54.4407C30.6918 54.4182 30.8169 54.399 30.9164 54.3765L30.833 54.8418C30.7239 54.8803 30.5795 54.9123 30.3998 54.9348C30.2202 54.9573 30.0405 54.9701 29.8673 54.9701C29.5657 54.9701 29.3122 54.9348 29.1069 54.8642C28.9015 54.7936 28.7379 54.691 28.616 54.553C28.4941 54.4182 28.4042 54.2482 28.3497 54.0461C28.2951 53.8439 28.2695 53.6161 28.2695 53.3563V53.09C28.2695 52.8493 28.2983 52.628 28.3529 52.429C28.4074 52.2301 28.4973 52.0601 28.616 51.9157C28.7347 51.7745 28.8887 51.6622 29.0748 51.5852C29.2609 51.5082 29.4855 51.4697 29.7453 51.4697C30.0052 51.4697 30.2073 51.505 30.3774 51.5788C30.5474 51.6526 30.6854 51.7521 30.7913 51.874C30.8972 51.9959 30.9742 52.1403 31.0223 52.3039C31.0704 52.4675 31.0929 52.6408 31.0929 52.8237V53.0579C31.0929 53.2087 31.0704 53.3081 31.0255 53.3531C30.9806 53.398 30.8875 53.4204 30.7496 53.4204H28.8919L28.8887 53.4236ZM29.7165 51.9542C29.4309 51.9542 29.2224 52.0344 29.0876 52.1916C28.9529 52.3488 28.8855 52.6119 28.8791 52.9777H30.4929V52.8108C30.4929 52.5349 30.4351 52.3232 30.3196 52.1756C30.2041 52.028 30.002 51.9542 29.7165 51.9542Z" fill="white"/>
<path d="M33.9222 52.9518C34.089 52.9743 34.2334 53.0128 34.3457 53.0673C34.4612 53.1218 34.551 53.1924 34.6216 53.2759C34.6922 53.3593 34.7403 53.4523 34.7692 53.555C34.798 53.6577 34.8141 53.7699 34.8141 53.8854V53.9368C34.8141 54.1325 34.7756 54.2929 34.7018 54.4245C34.6248 54.556 34.5221 54.6619 34.3938 54.7389C34.2655 54.8159 34.1147 54.8736 33.9446 54.9057C33.7746 54.941 33.5949 54.9571 33.4024 54.9571C33.2099 54.9571 33.0142 54.941 32.8185 54.9121C32.6228 54.8833 32.4367 54.8383 32.2538 54.7838L32.3629 54.3122C32.549 54.3635 32.7222 54.402 32.8826 54.4245C33.0431 54.4469 33.2131 54.4598 33.3928 54.4598C33.6655 54.4598 33.8644 54.4245 33.9959 54.3539C34.1243 54.2833 34.1917 54.1485 34.1917 53.956C34.1917 53.7956 34.1532 53.6865 34.0794 53.6224C34.0024 53.5614 33.8869 53.5165 33.7264 53.4972L33.2484 53.4331C32.9115 53.3914 32.6677 53.2919 32.5137 53.1379C32.3597 52.9839 32.2827 52.7785 32.2827 52.5187V52.4673C32.2827 52.2973 32.318 52.1529 32.3853 52.031C32.4527 51.9091 32.5522 51.8064 32.6773 51.7262C32.8024 51.646 32.9532 51.5882 33.1265 51.5465C33.3029 51.508 33.4954 51.4888 33.7072 51.4888C33.9189 51.4888 34.1243 51.5048 34.3007 51.5369C34.474 51.569 34.6184 51.6043 34.7307 51.6428L34.6152 52.1144C34.4676 52.0663 34.3232 52.0342 34.1852 52.0117C34.0473 51.9893 33.8837 51.9797 33.704 51.9797C33.4152 51.9797 33.2067 52.0182 33.0751 52.092C32.9436 52.1657 32.8794 52.2877 32.8794 52.4513C32.8794 52.5925 32.9147 52.6951 32.9885 52.7561C33.0623 52.817 33.1971 52.8588 33.3896 52.8844L33.9222 52.9486V52.9518Z" fill="white"/>
<path d="M36.9488 52.0441V53.7734C36.9488 54.0237 36.9969 54.2033 37.0899 54.3092C37.1862 54.4151 37.3498 54.4664 37.5808 54.4664C37.6803 54.4664 37.7669 54.46 37.8407 54.4504C37.9145 54.4408 37.9754 54.4311 38.03 54.4215L37.953 54.8739C37.8824 54.8996 37.799 54.9188 37.6963 54.9349C37.5936 54.9509 37.4942 54.9573 37.3947 54.9573C37.2151 54.9573 37.0546 54.9381 36.9231 54.8964C36.7883 54.8547 36.6793 54.7873 36.5894 54.6942C36.4996 54.6012 36.4354 54.4793 36.3905 54.3253C36.3488 54.1713 36.3263 53.982 36.3263 53.7574V52.0409H35.6718L35.7488 51.55H36.3263V50.7158L36.9488 50.626V51.5532H38.0172L37.9337 52.0441H36.9488Z" fill="white"/>
<path d="M43.2979 51.5529L43.2209 52.0374H42.2744V54.8929H41.6519V52.0374H41.0038L41.0808 51.5529H41.6519C41.6519 51.0428 41.7642 50.6642 41.9856 50.414C42.207 50.1637 42.5343 50.0386 42.9674 50.0386C43.0893 50.0386 43.2016 50.0482 43.3043 50.0674C43.4069 50.0867 43.4968 50.106 43.5706 50.1284L43.4551 50.5936C43.3171 50.5583 43.1759 50.5423 43.0348 50.5423C42.884 50.5423 42.7588 50.5615 42.6626 50.6C42.5663 50.6385 42.4893 50.6995 42.4316 50.7797C42.377 50.8631 42.3353 50.9658 42.3129 51.0941C42.2904 51.2225 42.2776 51.3733 42.2776 51.5497H43.3011L43.2979 51.5529Z" fill="white"/>
<path d="M44.0429 53.8665C44.0429 53.6676 44.0718 53.504 44.1327 53.3725C44.1937 53.2409 44.2803 53.135 44.3926 53.0516C44.5049 52.9682 44.6397 52.9104 44.7937 52.8751C44.9477 52.8399 45.1209 52.8238 45.3134 52.8238C45.5059 52.8238 45.6856 52.8431 45.8396 52.8848C45.9904 52.9265 46.1155 52.9971 46.215 53.1029V52.8431C46.215 52.6794 46.1925 52.5415 46.1508 52.4292C46.1091 52.3169 46.0449 52.2271 45.9615 52.1597C45.8781 52.0923 45.7787 52.0442 45.6599 52.0153C45.5412 51.9864 45.4065 51.9704 45.2557 51.9704C45.1049 51.9704 44.9477 51.9832 44.7873 52.0057C44.6268 52.0281 44.476 52.0602 44.3381 52.0923L44.4215 51.6078C44.5434 51.5725 44.6846 51.5437 44.8514 51.518C45.0183 51.4923 45.1947 51.4795 45.3808 51.4795C45.8524 51.4795 46.2086 51.5854 46.4524 51.7971C46.6963 52.0089 46.8182 52.3233 46.8182 52.7436V54.8997H46.2792L46.2278 54.5435C46.1187 54.6975 45.9776 54.8066 45.8043 54.8708C45.6279 54.9349 45.4354 54.9638 45.2172 54.9638C44.8322 54.9638 44.5402 54.8804 44.3413 54.7168C44.1424 54.5531 44.0429 54.2965 44.0429 53.9468V53.8698V53.8665ZM44.6461 53.8986C44.6461 54.0943 44.7006 54.2387 44.8097 54.3318C44.9188 54.428 45.1081 54.4729 45.3776 54.4729C45.4995 54.4729 45.6086 54.4633 45.7113 54.4408C45.8139 54.4184 45.9006 54.3831 45.9744 54.335C46.0482 54.2836 46.1059 54.2227 46.1476 54.1425C46.1893 54.0655 46.2118 53.966 46.2118 53.8505V53.7992C46.2118 53.6259 46.1508 53.4944 46.0321 53.4013C45.9134 53.3083 45.7209 53.2634 45.4578 53.2634H45.3487C45.1017 53.2634 44.922 53.3083 44.8097 53.4013C44.6974 53.4944 44.6429 53.642 44.6429 53.8441V53.8954L44.6461 53.8986Z" fill="white"/>
<path d="M50.1632 52.0955C50.1054 52.0827 50.0445 52.0698 49.9707 52.0602C49.9001 52.0506 49.8295 52.0442 49.7589 52.0442C49.6338 52.0442 49.5183 52.0602 49.4124 52.0923C49.3065 52.1244 49.2135 52.1789 49.1365 52.2559C49.0595 52.3329 48.9985 52.4388 48.9568 52.5736C48.9151 52.7083 48.8926 52.8751 48.8926 53.0709V54.89H48.2638V51.5469H48.8092L48.8606 51.9928C48.9696 51.8292 49.1044 51.7073 49.2648 51.6239C49.4252 51.5405 49.6242 51.502 49.8584 51.502C50.022 51.502 50.1632 51.5244 50.2787 51.5661L50.1632 52.0891V52.0955Z" fill="white"/>
<path d="M51.7539 53.4236C51.7571 53.6194 51.7796 53.7798 51.8149 53.9113C51.8502 54.0429 51.9143 54.1519 52.001 54.2354C52.0876 54.3188 52.2031 54.3797 52.3507 54.4182C52.4983 54.4568 52.6844 54.4728 52.9154 54.4728C53.0982 54.4728 53.2619 54.4632 53.4095 54.4407C53.557 54.4182 53.6822 54.399 53.7816 54.3765L53.6982 54.8418C53.5891 54.8803 53.4448 54.9123 53.2651 54.9348C53.0854 54.9573 52.9057 54.9701 52.7325 54.9701C52.4309 54.9701 52.1774 54.9348 51.9721 54.8642C51.7668 54.7936 51.6031 54.691 51.4812 54.553C51.3593 54.4182 51.2695 54.2482 51.2149 54.0461C51.1604 53.8439 51.1347 53.6161 51.1347 53.3563V53.09C51.1347 52.8493 51.1636 52.628 51.2181 52.429C51.2727 52.2301 51.3625 52.0601 51.4812 51.9157C51.5999 51.7745 51.7539 51.6622 51.94 51.5852C52.1261 51.5082 52.3507 51.4697 52.6106 51.4697C52.8704 51.4697 53.0726 51.505 53.2426 51.5788C53.4127 51.6526 53.5506 51.7521 53.6565 51.874C53.7624 51.9959 53.8394 52.1403 53.8875 52.3039C53.9356 52.4675 53.9581 52.6408 53.9581 52.8237V53.0579C53.9581 53.2087 53.9356 53.3081 53.8907 53.3531C53.8458 53.398 53.7528 53.4204 53.6148 53.4204H51.7571L51.7539 53.4236ZM52.5817 51.9542C52.2961 51.9542 52.0876 52.0344 51.9528 52.1916C51.8181 52.3488 51.7507 52.6119 51.7443 52.9777H53.3581V52.8108C53.3581 52.5349 53.3004 52.3232 53.1849 52.1756C53.0694 52.028 52.8672 51.9542 52.5817 51.9542Z" fill="white"/>
<path d="M57.7682 50.2314C58.0345 50.2314 58.1692 50.3566 58.1692 50.6068C58.1692 50.8571 58.0345 50.9822 57.7682 50.9822C57.5019 50.9822 57.3671 50.8571 57.3671 50.6068C57.3671 50.3566 57.5019 50.2314 57.7682 50.2314ZM57.457 51.5533H58.0858V54.8965H57.457V51.5533Z" fill="white"/>
<path d="M61.0472 52.9518C61.2141 52.9743 61.3584 53.0128 61.4707 53.0673C61.5862 53.1218 61.6761 53.1924 61.7466 53.2759C61.8172 53.3593 61.8654 53.4523 61.8942 53.555C61.9231 53.6577 61.9391 53.7699 61.9391 53.8854V53.9368C61.9391 54.1325 61.9006 54.2929 61.8269 54.4245C61.7499 54.556 61.6472 54.6619 61.5188 54.7389C61.3905 54.8159 61.2397 54.8736 61.0697 54.9057C60.8996 54.941 60.72 54.9571 60.5274 54.9571C60.3349 54.9571 60.1392 54.941 59.9435 54.9121C59.7478 54.8833 59.5617 54.8383 59.3788 54.7838L59.4879 54.3122C59.674 54.3635 59.8473 54.402 60.0077 54.4245C60.1681 54.4469 60.3382 54.4598 60.5178 54.4598C60.7905 54.4598 60.9895 54.4245 61.121 54.3539C61.2493 54.2833 61.3167 54.1485 61.3167 53.956C61.3167 53.7956 61.2782 53.6865 61.2044 53.6224C61.1274 53.5614 61.0119 53.5165 60.8515 53.4972L60.3734 53.4331C60.0366 53.3914 59.7927 53.2919 59.6387 53.1379C59.4847 52.9839 59.4077 52.7785 59.4077 52.5187V52.4673C59.4077 52.2973 59.443 52.1529 59.5104 52.031C59.5778 51.9091 59.6772 51.8064 59.8024 51.7262C59.9275 51.646 60.0783 51.5882 60.2515 51.5465C60.428 51.508 60.6205 51.4888 60.8323 51.4888C61.044 51.4888 61.2493 51.5048 61.4258 51.5369C61.5991 51.569 61.7434 51.6043 61.8557 51.6428L61.7402 52.1144C61.5926 52.0663 61.4483 52.0342 61.3103 52.0117C61.1723 51.9893 61.0087 51.9797 60.829 51.9797C60.5403 51.9797 60.3317 52.0182 60.2002 52.092C60.0687 52.1657 60.0045 52.2877 60.0045 52.4513C60.0045 52.5925 60.0398 52.6951 60.1136 52.7561C60.1874 52.817 60.3221 52.8588 60.5146 52.8844L61.0472 52.9486V52.9518Z" fill="white"/>
<path d="M65.3645 54.8966V50.084H65.9933V51.9096C66.1024 51.7716 66.2436 51.6657 66.42 51.5887C66.5965 51.5117 66.7986 51.4764 67.0232 51.4764C67.1997 51.4764 67.3633 51.4989 67.5109 51.5438C67.6585 51.5887 67.7868 51.6593 67.8927 51.7588C67.9986 51.8582 68.082 51.9769 68.1397 52.1245C68.1975 52.2721 68.2264 52.4454 68.2264 52.6507V54.8998H67.5975V52.8593C67.5975 52.548 67.5398 52.3267 67.4307 52.1951C67.3184 52.0636 67.1259 51.9962 66.8532 51.9962C66.5805 51.9962 66.3527 52.07 66.2083 52.2144C66.0639 52.3587 65.9901 52.5994 65.9901 52.9363V54.8998H65.3613L65.3645 54.8966Z" fill="white"/>
<path d="M70.1973 53.4236C70.2005 53.6194 70.223 53.7798 70.2582 53.9113C70.2935 54.0429 70.3577 54.1519 70.4443 54.2354C70.531 54.3188 70.6465 54.3797 70.794 54.4182C70.9416 54.4568 71.1277 54.4728 71.3587 54.4728C71.5416 54.4728 71.7052 54.4632 71.8528 54.4407C72.0004 54.4182 72.1255 54.399 72.225 54.3765L72.1416 54.8418C72.0325 54.8803 71.8881 54.9123 71.7084 54.9348C71.5288 54.9573 71.3491 54.9701 71.1758 54.9701C70.8743 54.9701 70.6208 54.9348 70.4155 54.8642C70.2101 54.7936 70.0465 54.691 69.9246 54.553C69.8027 54.4182 69.7128 54.2482 69.6583 54.0461C69.6037 53.8439 69.5781 53.6161 69.5781 53.3563V53.09C69.5781 52.8493 69.6069 52.628 69.6615 52.429C69.716 52.2301 69.8059 52.0601 69.9246 51.9157C70.0433 51.7745 70.1973 51.6622 70.3834 51.5852C70.5695 51.5082 70.7941 51.4697 71.0539 51.4697C71.3138 51.4697 71.5159 51.505 71.686 51.5788C71.856 51.6526 71.994 51.7521 72.0999 51.874C72.2057 51.9959 72.2827 52.1403 72.3309 52.3039C72.379 52.4675 72.4015 52.6408 72.4015 52.8237V53.0579C72.4015 53.2087 72.379 53.3081 72.3341 53.3531C72.2892 53.398 72.1961 53.4204 72.0582 53.4204H70.2005L70.1973 53.4236ZM71.0251 51.9542C70.7395 51.9542 70.531 52.0344 70.3962 52.1916C70.2615 52.3488 70.1941 52.6119 70.1877 52.9777H71.8015V52.8108C71.8015 52.5349 71.7437 52.3232 71.6282 52.1756C71.5127 52.028 71.3106 51.9542 71.0251 51.9542Z" fill="white"/>
<path d="M75.6572 52.0955C75.5995 52.0827 75.5385 52.0698 75.4647 52.0602C75.3942 52.0506 75.3236 52.0442 75.253 52.0442C75.1279 52.0442 75.0124 52.0602 74.9065 52.0923C74.8006 52.1244 74.7076 52.1789 74.6306 52.2559C74.5536 52.3329 74.4926 52.4388 74.4509 52.5736C74.4092 52.7083 74.3867 52.8751 74.3867 53.0709V54.89H73.7579V51.5469H74.3033L74.3546 51.9928C74.4637 51.8292 74.5985 51.7073 74.7589 51.6239C74.9193 51.5405 75.1182 51.502 75.3525 51.502C75.5161 51.502 75.6572 51.5244 75.7728 51.5661L75.6572 52.0891V52.0955Z" fill="white"/>
<path d="M77.252 53.4236C77.2552 53.6194 77.2777 53.7798 77.313 53.9113C77.3483 54.0429 77.4125 54.1519 77.4991 54.2354C77.5857 54.3188 77.7012 54.3797 77.8488 54.4182C77.9964 54.4568 78.1825 54.4728 78.4135 54.4728C78.5964 54.4728 78.76 54.4632 78.9076 54.4407C79.0552 54.4182 79.1803 54.399 79.2797 54.3765L79.1963 54.8418C79.0872 54.8803 78.9429 54.9123 78.7632 54.9348C78.5835 54.9573 78.4038 54.9701 78.2306 54.9701C77.929 54.9701 77.6755 54.9348 77.4702 54.8642C77.2649 54.7936 77.1012 54.691 76.9793 54.553C76.8574 54.4182 76.7676 54.2482 76.713 54.0461C76.6585 53.8439 76.6328 53.6161 76.6328 53.3563V53.09C76.6328 52.8493 76.6617 52.628 76.7162 52.429C76.7708 52.2301 76.8606 52.0601 76.9793 51.9157C77.098 51.7745 77.252 51.6622 77.4381 51.5852C77.6242 51.5082 77.8488 51.4697 78.1087 51.4697C78.3686 51.4697 78.5707 51.505 78.7407 51.5788C78.9108 51.6526 79.0487 51.7521 79.1546 51.874C79.2605 51.9959 79.3375 52.1403 79.3856 52.3039C79.4337 52.4675 79.4562 52.6408 79.4562 52.8237V53.0579C79.4562 53.2087 79.4337 53.3081 79.3888 53.3531C79.3439 53.398 79.2509 53.4204 79.1129 53.4204H77.2552L77.252 53.4236ZM78.0798 51.9542C77.7943 51.9542 77.5857 52.0344 77.451 52.1916C77.3162 52.3488 77.2488 52.6119 77.2424 52.9777H78.8562V52.8108C78.8562 52.5349 78.7985 52.3232 78.683 52.1756C78.5675 52.028 78.3653 51.9542 78.0798 51.9542Z" fill="white"/>
<path d="M2.98382 44.0732C0.988188 41.8658 0 39.4724 0 36.8447C0 34.217 0.988188 31.8235 2.98382 29.6161C5.08532 27.6205 7.50125 26.6323 10.2123 26.6323C12.9234 26.6323 15.2335 27.6205 17.4409 29.6161C18.6376 30.8353 19.459 32.1989 19.9402 33.7357C19.2889 34.0919 18.6184 34.2812 17.9029 34.2812C16.7479 34.2812 15.7372 33.8609 14.8774 33.0427L14.4378 32.6224C13.2186 31.4674 11.8101 30.877 10.2156 30.8578C8.68194 30.8578 7.27345 31.4449 5.9933 32.6224C4.83827 33.9026 4.24793 35.3111 4.24793 36.8447C4.24793 38.3783 4.83827 39.7868 5.9933 41.0669C7.27345 42.2444 8.68194 42.8316 10.2156 42.8316C11.7492 42.8316 13.2186 42.2444 14.4378 41.0669L14.8774 40.6466C15.5928 39.9536 16.2217 39.575 16.7671 39.5109C17.3125 39.4467 17.6719 39.405 17.8612 39.405C18.5959 39.405 19.2889 39.5943 19.9402 39.9504C19.4558 41.484 18.6376 42.8508 17.4409 44.07C15.2335 46.0656 12.84 47.0538 10.2123 47.0538C7.58467 47.0538 5.08532 46.0656 2.98382 44.07V44.0732Z" fill="white"/>
<path d="M23.4897 44.0732C21.494 42.0776 20.5059 39.6616 20.5059 36.8447C20.5059 34.0277 21.494 31.6118 23.4897 29.6161C25.4853 27.6205 27.9012 26.6323 30.7407 26.6323C33.5801 26.6323 35.9511 27.6205 37.9467 29.6161C39.9424 31.6118 40.953 34.0084 40.953 36.8447C40.953 39.6809 39.9456 42.0776 37.9467 44.0732C35.9511 46.0688 33.5544 47.057 30.7407 47.057C27.9269 47.057 25.4885 46.0688 23.4897 44.0732ZM34.9437 41.0669C36.1212 39.9119 36.7083 38.5034 36.7083 36.8447C36.7083 35.1859 36.1212 33.7774 34.9437 32.6224C33.7854 31.4449 32.3802 30.8578 30.7407 30.8578C29.1012 30.8578 27.6734 31.4449 26.4959 32.6224C25.3409 33.7774 24.7506 35.1859 24.7506 36.8447C24.7506 38.5034 25.3409 39.9119 26.4959 41.0669C27.6734 42.222 29.0787 42.8091 30.7407 42.8091C32.4026 42.8091 33.7854 42.222 34.9437 41.0669Z" fill="white"/>
<path d="M56.7472 27.9576C56.5162 28.6089 56.1793 29.1543 55.7173 29.6388C54.8991 30.457 53.8885 30.8773 52.711 30.8773H51.7228C50.0609 30.8773 48.6556 31.4644 47.5006 32.6226C46.3231 33.7776 45.7359 35.1861 45.7359 36.8449V42.835C45.7359 43.528 45.5883 44.1793 45.2739 44.7696C44.4109 46.3033 43.1532 47.0604 41.5137 47.0604V26.6357C42.6687 26.6357 43.6793 27.056 44.4975 27.8742C44.8119 28.1886 45.0654 28.5255 45.2739 28.9265C47.1252 27.3929 49.2652 26.6357 51.726 26.6357H56.9589C56.9589 27.0978 56.8948 27.5405 56.7472 27.9608V27.9576Z" fill="white"/>
<path d="M64.3765 47.057C61.5595 47.057 59.1436 46.0688 57.148 44.0732C55.1524 42.0776 54.1642 39.6616 54.1642 36.8447C54.1642 34.0277 55.1524 31.6118 57.148 29.6161C59.1436 27.6205 61.5595 26.6323 64.3765 26.6323C67.1935 26.6323 69.6094 27.6205 71.6051 29.6161C73.0135 31.0246 73.9376 32.7251 74.3803 34.7207C74.5279 35.4137 74.5889 36.1067 74.5889 36.8447C74.5889 37.5826 74.5247 38.2724 74.3803 38.9462H59.4613C59.4613 37.7911 59.8816 36.7805 60.6997 35.9624C61.5178 35.1442 62.5285 34.7239 63.6835 34.7239H69.9656C69.6511 33.9058 69.2084 33.2096 68.5988 32.6032C67.4438 31.4481 66.0353 30.8578 64.3765 30.8578C62.7178 30.8578 61.3093 31.4449 60.1543 32.6224C58.9992 33.7774 58.4089 35.1859 58.4089 36.8447C58.4089 38.5034 58.9992 39.9119 60.1543 41.0669C61.3093 42.222 62.3745 42.4754 64.3348 42.8476C64.3348 42.8476 67.7454 43.547 71.4286 42.5492C75.1118 41.5514 71.4992 44.1534 71.4992 44.1534L64.4471 47.057" fill="white"/>
<path d="M96.268 31.2977H91.3303C91.3303 30.7715 91.4554 30.2678 91.7089 29.8057C92.5495 28.3555 94.0639 27.4732 96.268 27.1171V26.7802C96.268 24.5536 96.9194 22.558 98.1995 20.7901C100.32 17.9732 103.076 16.5679 106.477 16.5679H112.634C112.634 17.7229 112.214 18.7335 111.373 19.5517C110.555 20.3698 109.544 20.7901 108.389 20.7901H106.477C104.818 20.7901 103.41 21.3773 102.255 22.5548C101.097 23.7098 100.51 25.1183 100.51 26.777V27.0497H111.017C111.017 28.2272 110.43 29.2346 109.252 30.056C108.075 30.8741 106.647 31.2944 104.985 31.2944H100.51V42.8319C100.51 43.9869 100.089 44.9975 99.2487 45.8157C98.4305 46.637 97.4199 47.0541 96.2648 47.0541V31.2944L96.268 31.2977Z" fill="white"/>
<path d="M125.032 44.7696C124.718 44.1825 124.57 43.5312 124.57 42.835V36.8449C124.57 35.1861 123.983 33.7776 122.806 32.6226C121.647 31.4451 120.242 30.858 118.583 30.858C116.925 30.858 115.516 31.4451 114.361 32.6226C113.206 33.7776 112.616 35.1861 112.616 36.8449C112.616 38.5036 113.206 39.9121 114.361 41.0896C115.516 42.2446 116.925 42.835 118.583 42.835H120.326C122.068 42.835 123.351 43.6756 124.214 45.3792C124.445 45.9054 124.57 46.4508 124.57 47.0604H118.583C115.179 47.0604 112.427 45.6519 110.303 42.8382C109.022 41.0736 108.371 39.0779 108.371 36.8481C108.371 34.0119 109.359 31.6152 111.355 29.6196C113.351 27.6239 115.766 26.6357 118.583 26.6357H119.11C119.466 26.6582 119.844 26.6999 120.2 26.7609C120.685 26.825 121.064 26.9085 121.378 27.0111C121.776 27.117 122.135 27.2421 122.472 27.3897C123.207 27.7041 123.881 28.0827 124.509 28.5255L124.574 28.5672C125.013 28.8816 125.414 29.241 125.812 29.6196C127.808 31.6152 128.796 34.0119 128.796 36.8481V47.0604C127.156 47.0604 125.895 46.3033 125.036 44.7696H125.032Z" fill="white"/>
<path d="M144.589 27.9576C144.358 28.6089 144.021 29.1543 143.559 29.6388C142.741 30.457 141.73 30.8773 140.553 30.8773H139.565C137.903 30.8773 136.497 31.4644 135.342 32.6226C134.165 33.7776 133.578 35.1861 133.578 36.8449V42.835C133.578 43.528 133.43 44.1793 133.116 44.7696C132.253 46.3033 130.995 47.0604 129.355 47.0604V26.6357C130.51 26.6357 131.521 27.056 132.339 27.8742C132.654 28.1886 132.907 28.5255 133.116 28.9265C134.967 27.3929 137.107 26.6357 139.568 26.6357H144.801C144.801 27.0978 144.737 27.5405 144.589 27.9608V27.9576Z" fill="white"/>
<path d="M152.216 47.057C149.399 47.057 146.983 46.0688 144.988 44.0732C142.992 42.0776 142.004 39.6616 142.004 36.8447C142.004 34.0277 142.992 31.6118 144.988 29.6161C146.983 27.6205 149.399 26.6323 152.216 26.6323C155.033 26.6323 157.449 27.6205 159.445 29.6161C160.853 31.0246 161.777 32.7251 162.22 34.7207C162.368 35.4137 162.429 36.1067 162.429 36.8447C162.429 37.5826 162.364 38.2724 162.22 38.9462H147.301C147.301 37.7911 147.721 36.7805 148.539 35.9624C149.358 35.1442 150.368 34.7239 151.523 34.7239H157.805C157.491 33.9058 157.048 33.2096 156.439 32.6032C155.283 31.4481 153.875 30.8578 152.216 30.8578C150.558 30.8578 149.149 31.4449 147.994 32.6224C146.839 33.7774 146.249 35.1859 146.249 36.8447C146.249 38.5034 146.839 39.9119 147.994 41.0669C149.149 42.222 150.558 42.8091 152.216 42.8091H156.249C157.468 42.8091 158.495 43.2519 159.339 44.1534C160.096 44.9716 160.475 45.9405 160.475 47.0538H152.216V47.057Z" fill="white"/>
<path d="M109.756 4.67785L104.767 0L102.245 0.0866269C102.245 0.0866269 106.41 4.53347 106.971 5.63396C105.803 6.08634 104.501 6.65102 103.044 7.35687C102.996 7.36329 102.948 7.37291 102.903 7.38254C101.08 5.81363 100.981 5.87459 100.981 5.87459L99.9896 6.05747C99.9896 6.05747 100.631 6.76011 101 7.89909C97.933 9.01561 95.2637 11.3481 93.2937 13.8635C90.4254 17.5243 88.6576 20.9027 86.3122 24.9133C83.63 29.4949 81.2686 34.4262 78.1597 38.4559C75.1277 42.3894 69.128 43.8075 63.9111 42.8033C62.5957 42.5498 63.0545 46.8106 64.3764 47.0641L64.925 47.1058C76.6645 47.7956 80.0975 41.0644 85.8149 30.3996C88.3977 25.5806 89.4757 22.446 92.3761 18.1243C94.638 14.749 96.5599 10.777 101.215 8.84236C101.286 9.40383 101.267 10.0295 101.093 10.7032C101.972 10.7867 102.168 10.8059 102.207 10.8091L103.044 8.71723C103.044 8.71723 105.45 8.47981 107.642 7.98572C107.433 9.67334 106.91 13.517 106.358 14.9832L108.514 13.748L110.135 7.33441C112.422 6.6414 114.739 5.64358 115.964 4.25434C115.964 4.25434 114.476 3.31428 109.762 4.69069L109.756 4.67785Z" fill="white"/>
<path d="M145.674 44.6291C136.19 50.1732 126.437 54.7612 115.692 57.498C109.564 59.0573 102.165 59.6893 96.2199 56.9975C96.5472 56.4745 96.9996 55.958 97.6348 55.5216C97.0156 54.8671 96.8841 54.7292 96.8616 54.7035L94.8435 55.7334C94.8435 55.7334 92.8672 54.3185 90.8812 53.2437C92.1581 52.1047 95.097 49.5412 96.4862 48.8L94.035 48.3091L88.5615 52.0918C86.3701 51.1004 83.9574 50.324 82.1094 50.5646C82.1094 50.5646 82.6131 52.2619 87.0888 54.3409L87.769 61.1845L89.7358 62.7887C89.7358 62.7887 89.5304 56.667 89.832 55.4639C91.0223 55.897 92.3891 56.3334 93.9708 56.7665C94.0029 56.8114 94.0382 56.8563 94.0799 56.9012C94.4104 59.2241 94.5259 59.2466 94.5259 59.2466L95.3986 59.7663C95.3986 59.7663 95.3761 58.9354 95.7611 57.9279C105.146 62.5609 115.98 60.0487 125.301 56.8435C130.101 55.1912 134.791 53.1474 139.296 50.8374C142.976 48.9508 146.374 46.5188 150.16 44.8376C153.044 43.5543 158.806 41.8667 159.445 46.2269L160.391 46.1691C158.983 38.5171 149.935 42.149 145.674 44.6387V44.6291Z" fill="white"/>
<path d="M163.816 47.121C163.816 45.9655 164.231 44.9545 165.039 44.1361C165.847 43.3177 166.845 42.8972 167.986 42.8972H169.894C170.952 42.8972 171.801 42.0339 171.801 40.9651C171.801 39.8963 170.949 39.0298 169.894 39.0298C169.228 39.0298 168.588 38.9239 167.986 38.7152C166.928 38.359 166.034 37.7492 165.308 36.9083C164.31 35.7529 163.813 34.4081 163.813 32.8514C163.813 31.1472 164.392 29.6997 165.578 28.4993C166.763 27.299 168.214 26.6924 169.894 26.6924H175.997C175.997 27.7419 175.664 28.6694 174.98 29.4462C174.127 30.4347 173.072 30.9386 171.804 30.9386H169.897C168.838 30.9386 167.989 31.7795 167.989 32.8514C167.989 33.9234 168.842 34.7836 169.897 34.7836C171.766 34.7836 173.3 35.4993 174.485 36.9083C175.502 38.0637 176 39.4085 176 40.9651C176 42.6662 175.398 44.1169 174.216 45.3172C173.034 46.5176 171.579 47.1242 169.9 47.1242H163.819L163.816 47.121Z" fill="white"/>
</svg>
