<svg width="15" height="15" viewBox="0 0 15 15" fill="none" xmlns="http://www.w3.org/2000/svg">
<path d="M9.53282 7.50349H8.30633C8.30633 9.46302 8.30633 11.875 8.30633 11.875H6.48892C6.48892 11.875 6.48892 9.4864 6.48892 7.50349H5.625V5.95846H6.48892V4.95911C6.48892 4.24338 6.82902 3.125 8.32303 3.125L9.66977 3.13016V4.62995C9.66977 4.62995 8.8514 4.62995 8.69228 4.62995C8.53316 4.62995 8.30694 4.7095 8.30694 5.05082V5.95877H9.69163L9.53282 7.50349Z" fill="#C2D1D9"/>
<mask id="mask0_842_4030" style="mask-type:luminance" maskUnits="userSpaceOnUse" x="5" y="3" width="5" height="9">
<path d="M9.53282 7.50349H8.30633C8.30633 9.46302 8.30633 11.875 8.30633 11.875H6.48892C6.48892 11.875 6.48892 9.4864 6.48892 7.50349H5.625V5.95846H6.48892V4.95911C6.48892 4.24338 6.82902 3.125 8.32303 3.125L9.66977 3.13016V4.62995C9.66977 4.62995 8.8514 4.62995 8.69228 4.62995C8.53316 4.62995 8.30694 4.7095 8.30694 5.05082V5.95877H9.69163L9.53282 7.50349Z" fill="white"/>
</mask>
<g mask="url(#mask0_842_4030)">
<rect width="15" height="15" fill="#BFE4F4"/>
</g>
</svg>
