<svg width="153" height="46" viewBox="0 0 153 46" fill="none" xmlns="http://www.w3.org/2000/svg">
<g clip-path="url(#clip0_842_4051)">
<path fill-rule="evenodd" clip-rule="evenodd" d="M49.8326 29.3028L43.1849 42.9757H47.5744L48.2849 41.3492H52.6744L52.8267 42.9757H56.9879L54.2475 29.3028H49.8326ZM49.3505 38.5536L51.4565 33.5216L52.167 38.5536H49.3505ZM29.1535 3.99008C28.2401 3.58345 27.4028 3.02434 26.6416 2.36356C28.2401 1.0166 30.1938 0.177924 32.2744 -0.0253906C30.9804 1.11826 29.9147 2.49063 29.1535 3.99008ZM45.849 13.8763H66.6296C65.8177 15.2232 64.7267 16.4685 63.5595 16.4685H48.7416C48.0311 16.5194 48.0311 17.1801 48.7416 17.2818H63.2296C62.7476 18.3238 61.555 19.8741 60.2102 19.8741H47.0416C46.3311 19.9757 46.3311 20.5094 47.0416 20.6365H60.1341C59.4998 22.0343 58.1804 23 56.658 23.2288H45.2908C44.6565 23.3558 44.6565 23.8895 45.3416 23.9912H56.7849C56.1759 25.4906 54.7804 26.5072 53.1819 26.6597H41.8655C39.7087 26.5326 37.8565 25.1602 37.0953 23.1271C42.4237 20.916 45.1132 17.7138 45.849 13.8763ZM44.0476 32.7337H40.3685L38.8461 42.9757H34.4565L36.0296 32.7337H32.1476L32.7819 29.252H44.6565L44.0476 32.7337ZM32.9849 4.85417C31.9192 4.82876 30.8535 4.62544 29.864 4.26964C30.6252 2.79561 31.6908 1.47406 32.9849 0.406657V4.85417ZM26.058 17.8917C24.1804 15.9857 23.064 13.4696 22.9371 10.8011H27.555C27.6311 12.6564 28.0371 14.4862 28.7983 16.1636C27.7834 16.5956 26.8446 17.1801 26.0073 17.8917H26.058ZM10.0729 23.2288C8.55054 23.0254 7.25651 22.0343 6.59681 20.6365H19.6132C20.2983 20.5094 20.2983 19.9757 19.6132 19.8741H6.4192C5.07442 19.8741 3.88188 18.2984 3.39979 17.2818H17.8879C18.5983 17.1801 18.5983 16.5194 17.8879 16.4685H3.14606C1.9789 16.4685 0.837104 15.2232 0.0505371 13.8763H20.8311C21.5923 17.7393 24.2311 20.916 29.5341 23.1271C28.7983 25.1602 26.9207 26.5326 24.764 26.6597H13.4222C11.8237 26.5072 10.4281 25.4906 9.81919 23.9912H21.3132C21.9983 23.8895 21.9983 23.3558 21.3132 23.2288H10.0729ZM16.6446 29.3028L13.9296 42.9757H9.54009L12.255 29.3028H16.6446ZM23.3431 29.3028L16.6446 42.9757H21.0849L21.7953 41.3492H26.1087L26.3625 42.9757H30.4222L27.7834 29.3028H23.3431ZM22.861 38.5536L24.9162 33.5216L25.6774 38.5536H22.861ZM27.5804 9.96245H22.9625C23.064 7.29395 24.155 4.75251 26.058 2.87185C26.8953 3.58345 27.8595 4.16798 28.8744 4.60003C28.0625 6.30279 27.6311 8.10721 27.5804 9.96245ZM34.3804 2.52891e-05C36.461 0.20334 38.4401 1.04201 40.064 2.38897C39.3028 3.07516 38.4401 3.60887 37.5267 4.0155C36.7147 2.49063 35.649 1.11826 34.3804 2.52891e-05ZM36.8162 4.26964C35.8267 4.65085 34.7864 4.85417 33.7461 4.85417V0.406657C35.0147 1.49947 36.055 2.79561 36.8162 4.26964ZM38.3132 10.0641H33.6953V5.64201C34.8625 5.59118 36.0043 5.36245 37.0953 4.93041C37.8819 6.5061 38.2878 8.23428 38.3132 9.96245V10.0641ZM37.5267 16.8497C38.4401 17.231 39.3028 17.7647 40.064 18.4254C38.4655 19.7978 36.4864 20.6365 34.3804 20.8652C35.6744 19.7216 36.7401 18.3492 37.5013 16.7989V16.8497H37.5267ZM37.1461 15.8586C36.055 15.452 34.9132 15.2232 33.7461 15.1978V10.7757H38.364C38.3386 12.5293 37.9326 14.2575 37.1461 15.8078V15.8586ZM40.5968 17.9172C39.7595 17.2055 38.8207 16.6464 37.8311 16.189C38.567 14.4862 38.9476 12.6564 38.9983 10.8265H43.6162C43.5147 13.4696 42.4744 15.9602 40.6476 17.8917L40.5968 17.9172ZM37.9073 4.65085C38.8968 4.1934 39.8356 3.60886 40.6729 2.92268C42.5505 4.80334 43.6416 7.31936 43.7431 9.96245H39.1252C39.0237 8.13262 38.6177 6.3282 37.9073 4.65085ZM32.9849 15.1724C31.7923 15.1978 30.6252 15.4265 29.5087 15.8332C28.7729 14.2575 28.367 12.5293 28.3416 10.8011H32.9849V15.1724ZM32.9849 10.0133H28.367C28.3923 8.25969 28.7983 6.53152 29.5341 4.93041C30.6505 5.36245 31.8177 5.59118 33.0102 5.64201V10.0133H32.9849ZM32.9849 20.4332C31.6908 19.3912 30.6252 18.0696 29.864 16.5956C30.8535 16.2144 31.9192 16.0111 32.9849 15.9857V20.4332ZM32.2744 20.8652C30.1938 20.6111 28.2401 19.747 26.6416 18.3746C27.4028 17.7138 28.2655 17.1801 29.1789 16.7989C29.9401 18.3238 31.0058 19.6707 32.2744 20.8144V20.8652ZM33.7461 20.3823V15.9348C34.7864 15.9602 35.8267 16.1636 36.8162 16.5448C36.0296 17.9934 34.9893 19.2895 33.7461 20.3823ZM76.0938 11.7669H76.9819V43.2553H76.0938V11.7669ZM90.7595 13.9525L87.2834 24.0166H88.6281L89.6684 20.8398H93.2207L94.2864 24.0166H95.6819L92.2058 13.9525H90.7595ZM89.9983 19.8232L90.9879 16.9006C91.1908 16.2906 91.3431 15.6807 91.4953 15.0707C91.6476 15.6553 91.7998 16.2398 92.0028 16.9006L92.9923 19.7978H89.9983V19.8232ZM96.1893 20.484C96.0879 18.4509 97.6356 16.7481 99.6655 16.6464C99.7923 16.6464 99.9192 16.6464 100.046 16.6464C100.68 16.6464 101.289 16.7735 101.848 17.0276L101.543 18.0442C101.086 17.8155 100.554 17.6884 100.021 17.7138C98.6252 17.6884 97.4834 18.7812 97.458 20.179C97.458 20.2807 97.458 20.3569 97.458 20.4586C97.3311 21.831 98.3207 23.0254 99.6908 23.1525C99.7923 23.1525 99.8684 23.1525 99.9699 23.1525C100.528 23.1525 101.061 23.0254 101.568 22.7967L101.797 23.7879C101.137 24.0674 100.427 24.2199 99.7162 24.1945C97.8132 24.2707 96.1893 22.7713 96.1386 20.8398C96.1386 20.7381 96.1386 20.6365 96.1386 20.5348L96.1893 20.484ZM106.059 24.1691C104.157 24.2453 102.533 22.7459 102.482 20.8144C102.482 20.6873 102.482 20.5857 102.482 20.4586C102.406 18.4254 103.979 16.7227 106.009 16.6718C106.11 16.6718 106.237 16.6718 106.339 16.6718C106.973 16.6718 107.582 16.7989 108.14 17.0531L107.836 18.0696C107.379 17.8409 106.846 17.7138 106.313 17.7392C104.918 17.7138 103.776 18.8067 103.751 20.2044C103.751 20.3061 103.751 20.3823 103.751 20.484C103.624 21.8564 104.613 23.0509 105.983 23.1779C106.085 23.1779 106.212 23.2033 106.313 23.1779C106.871 23.1779 107.404 23.0508 107.912 22.8221L108.14 23.8133C107.48 24.0928 106.745 24.2453 106.034 24.2199V24.1691H106.059ZM112.479 17.8663C111.54 17.8917 110.804 18.6288 110.728 19.5437C110.703 19.747 110.703 19.9503 110.728 20.1536V24.0166H109.358V19.0354C109.358 18.1967 109.358 17.4597 109.282 16.7735H110.449V18.1967C110.703 17.2818 111.489 16.6464 112.428 16.621C112.555 16.5956 112.682 16.5956 112.809 16.621V17.9426C112.707 17.9172 112.58 17.8917 112.454 17.8917L112.479 17.8663ZM116.792 24.1691C117.604 24.1945 118.442 24.042 119.203 23.7116L118.974 22.7713C118.34 23.0254 117.655 23.1525 116.97 23.1525C115.701 23.2542 114.585 22.2884 114.483 21.0177C114.483 20.8906 114.483 20.7636 114.483 20.6365H119.533C119.533 20.4332 119.533 20.2299 119.533 20.0265C119.533 18.705 118.898 16.621 116.564 16.621C114.458 16.621 113.189 18.3238 113.189 20.5094C112.986 22.3647 114.331 23.9912 116.183 24.1945C116.386 24.2199 116.589 24.2199 116.792 24.1945V24.1691ZM116.539 17.5614C117.554 17.5868 118.391 18.4254 118.365 19.442C118.365 19.5183 118.365 19.6199 118.34 19.6962H114.509C114.559 18.5779 115.422 17.6884 116.513 17.6122L116.539 17.5614ZM127.119 13.4442H125.825V17.7647C125.368 17.0022 124.531 16.5702 123.643 16.5956C121.892 16.5956 120.395 18.0696 120.421 20.484C120.421 22.6696 121.765 24.1437 123.516 24.1437C124.531 24.1945 125.495 23.6862 125.977 22.7967V24.042H127.145C127.145 23.5337 127.068 22.8221 127.068 22.1868L127.119 13.4442ZM125.825 21.0177C125.851 21.1956 125.851 21.3989 125.825 21.5768C125.622 22.4917 124.836 23.1525 123.897 23.1525C122.476 23.1525 121.765 21.9326 121.765 20.484C121.765 19.0354 122.577 17.6884 123.922 17.6884C124.836 17.6884 125.622 18.3238 125.8 19.2387C125.825 19.4166 125.825 19.6199 125.8 19.7978L125.825 21.0177ZM128.997 16.8243H130.291V24.042H128.997V16.8243ZM130.468 14.7912C130.468 15.2486 130.113 15.6044 129.657 15.6044C129.2 15.6044 128.845 15.2486 128.845 14.7912C128.819 14.3591 129.174 13.9779 129.606 13.9779H129.631C130.062 13.9271 130.443 14.2321 130.494 14.6641C130.494 14.7149 130.494 14.7658 130.494 14.8166L130.468 14.7912ZM133.767 16.8243H135.645V17.8409H133.767V21.7293C133.767 22.6188 134.021 23.1271 134.757 23.1271C135.01 23.1271 135.264 23.1017 135.518 23.0254V24.0166C135.137 24.1437 134.757 24.2199 134.351 24.1945C133.818 24.2199 133.31 24.0166 132.93 23.6354C132.524 23.1017 132.346 22.4155 132.422 21.7547V17.8155H131.255V16.7989H132.422V15.0707L133.716 14.7404L133.767 16.8243ZM139.527 16.6464C137.446 16.6464 136.152 18.3492 136.152 20.5348C135.974 22.3901 137.319 24.0166 139.171 24.1945C139.374 24.2199 139.603 24.2199 139.806 24.1945C140.618 24.2199 141.455 24.0674 142.216 23.737L141.988 22.7967C141.354 23.0509 140.668 23.1779 139.983 23.1779C138.715 23.2796 137.598 22.3392 137.497 21.0685C137.497 20.9415 137.497 20.8144 137.497 20.6619H142.546C142.571 20.4586 142.571 20.2553 142.546 20.052C142.571 18.7304 141.962 16.6464 139.603 16.6464H139.527ZM137.522 19.747C137.548 18.6288 138.41 17.6884 139.527 17.6122C140.567 17.6376 141.379 18.5017 141.379 19.5437C141.379 19.6199 141.379 19.6962 141.354 19.747H137.522ZM150.209 22.1868V13.4188H148.889V17.7392C148.433 16.9768 147.595 16.5448 146.707 16.5702C144.931 16.5702 143.459 18.0442 143.485 20.4586C143.485 22.6442 144.83 24.1183 146.58 24.1183C147.595 24.1437 148.534 23.61 149.042 22.695V23.9404H150.209C150.209 23.5591 150.209 22.8221 150.209 22.1868ZM148.889 21.0431C148.889 21.2464 148.864 21.4243 148.839 21.6022C148.661 22.5172 147.849 23.1779 146.91 23.1779C145.489 23.1779 144.779 21.958 144.779 20.5094C144.779 19.0608 145.591 17.7138 146.936 17.7138C147.824 17.7393 148.585 18.3492 148.762 19.2387C148.813 19.4166 148.813 19.5945 148.813 19.7978L148.889 21.0431ZM90.7595 29.252L87.2834 39.316H88.6281L89.6684 36.1647H93.2207L94.2864 39.316H95.6819L92.2058 29.252H90.7595ZM89.9983 35.1481L90.9879 32.2254C91.1908 31.6155 91.3431 31.0056 91.4953 30.421C91.6476 31.0056 91.7998 31.5901 92.0028 32.2509L92.9923 35.1481H89.9983ZM101.721 33.1912C101.264 32.3525 100.351 31.8696 99.4117 31.9459C97.7625 31.9459 96.164 33.3437 96.164 35.7834C95.9864 37.5625 97.3058 39.1381 99.0565 39.2906C99.1073 39.2906 99.158 39.2906 99.2087 39.2906C100.148 39.3415 101.036 38.8586 101.518 38.0707V38.8586C101.518 40.663 100.528 41.3746 99.2087 41.3746C98.4729 41.3746 97.7371 41.1967 97.0774 40.8155L96.7475 41.8321C97.4834 42.2387 98.2953 42.442 99.1326 42.4166C100.097 42.4674 101.01 42.1625 101.746 41.5525C102.583 40.663 102.964 39.4685 102.837 38.2486V34.0553C102.837 33.1658 102.837 32.6067 102.888 32.073H101.721V33.1912ZM101.568 36.2409C101.568 36.4696 101.543 36.7238 101.467 36.9525C101.213 37.7404 100.477 38.2995 99.6655 38.2995C98.2446 38.2995 97.5341 37.1304 97.5341 35.7072C97.5341 34.0299 98.4476 32.9625 99.6908 32.9625C100.554 32.9625 101.289 33.5216 101.518 34.3602C101.568 34.5636 101.594 34.7669 101.594 34.9702V36.2409H101.568ZM107.582 31.9459C105.476 31.9459 104.207 33.6741 104.207 35.8343C104.055 37.6895 105.4 39.316 107.252 39.4685C107.43 39.4939 107.582 39.4939 107.759 39.4685C108.571 39.4939 109.409 39.3415 110.17 39.0365L109.942 38.0962C109.307 38.3503 108.648 38.4774 107.962 38.4774C106.694 38.579 105.577 37.6133 105.501 36.3426C105.501 36.2155 105.501 36.1138 105.501 35.9868H110.551C110.551 35.7835 110.551 35.5801 110.551 35.3768C110.576 34.0044 109.942 31.9459 107.582 31.9459ZM105.476 35.021C105.476 33.8774 106.364 32.937 107.48 32.8608C108.495 32.8608 109.333 33.6995 109.307 34.716C109.307 34.7923 109.307 34.8939 109.282 34.9702L105.476 35.021ZM118.036 35.021V39.3415H116.716V35.1735C116.716 34.0044 116.285 33.0387 115.042 33.0387C114.204 33.0133 113.468 33.5724 113.24 34.3602C113.164 34.5636 113.139 34.7669 113.139 34.9702V39.316H111.87V32.0984H113.037L113.113 33.2674C113.595 32.4287 114.509 31.9459 115.448 31.9713C116.488 31.9459 118.036 32.5304 118.036 35.021ZM121.385 32.1238H123.262V33.1149H121.359V37.0033C121.359 37.8928 121.613 38.4011 122.349 38.4011C122.603 38.4011 122.857 38.3757 123.11 38.3249V39.316C122.73 39.4431 122.349 39.4939 121.943 39.4939C121.41 39.5194 120.903 39.3415 120.522 38.9602C120.116 38.4265 119.939 37.7404 120.015 37.0796V33.1404H118.848V32.1492H120.015V30.421L121.309 30.0652L121.385 32.1238Z" fill="#BFE4F4"/>
</g>
<defs>
<clipPath id="clip0_842_4051">
<rect width="153" height="46" fill="white"/>
</clipPath>
</defs>
</svg>
