<svg width="15" height="15" viewBox="0 0 15 15" fill="none" xmlns="http://www.w3.org/2000/svg">
<path fill-rule="evenodd" clip-rule="evenodd" d="M4.1565 3.75C3.53295 3.75 3.125 4.15931 3.125 4.69708C3.125 5.22343 3.52112 5.64456 4.13257 5.64456H4.1444C4.78018 5.64456 5.17549 5.22343 5.17549 4.69708C5.16339 4.15931 4.78018 3.75 4.1565 3.75ZM11.6276 8.73103V11.875H9.80485V8.94173C9.80485 8.20522 9.54167 7.70225 8.88169 7.70225C8.37804 7.70225 8.07884 8.04088 7.94671 8.36876C7.89873 8.48594 7.88636 8.64865 7.88636 8.813V11.8749H6.06343C6.06343 11.8749 6.0879 6.90688 6.06343 6.39263H7.88649V7.16951C7.88477 7.17238 7.88272 7.17522 7.88069 7.17803C7.8784 7.18121 7.87613 7.18435 7.87439 7.18746H7.88649V7.16951C8.12873 6.79677 8.56074 6.2639 9.5293 6.2639C10.7285 6.2639 11.6276 7.04744 11.6276 8.73103ZM5.05559 11.875H3.23334V6.39263H5.05559V11.875Z" fill="#C2D1D9"/>
<mask id="mask0_842_4029" style="mask-type:luminance" maskUnits="userSpaceOnUse" x="3" y="3" width="9" height="9">
<path fill-rule="evenodd" clip-rule="evenodd" d="M4.1565 3.75C3.53295 3.75 3.125 4.15931 3.125 4.69708C3.125 5.22343 3.52112 5.64456 4.13257 5.64456H4.1444C4.78018 5.64456 5.17549 5.22343 5.17549 4.69708C5.16339 4.15931 4.78018 3.75 4.1565 3.75ZM11.6276 8.73103V11.875H9.80485V8.94173C9.80485 8.20522 9.54167 7.70225 8.88169 7.70225C8.37804 7.70225 8.07884 8.04088 7.94671 8.36876C7.89873 8.48594 7.88636 8.64865 7.88636 8.813V11.8749H6.06343C6.06343 11.8749 6.0879 6.90688 6.06343 6.39263H7.88649V7.16951C7.88477 7.17238 7.88272 7.17522 7.88069 7.17803C7.8784 7.18121 7.87613 7.18435 7.87439 7.18746H7.88649V7.16951C8.12873 6.79677 8.56074 6.2639 9.5293 6.2639C10.7285 6.2639 11.6276 7.04744 11.6276 8.73103ZM5.05559 11.875H3.23334V6.39263H5.05559V11.875Z" fill="white"/>
</mask>
<g mask="url(#mask0_842_4029)">
<rect width="15" height="15" fill="#BFE4F4"/>
</g>
</svg>
