<svg id="ebwHUGdoRFy1" xmlns="http://www.w3.org/2000/svg" xmlns:xlink="http://www.w3.org/1999/xlink" viewBox="0 0 881 1093" shape-rendering="geometricPrecision" text-rendering="geometricPrecision">
<style><![CDATA[
#ebwHUGdoRFy2_to {animation: ebwHUGdoRFy2_to__to 6000ms linear infinite normal forwards}@keyframes ebwHUGdoRFy2_to__to { 0% {offset-distance: 0%} 100% {offset-distance: 100%}} #ebwHUGdoRFy2_tr {animation: ebwHUGdoRFy2_tr__tr 6000ms linear infinite normal forwards}@keyframes ebwHUGdoRFy2_tr__tr { 0% {transform: rotate(-26deg)} 50% {transform: rotate(12deg)} 66.666667% {transform: rotate(28deg)} 83.333333% {transform: rotate(46deg)} 100% {transform: rotate(58deg)}} #ebwHUGdoRFy9_to {animation: ebwHUGdoRFy9_to__to 6000ms linear infinite normal forwards}@keyframes ebwHUGdoRFy9_to__to { 0% {offset-distance: 0%} 100% {offset-distance: 100%}} #ebwHUGdoRFy9_tr {animation: ebwHUGdoRFy9_tr__tr 6000ms linear infinite normal forwards}@keyframes ebwHUGdoRFy9_tr__tr { 0% {transform: rotate(0deg)} 16.666667% {transform: rotate(-22deg)} 33.333333% {transform: rotate(0deg)} 50% {transform: rotate(16deg)} 66.666667% {transform: rotate(28deg)} 83.333333% {transform: rotate(42deg)} 100% {transform: rotate(58deg)}} #ebwHUGdoRFy14_to {animation: ebwHUGdoRFy14_to__to 6000ms linear infinite normal forwards}@keyframes ebwHUGdoRFy14_to__to { 0% {offset-distance: 0%} 100% {offset-distance: 100%}} #ebwHUGdoRFy14_tr {animation: ebwHUGdoRFy14_tr__tr 6000ms linear infinite normal forwards}@keyframes ebwHUGdoRFy14_tr__tr { 0% {transform: rotate(30deg)} 16.666667% {transform: rotate(16deg)} 31.666667% {transform: rotate(2deg)} 50% {transform: rotate(-16deg)} 66.666667% {transform: rotate(-28deg)} 83.333333% {transform: rotate(-44deg)} 100% {transform: rotate(-44deg)}}
]]></style>
<g id="ebwHUGdoRFy2_to" style="offset-path:path('M21.0001,975.428C21.0001,565.146,354.718,231.428,765,231.428');offset-rotate:0deg"><g id="ebwHUGdoRFy2_tr" transform="rotate(-26)"><g transform="translate(-93.812752,-650.128937)" clip-path="url(#ebwHUGdoRFy5)"><g><path d="M84.4198,661.546l1.3387-2.161l5.545-.644l1.9622-7.415c.2226-.837-.387-1.668-1.2459-1.696l-13.9293-.458l4.9893-5.061l13.5069-.247c0,0,1.4087-5.306,6.6093-9.929.69-.613,1.773-.133,1.806.797.074,2.113-.301,5.658-2.792,9.678l-1.029,2.438l8.354,11.943-1.128,5.711-8.5398-10.544c-.6565-.813-1.9022-.779-2.5162.066l-4.215,5.79l2.6277,4.586-1.9275,2.197-2.6284-3.276c-.3531-.439-.849-.733-1.4036-.833l-5.3841-.946-.0003.004Z" fill="#fff"/></g><clipPath id="ebwHUGdoRFy5"><rect width="33.5394" height="32.0149" rx="0" ry="0" transform="matrix(-.067058 0.997749-.997749-.067058 111.191 634.149)" fill="#fff"/></clipPath></g></g></g><path d="M21.0001,975.428c0-410.282,333.7179-744,743.9999-744" fill="none" stroke="#fff" stroke-width="2" stroke-linecap="round" stroke-linejoin="round" stroke-dasharray="1,12"/><path d="M386,231.428c209.828,209.828,209.828,551.171,0,761" fill="none" stroke="#fff" stroke-width="2" stroke-linecap="round" stroke-linejoin="round" stroke-dasharray="1,12"/><g id="ebwHUGdoRFy9_to" style="offset-path:path('M1093.67,862.049C618.445,989.384,128.335,706.419,1,231.199');offset-rotate:0deg"><g id="ebwHUGdoRFy9_tr" transform="rotate(0)"><g transform="translate(-704.791992,-880.269012)" clip-path="url(#ebwHUGdoRFy12)"><g><path d="M716.632,886.911l-2.017-.774-1.419-4.529-6.505-.46c-.735-.053-1.332.589-1.219,1.31l1.833,11.706-5.021-3.362-2.353-11.241c0,0-4.656-.333-9.344-3.942-.621-.478-.392-1.458.379-1.634c1.753-.398,4.773-.648,8.527.793l2.199.472l8.646-8.876l4.95.034-7.449,8.809c-.574.677-.348,1.712.455,2.09l5.506,2.6l3.412-2.924l2.142,1.261-2.318,2.716c-.311.365-.478.825-.473,1.305l.066,4.647.003-.001Z" fill="#fff"/></g><clipPath id="ebwHUGdoRFy12"><rect width="28.5136" height="27.2175" rx="0" ry="0" transform="matrix(.992688-.120709 0.120709 0.992688 689.496 868.908)" fill="#fff"/></clipPath></g></g></g><g id="ebwHUGdoRFy14_to" style="offset-path:path('M386,992.428C595.828,782.599,595.828,441.256,386,231.428');offset-rotate:0deg"><g id="ebwHUGdoRFy14_tr" transform="rotate(30)"><g transform="translate(-531.492004,-717.467377)" clip-path="url(#ebwHUGdoRFy17)"><g><path d="M525.623,729.298l.592-1.949l4.162-1.64-.006-6.147c0-.694-.643-1.212-1.314-1.057l-10.883,2.512l2.823-4.947l10.411-2.971c0,0-.001-4.4,3.076-9.051.409-.616,1.346-.467,1.563.247.492,1.621.931,4.444-.172,8.07l-.295,2.1l8.928,7.531.302,4.656-8.784-6.41c-.676-.494-1.634-.211-1.936.569l-2.073,5.352l2.979,3.011-1.041,2.099-2.71-1.997c-.364-.268-.808-.393-1.258-.357l-4.365.376.001.003Z" fill="#fff"/></g><clipPath id="ebwHUGdoRFy17"><rect width="26.8785" height="25.6567" rx="0" ry="0" transform="matrix(.191366 0.981519-.981519 0.191366 540.721 702.569)" fill="#fff"/></clipPath></g></g></g><path d="M1093.67,862.049C618.445,989.384,128.335,706.419,1,231.199" fill="none" stroke="#fff" stroke-width="2" stroke-linecap="round" stroke-linejoin="round" stroke-dasharray="1,12"/></svg>
