<svg width="48" height="48" viewBox="0 0 48 48" fill="none" xmlns="http://www.w3.org/2000/svg">
<g id="add_circle_FILL0_wght200_GRAD0_opsz48 1">
<path id="Vector" d="M23.3039 33H24.8423V24.8538H33V23.3154H24.8423V15H23.3039V23.3154H15V24.8538H23.3039V33ZM24.02 42C21.5141 42 19.1759 41.5277 17.0053 40.583C14.8347 39.6384 12.9305 38.348 11.2929 36.712C9.65538 35.0759 8.36383 33.1723 7.4183 31.0013C6.47277 28.8302 6 26.4904 6 23.9817C6 21.4987 6.47232 19.1642 7.41695 16.9783C8.36162 14.7923 9.65198 12.8889 11.2881 11.268C12.9241 9.64705 14.8277 8.36383 16.9987 7.4183C19.1698 6.47277 21.5096 6 24.0183 6C26.5013 6 28.8358 6.47232 31.0217 7.41695C33.2077 8.36162 35.1111 9.64365 36.732 11.263C38.353 12.8824 39.6362 14.7867 40.5817 16.9759C41.5272 19.1651 42 21.4998 42 23.98C42 26.4859 41.5277 28.8241 40.583 30.9947C39.6384 33.1653 38.3563 35.0664 36.737 36.6978C35.1176 38.3293 33.2133 39.6208 31.0241 40.5725C28.8349 41.5242 26.5002 42 24.02 42ZM24.025 40.4616C28.5878 40.4616 32.468 38.8609 35.6654 35.6596C38.8628 32.4583 40.4616 28.5635 40.4616 23.975C40.4616 19.4122 38.866 15.532 35.6747 12.3346C32.4836 9.13717 28.592 7.53845 24 7.53845C19.4282 7.53845 15.5417 9.13405 12.3404 12.3253C9.1391 15.5164 7.53845 19.408 7.53845 24C7.53845 28.5718 9.1391 32.4583 12.3404 35.6596C15.5417 38.8609 19.4365 40.4616 24.025 40.4616Z" fill="#0092D2"/>
</g>
</svg>
