<svg width="40" height="40" viewBox="0 0 40 40" fill="none" xmlns="http://www.w3.org/2000/svg">
<path d="M20.0427 27.5214L27.3504 20.2137L25.8205 18.6837L21.1538 23.3504V12.4359H18.8889V23.3504L14.2222 18.6837L12.6923 20.2137L20.0427 27.5214ZM20.0074 40C17.2418 40 14.6416 39.4752 12.2069 38.4256C9.77219 37.376 7.65431 35.9515 5.85328 34.1522C4.05228 32.3528 2.62648 30.237 1.57589 27.8046C0.525296 25.3721 0 22.7731 0 20.0074C0 17.2418 0.524797 14.6416 1.57439 12.2069C2.62402 9.77219 4.0485 7.65432 5.84783 5.85328C7.64717 4.05228 9.76304 2.62648 12.1954 1.57589C14.6279 0.525298 17.2269 0 19.9926 0C22.7582 0 25.3584 0.524796 27.7931 1.57439C30.2278 2.62402 32.3457 4.0485 34.1467 5.84783C35.9477 7.64717 37.3735 9.76304 38.4241 12.1954C39.4747 14.6279 40 17.2269 40 19.9926C40 22.7582 39.4752 25.3584 38.4256 27.7931C37.376 30.2278 35.9515 32.3457 34.1522 34.1467C32.3528 35.9477 30.237 37.3735 27.8046 38.4241C25.3721 39.4747 22.7731 40 20.0074 40ZM20 37.7778C24.963 37.7778 29.1667 36.0556 32.6111 32.6111C36.0556 29.1667 37.7778 24.963 37.7778 20C37.7778 15.037 36.0556 10.8333 32.6111 7.38889C29.1667 3.94444 24.963 2.22222 20 2.22222C15.037 2.22222 10.8333 3.94444 7.38889 7.38889C3.94444 10.8333 2.22222 15.037 2.22222 20C2.22222 24.963 3.94444 29.1667 7.38889 32.6111C10.8333 36.0556 15.037 37.7778 20 37.7778Z" fill="#123D6C"/>
</svg>
