<svg width="15" height="15" viewBox="0 0 15 15" fill="none" xmlns="http://www.w3.org/2000/svg">
<path fill-rule="evenodd" clip-rule="evenodd" d="M11.5672 4.05805L11.544 4.04255C11.0634 3.58521 10.4975 3.36817 9.84641 3.39917L9.82316 3.35267L9.83866 3.34491C10.4278 3.21314 10.7766 3.07361 10.8851 2.91858C10.9161 2.79456 10.8774 2.72479 10.7456 2.70929C10.451 2.74805 10.172 2.81006 9.93168 2.91083C10.2417 2.70929 10.358 2.56976 10.2883 2.5C9.98594 2.50775 9.65263 2.66278 9.31156 2.97284C9.43559 2.7558 9.48985 2.63178 9.45884 2.61627C9.28831 2.72479 9.14878 2.84882 9.02476 2.98059C8.7612 3.27515 8.55191 3.54645 8.38913 3.7945L8.38138 3.81C7.97055 4.48438 7.67599 5.15876 7.50546 5.84865L7.44345 5.90291L7.42795 5.91066C7.1799 5.6006 6.87759 5.33705 6.52102 5.12776C6.10244 4.8487 5.60634 4.59291 5.03273 4.33711C4.41261 4.01154 3.77699 3.74799 3.14137 3.5387C3.13361 4.25959 3.49018 4.82545 4.18007 5.24403V5.25178C3.93977 5.25178 3.69947 5.29054 3.46693 5.3603C3.51344 6.02693 3.98628 6.48427 4.8777 6.73232L4.86995 6.74782C4.52113 6.72457 4.23433 6.84859 4.00953 7.10439C4.30409 7.678 4.82344 7.94931 5.57534 7.9338C5.42806 8.01132 5.31179 8.08883 5.23427 8.18185C5.09474 8.32913 5.04824 8.49966 5.09474 8.69345C5.25753 8.98801 5.54433 9.11978 5.97066 9.09653L5.99392 9.12753L5.98617 9.14304C5.24977 9.90268 4.35835 10.2438 3.31965 10.174L3.30415 10.1817C2.66852 10.174 1.98639 9.87168 1.25 9.26706C1.98639 10.329 2.97083 11.0964 4.18782 11.5848C5.57534 12.0421 6.97061 12.0809 8.35813 11.6855H8.38138C9.73014 11.298 10.8696 10.4918 11.8153 9.28256C12.2494 8.65469 12.5207 8.05008 12.6292 7.46871C13.3346 7.49197 13.8384 7.29043 14.1562 6.85634L14.1485 6.84084C13.9082 6.92611 13.4509 6.90285 12.7765 6.76333V6.68581C13.5206 6.60054 13.9625 6.36025 14.102 5.96492C13.5826 6.16646 13.071 6.17421 12.5672 5.98042C12.4742 5.28279 12.1409 4.63941 11.5672 4.05805Z" fill="#C2D1D9"/>
<mask id="mask0_842_4031" style="mask-type:luminance" maskUnits="userSpaceOnUse" x="1" y="2" width="14" height="10">
<path fill-rule="evenodd" clip-rule="evenodd" d="M11.5672 4.05805L11.544 4.04255C11.0634 3.58521 10.4975 3.36817 9.84641 3.39917L9.82316 3.35267L9.83866 3.34491C10.4278 3.21314 10.7766 3.07361 10.8851 2.91858C10.9161 2.79456 10.8774 2.72479 10.7456 2.70929C10.451 2.74805 10.172 2.81006 9.93168 2.91083C10.2417 2.70929 10.358 2.56976 10.2883 2.5C9.98594 2.50775 9.65263 2.66278 9.31156 2.97284C9.43559 2.7558 9.48985 2.63178 9.45884 2.61627C9.28831 2.72479 9.14878 2.84882 9.02476 2.98059C8.7612 3.27515 8.55191 3.54645 8.38913 3.7945L8.38138 3.81C7.97055 4.48438 7.67599 5.15876 7.50546 5.84865L7.44345 5.90291L7.42795 5.91066C7.1799 5.6006 6.87759 5.33705 6.52102 5.12776C6.10244 4.8487 5.60634 4.59291 5.03273 4.33711C4.41261 4.01154 3.77699 3.74799 3.14137 3.5387C3.13361 4.25959 3.49018 4.82545 4.18007 5.24403V5.25178C3.93977 5.25178 3.69947 5.29054 3.46693 5.3603C3.51344 6.02693 3.98628 6.48427 4.8777 6.73232L4.86995 6.74782C4.52113 6.72457 4.23433 6.84859 4.00953 7.10439C4.30409 7.678 4.82344 7.94931 5.57534 7.9338C5.42806 8.01132 5.31179 8.08883 5.23427 8.18185C5.09474 8.32913 5.04824 8.49966 5.09474 8.69345C5.25753 8.98801 5.54433 9.11978 5.97066 9.09653L5.99392 9.12753L5.98617 9.14304C5.24977 9.90268 4.35835 10.2438 3.31965 10.174L3.30415 10.1817C2.66852 10.174 1.98639 9.87168 1.25 9.26706C1.98639 10.329 2.97083 11.0964 4.18782 11.5848C5.57534 12.0421 6.97061 12.0809 8.35813 11.6855H8.38138C9.73014 11.298 10.8696 10.4918 11.8153 9.28256C12.2494 8.65469 12.5207 8.05008 12.6292 7.46871C13.3346 7.49197 13.8384 7.29043 14.1562 6.85634L14.1485 6.84084C13.9082 6.92611 13.4509 6.90285 12.7765 6.76333V6.68581C13.5206 6.60054 13.9625 6.36025 14.102 5.96492C13.5826 6.16646 13.071 6.17421 12.5672 5.98042C12.4742 5.28279 12.1409 4.63941 11.5672 4.05805Z" fill="white"/>
</mask>
<g mask="url(#mask0_842_4031)">
<rect width="15" height="15" fill="#BFE4F4"/>
</g>
</svg>
