<svg width="32" height="23" viewBox="0 0 32 23" fill="none" xmlns="http://www.w3.org/2000/svg">
<path d="M17.7564 12.2436C16.8162 12.2436 16.0257 11.9231 15.3846 11.2821C14.7436 10.6411 14.4231 9.85046 14.4231 8.91029C14.4231 7.97013 14.7436 7.17953 15.3846 6.5385C16.0257 5.89747 16.8162 5.57696 17.7564 5.57696C18.6966 5.57696 19.4872 5.89747 20.1282 6.5385C20.7692 7.17953 21.0898 7.97013 21.0898 8.91029C21.0898 9.85046 20.7692 10.6411 20.1282 11.2821C19.4872 11.9231 18.6966 12.2436 17.7564 12.2436ZM4.48717 17.8206V0H31.0257V17.8206H4.48717ZM8.84617 16.4103H26.6667C26.6667 15.5976 26.9563 14.903 27.5355 14.3264C28.1148 13.7499 28.8081 13.4616 29.6154 13.4616V4.359C28.8027 4.359 28.1081 4.06939 27.5315 3.49017C26.955 2.91092 26.6667 2.21763 26.6667 1.41029H8.84617C8.84617 2.22296 8.55654 2.91759 7.97729 3.49417C7.39804 4.07072 6.70475 4.359 5.89742 4.359V13.4616C6.71011 13.4616 7.40474 13.7512 7.98129 14.3305C8.55788 14.9097 8.84617 15.603 8.84617 16.4103ZM0 22.3078V4.93592H1.41025V20.8975H26.0898V22.3078H0Z" fill="#123D6C"/>
</svg>
