<svg width="26" height="31" viewBox="0 0 26 31" fill="none" xmlns="http://www.w3.org/2000/svg">
<path d="M25.3173 30.3846H9.55767L0 17.7276L1.19017 16.3782L7.56088 19.4594V5.57692H8.97433V21.7265L2.40917 18.562L10.3237 28.9744H23.907V16.0256H13.5897V14.6154H25.3173V30.3846ZM2.83758 9.41238C2.562 8.95396 2.35083 8.45782 2.20408 7.92396C2.05733 7.39007 1.98396 6.84049 1.98396 6.27521C1.98396 4.53118 2.5959 3.04931 3.81979 1.82958C5.04371 0.609863 6.52578 0 8.266 0C10.0063 0 11.4883 0.612071 12.7122 1.83621C13.9361 3.06032 14.548 4.54344 14.548 6.28558C14.548 6.85231 14.4747 7.40083 14.3279 7.93117C14.1812 8.46153 13.97 8.95527 13.6944 9.41238L12.4775 8.70725C12.6955 8.34117 12.86 7.95687 12.9711 7.55437C13.0822 7.15188 13.1378 6.72333 13.1378 6.26875C13.1378 4.92125 12.6637 3.77463 11.7155 2.82888C10.7674 1.88313 9.61603 1.41025 8.2615 1.41025C6.90697 1.41025 5.75713 1.88392 4.81196 2.83125C3.86679 3.77856 3.39421 4.92888 3.39421 6.28221C3.39421 6.73151 3.44976 7.1565 3.56087 7.55717C3.67199 7.95781 3.83651 8.34117 4.05446 8.70725L2.83758 9.41238Z" fill="#123D6C"/>
</svg>
