<svg xmlns="http://www.w3.org/2000/svg" fill="none" viewBox="439 536.16 562 522.09">
<g filter="url(#filter0_f_1125_4355)">
<!-- <ellipse cx="720" cy="830" rx="400" ry="326" fill="url(#paint0_linear_1125_4355)"/> -->
</g>
<circle cx="720" cy="830" r="128" fill="url(#paint1_linear_1125_4355)"/>
<path d="M665.919 844.143L666.713 842.667H667.175L666.123 844.517V845.797H665.688V844.522L664.649 842.667H665.137L665.914 844.143H665.919Z" fill="white"/>
<path d="M668.51 843.472C668.713 843.472 668.881 843.498 669.011 843.553C669.144 843.607 669.248 843.683 669.325 843.779C669.403 843.875 669.457 843.99 669.488 844.123C669.518 844.256 669.534 844.397 669.534 844.554V844.761C669.534 844.92 669.516 845.063 669.484 845.196C669.451 845.329 669.394 845.442 669.314 845.54C669.233 845.638 669.129 845.712 668.998 845.767C668.865 845.821 668.704 845.847 668.51 845.847C668.317 845.847 668.14 845.821 668.01 845.767C667.877 845.712 667.772 845.636 667.696 845.54C667.618 845.444 667.563 845.329 667.533 845.196C667.503 845.063 667.487 844.92 667.487 844.761V844.554C667.487 844.399 667.505 844.256 667.537 844.123C667.57 843.99 667.627 843.877 667.707 843.779C667.788 843.681 667.892 843.607 668.023 843.553C668.156 843.498 668.317 843.472 668.51 843.472ZM668.515 845.503C668.735 845.503 668.887 845.447 668.972 845.333C669.057 845.22 669.1 845.033 669.1 844.774V844.545C669.1 844.413 669.092 844.302 669.072 844.21C669.053 844.119 669.02 844.042 668.976 843.984C668.931 843.925 668.872 843.881 668.796 843.853C668.719 843.825 668.628 843.812 668.517 843.812C668.406 843.812 668.312 843.825 668.236 843.853C668.16 843.881 668.099 843.925 668.053 843.984C668.008 844.042 667.975 844.119 667.955 844.21C667.936 844.302 667.925 844.415 667.925 844.545V844.774C667.925 844.907 667.936 845.018 667.955 845.111C667.975 845.205 668.01 845.281 668.053 845.338C668.099 845.394 668.16 845.436 668.236 845.464C668.312 845.492 668.406 845.503 668.517 845.503H668.515Z" fill="white"/>
<path d="M672.371 843.528V845.796H672.001L671.967 845.52C671.897 845.622 671.801 845.703 671.681 845.761C671.562 845.82 671.42 845.848 671.255 845.848C671.007 845.848 670.808 845.781 670.665 845.648C670.521 845.515 670.449 845.315 670.449 845.047V843.526H670.872V844.906C670.872 845.117 670.909 845.267 670.983 845.359C671.057 845.45 671.187 845.496 671.372 845.496C671.557 845.496 671.705 845.446 671.801 845.345C671.897 845.245 671.945 845.082 671.945 844.854V843.526H672.371V843.528Z" fill="white"/>
<path d="M674.669 843.894C674.629 843.885 674.588 843.877 674.538 843.87C674.49 843.863 674.442 843.859 674.394 843.859C674.309 843.859 674.231 843.87 674.159 843.892C674.087 843.914 674.024 843.951 673.972 844.003C673.92 844.055 673.878 844.127 673.85 844.218C673.822 844.31 673.807 844.423 673.807 844.556V845.79H673.38V843.522H673.75L673.785 843.824C673.859 843.713 673.95 843.631 674.059 843.574C674.168 843.517 674.303 843.491 674.462 843.491C674.573 843.491 674.669 843.506 674.747 843.535L674.669 843.89V843.894Z" fill="white"/>
<path d="M678.955 844.742C678.955 844.942 678.929 845.11 678.879 845.249C678.827 845.388 678.755 845.501 678.659 845.589C678.563 845.676 678.45 845.741 678.319 845.782C678.187 845.824 678.041 845.843 677.88 845.843C677.719 845.843 677.551 845.824 677.394 845.784C677.237 845.745 677.094 845.689 676.961 845.615V842.526H677.388V843.769C677.464 843.666 677.56 843.59 677.677 843.542C677.795 843.494 677.927 843.47 678.078 843.47C678.215 843.47 678.339 843.49 678.45 843.531C678.561 843.573 678.652 843.638 678.726 843.727C678.8 843.816 678.859 843.93 678.898 844.067C678.938 844.204 678.957 844.369 678.957 844.563V844.74L678.955 844.742ZM678.52 844.596C678.52 844.47 678.511 844.359 678.493 844.263C678.476 844.167 678.446 844.084 678.406 844.019C678.367 843.954 678.308 843.904 678.234 843.869C678.16 843.834 678.071 843.819 677.962 843.819C677.758 843.819 677.61 843.875 677.52 843.991C677.431 844.106 677.385 844.271 677.385 844.491V845.397C677.451 845.432 677.525 845.458 677.607 845.475C677.69 845.493 677.779 845.501 677.873 845.501C678.108 845.501 678.274 845.44 678.372 845.321C678.47 845.201 678.52 845.005 678.52 844.735V844.594V844.596Z" fill="white"/>
<path d="M680.247 844.798C680.249 844.931 680.265 845.039 680.289 845.129C680.313 845.218 680.356 845.292 680.415 845.349C680.474 845.405 680.552 845.447 680.652 845.473C680.752 845.499 680.879 845.51 681.035 845.51C681.159 845.51 681.27 845.503 681.371 845.488C681.471 845.473 681.556 845.46 681.623 845.444L681.567 845.76C681.492 845.786 681.395 845.808 681.273 845.823C681.151 845.838 681.029 845.847 680.911 845.847C680.707 845.847 680.535 845.823 680.395 845.775C680.256 845.727 680.145 845.658 680.062 845.564C679.98 845.473 679.919 845.357 679.882 845.22C679.845 845.083 679.827 844.928 679.827 844.752V844.571C679.827 844.408 679.847 844.258 679.884 844.123C679.921 843.988 679.982 843.873 680.062 843.775C680.143 843.679 680.247 843.603 680.374 843.55C680.5 843.498 680.652 843.472 680.829 843.472C681.005 843.472 681.142 843.496 681.257 843.546C681.373 843.596 681.466 843.664 681.538 843.746C681.61 843.829 681.662 843.927 681.695 844.038C681.728 844.149 681.743 844.267 681.743 844.391V844.55C681.743 844.652 681.728 844.719 681.697 844.75C681.667 844.78 681.604 844.796 681.51 844.796H680.249L680.247 844.798ZM680.809 843.801C680.615 843.801 680.474 843.855 680.382 843.962C680.291 844.069 680.245 844.247 680.241 844.495H681.336V844.382C681.336 844.195 681.297 844.051 681.218 843.951C681.14 843.851 681.003 843.801 680.809 843.801Z" fill="white"/>
<path d="M683.663 844.476C683.776 844.491 683.874 844.518 683.951 844.555C684.029 844.592 684.09 844.64 684.138 844.696C684.186 844.753 684.218 844.816 684.238 844.886C684.258 844.955 684.268 845.031 684.268 845.11V845.145C684.268 845.277 684.242 845.386 684.192 845.475C684.14 845.565 684.07 845.637 683.983 845.689C683.896 845.741 683.794 845.78 683.678 845.802C683.563 845.826 683.441 845.837 683.311 845.837C683.18 845.837 683.047 845.826 682.914 845.806C682.782 845.787 682.655 845.756 682.531 845.719L682.605 845.399C682.732 845.434 682.849 845.46 682.958 845.475C683.067 845.491 683.182 845.499 683.304 845.499C683.489 845.499 683.624 845.475 683.713 845.428C683.8 845.38 683.846 845.288 683.846 845.158C683.846 845.049 683.82 844.975 683.77 844.931C683.718 844.89 683.639 844.859 683.53 844.846L683.206 844.803C682.978 844.774 682.812 844.707 682.708 844.603C682.603 844.498 682.551 844.359 682.551 844.182V844.148C682.551 844.032 682.575 843.934 682.621 843.851C682.666 843.769 682.734 843.699 682.819 843.645C682.904 843.59 683.006 843.551 683.123 843.523C683.243 843.497 683.374 843.484 683.517 843.484C683.661 843.484 683.8 843.494 683.92 843.516C684.038 843.538 684.136 843.562 684.212 843.588L684.133 843.908C684.033 843.875 683.935 843.854 683.842 843.838C683.748 843.823 683.637 843.817 683.515 843.817C683.319 843.817 683.178 843.843 683.089 843.893C682.999 843.943 682.956 844.026 682.956 844.137C682.956 844.232 682.98 844.302 683.03 844.343C683.08 844.385 683.171 844.413 683.302 844.431L683.663 844.474V844.476Z" fill="white"/>
<path d="M685.716 843.862V845.035C685.716 845.205 685.749 845.327 685.812 845.399C685.877 845.471 685.988 845.505 686.145 845.505C686.212 845.505 686.271 845.501 686.321 845.494C686.371 845.488 686.413 845.481 686.45 845.475L686.397 845.782C686.35 845.799 686.293 845.812 686.223 845.823C686.154 845.834 686.086 845.838 686.019 845.838C685.897 845.838 685.788 845.825 685.699 845.797C685.607 845.769 685.533 845.723 685.472 845.66C685.411 845.597 685.368 845.514 685.337 845.41C685.309 845.305 685.294 845.177 685.294 845.024V843.86H684.85L684.902 843.527H685.294V842.961L685.716 842.9V843.529H686.441L686.384 843.862H685.716Z" fill="white"/>
<path d="M690.022 843.526L689.97 843.855H689.328V845.793H688.906V843.855H688.466L688.518 843.526H688.906C688.906 843.18 688.982 842.923 689.132 842.754C689.282 842.584 689.504 842.499 689.798 842.499C689.881 842.499 689.957 842.505 690.027 842.518C690.096 842.531 690.157 842.545 690.207 842.56L690.129 842.875C690.035 842.852 689.94 842.841 689.844 842.841C689.742 842.841 689.657 842.854 689.591 842.88C689.526 842.906 689.474 842.947 689.435 843.002C689.398 843.058 689.369 843.128 689.354 843.215C689.339 843.302 689.33 843.404 689.33 843.524H690.025L690.022 843.526Z" fill="white"/>
<path d="M690.529 845.096C690.529 844.961 690.549 844.85 690.59 844.76C690.632 844.671 690.69 844.599 690.767 844.543C690.843 844.486 690.934 844.447 691.039 844.423C691.143 844.399 691.261 844.388 691.391 844.388C691.522 844.388 691.644 844.401 691.748 844.429C691.851 844.458 691.936 844.506 692.003 844.577V844.401C692.003 844.29 691.988 844.197 691.96 844.12C691.931 844.044 691.888 843.983 691.831 843.937C691.774 843.892 691.707 843.859 691.626 843.839C691.546 843.82 691.454 843.809 691.352 843.809C691.25 843.809 691.143 843.818 691.034 843.833C690.925 843.848 690.823 843.87 690.73 843.892L690.786 843.563C690.869 843.539 690.965 843.519 691.078 843.502C691.191 843.485 691.311 843.476 691.437 843.476C691.757 843.476 691.999 843.548 692.164 843.691C692.33 843.835 692.412 844.048 692.412 844.334V845.797H692.047L692.012 845.555C691.938 845.659 691.842 845.733 691.724 845.777C691.605 845.821 691.474 845.84 691.326 845.84C691.065 845.84 690.867 845.783 690.732 845.672C690.597 845.561 690.529 845.387 690.529 845.15V845.098V845.096ZM690.939 845.117C690.939 845.25 690.976 845.348 691.05 845.411C691.124 845.477 691.252 845.507 691.435 845.507C691.518 845.507 691.592 845.5 691.661 845.485C691.731 845.47 691.79 845.446 691.84 845.413C691.89 845.379 691.929 845.337 691.957 845.283C691.986 845.231 692.001 845.163 692.001 845.085V845.05C692.001 844.932 691.96 844.843 691.879 844.78C691.798 844.717 691.668 844.686 691.489 844.686H691.415C691.248 844.686 691.126 844.717 691.05 844.78C690.973 844.843 690.936 844.943 690.936 845.08V845.115L690.939 845.117Z" fill="white"/>
<path d="M694.68 843.894C694.641 843.885 694.6 843.877 694.55 843.87C694.502 843.863 694.454 843.859 694.406 843.859C694.321 843.859 694.243 843.87 694.171 843.892C694.099 843.914 694.036 843.951 693.984 844.003C693.931 844.055 693.89 844.127 693.862 844.218C693.834 844.31 693.818 844.423 693.818 844.556V845.79H693.392V843.522H693.762L693.797 843.824C693.871 843.713 693.962 843.631 694.071 843.574C694.18 843.517 694.315 843.491 694.474 843.491C694.585 843.491 694.68 843.506 694.759 843.535L694.68 843.89V843.894Z" fill="white"/>
<path d="M695.76 844.798C695.762 844.931 695.777 845.039 695.801 845.129C695.825 845.218 695.869 845.292 695.928 845.349C695.986 845.405 696.065 845.447 696.165 845.473C696.265 845.499 696.391 845.51 696.548 845.51C696.672 845.51 696.783 845.503 696.883 845.488C696.983 845.473 697.068 845.46 697.136 845.444L697.079 845.76C697.005 845.786 696.907 845.808 696.785 845.823C696.663 845.838 696.542 845.847 696.424 845.847C696.219 845.847 696.047 845.823 695.908 845.775C695.769 845.727 695.658 845.658 695.575 845.564C695.492 845.473 695.431 845.357 695.394 845.22C695.357 845.083 695.34 844.928 695.34 844.752V844.571C695.34 844.408 695.359 844.258 695.396 844.123C695.433 843.988 695.494 843.873 695.575 843.775C695.655 843.679 695.76 843.603 695.886 843.55C696.013 843.498 696.165 843.472 696.341 843.472C696.518 843.472 696.655 843.496 696.77 843.546C696.885 843.596 696.979 843.664 697.051 843.746C697.123 843.829 697.175 843.927 697.208 844.038C697.24 844.149 697.256 844.267 697.256 844.391V844.55C697.256 844.652 697.24 844.719 697.21 844.75C697.179 844.78 697.116 844.796 697.023 844.796H695.762L695.76 844.798ZM696.322 843.801C696.128 843.801 695.986 843.855 695.895 843.962C695.804 844.069 695.758 844.247 695.753 844.495H696.848V844.382C696.848 844.195 696.809 844.051 696.731 843.951C696.653 843.851 696.515 843.801 696.322 843.801Z" fill="white"/>
<path d="M699.841 842.629C700.022 842.629 700.114 842.714 700.114 842.883C700.114 843.053 700.022 843.138 699.841 843.138C699.661 843.138 699.569 843.053 699.569 842.883C699.569 842.714 699.661 842.629 699.841 842.629ZM699.63 843.525H700.057V845.794H699.63V843.525Z" fill="white"/>
<path d="M702.068 844.476C702.181 844.491 702.279 844.518 702.355 844.555C702.433 844.592 702.494 844.64 702.542 844.696C702.59 844.753 702.623 844.816 702.642 844.886C702.662 844.955 702.673 845.031 702.673 845.11V845.145C702.673 845.277 702.647 845.386 702.597 845.475C702.544 845.565 702.475 845.637 702.388 845.689C702.3 845.741 702.198 845.78 702.083 845.802C701.967 845.826 701.845 845.837 701.715 845.837C701.584 845.837 701.451 845.826 701.319 845.806C701.186 845.787 701.06 845.756 700.936 845.719L701.01 845.399C701.136 845.434 701.253 845.46 701.362 845.475C701.471 845.491 701.586 845.499 701.708 845.499C701.893 845.499 702.028 845.475 702.118 845.428C702.205 845.38 702.25 845.288 702.25 845.158C702.25 845.049 702.224 844.975 702.174 844.931C702.122 844.89 702.044 844.859 701.935 844.846L701.61 844.803C701.382 844.774 701.216 844.707 701.112 844.603C701.007 844.498 700.955 844.359 700.955 844.182V844.148C700.955 844.032 700.979 843.934 701.025 843.851C701.071 843.769 701.138 843.699 701.223 843.645C701.308 843.59 701.41 843.551 701.528 843.523C701.647 843.497 701.778 843.484 701.922 843.484C702.065 843.484 702.205 843.494 702.324 843.516C702.442 843.538 702.54 843.562 702.616 843.588L702.538 843.908C702.438 843.875 702.34 843.854 702.246 843.838C702.152 843.823 702.041 843.817 701.92 843.817C701.724 843.817 701.582 843.843 701.493 843.893C701.404 843.943 701.36 844.026 701.36 844.137C701.36 844.232 701.384 844.302 701.434 844.343C701.484 844.385 701.576 844.413 701.706 844.431L702.068 844.474V844.476Z" fill="white"/>
<path d="M704.997 845.795V842.529H705.424V843.768C705.498 843.674 705.594 843.603 705.714 843.55C705.833 843.498 705.97 843.474 706.123 843.474C706.242 843.474 706.354 843.489 706.454 843.52C706.554 843.55 706.641 843.598 706.713 843.666C706.785 843.733 706.841 843.814 706.88 843.914C706.92 844.014 706.939 844.132 706.939 844.271V845.797H706.512V844.412C706.512 844.201 706.473 844.051 706.399 843.962C706.323 843.873 706.192 843.827 706.007 843.827C705.822 843.827 705.668 843.877 705.57 843.975C705.472 844.073 705.422 844.236 705.422 844.465V845.797H704.995L704.997 845.795Z" fill="white"/>
<path d="M708.276 844.798C708.278 844.931 708.293 845.039 708.317 845.129C708.341 845.218 708.384 845.292 708.443 845.349C708.502 845.405 708.58 845.447 708.681 845.473C708.781 845.499 708.907 845.51 709.064 845.51C709.188 845.51 709.299 845.503 709.399 845.488C709.499 845.473 709.584 845.46 709.651 845.444L709.595 845.76C709.521 845.786 709.423 845.808 709.301 845.823C709.179 845.838 709.057 845.847 708.94 845.847C708.735 845.847 708.563 845.823 708.424 845.775C708.284 845.727 708.173 845.658 708.091 845.564C708.008 845.473 707.947 845.357 707.91 845.22C707.873 845.083 707.855 844.928 707.855 844.752V844.571C707.855 844.408 707.875 844.258 707.912 844.123C707.949 843.988 708.01 843.873 708.091 843.775C708.171 843.679 708.276 843.603 708.402 843.55C708.528 843.498 708.681 843.472 708.857 843.472C709.033 843.472 709.17 843.496 709.286 843.546C709.401 843.596 709.495 843.664 709.567 843.746C709.638 843.829 709.691 843.927 709.723 844.038C709.756 844.149 709.771 844.267 709.771 844.391V844.55C709.771 844.652 709.756 844.719 709.725 844.75C709.695 844.78 709.632 844.796 709.538 844.796H708.278L708.276 844.798ZM708.837 843.801C708.644 843.801 708.502 843.855 708.411 843.962C708.319 844.069 708.273 844.247 708.269 844.495H709.364V844.382C709.364 844.195 709.325 844.051 709.247 843.951C709.168 843.851 709.031 843.801 708.837 843.801Z" fill="white"/>
<path d="M711.98 843.894C711.941 843.885 711.9 843.877 711.85 843.87C711.802 843.863 711.754 843.859 711.706 843.859C711.621 843.859 711.543 843.87 711.471 843.892C711.399 843.914 711.336 843.951 711.284 844.003C711.231 844.055 711.19 844.127 711.162 844.218C711.133 844.31 711.118 844.423 711.118 844.556V845.79H710.691V843.522H711.061L711.096 843.824C711.17 843.713 711.262 843.631 711.371 843.574C711.479 843.517 711.614 843.491 711.773 843.491C711.884 843.491 711.98 843.506 712.059 843.535L711.98 843.89V843.894Z" fill="white"/>
<path d="M713.062 844.798C713.064 844.931 713.079 845.039 713.103 845.129C713.127 845.218 713.171 845.292 713.229 845.349C713.288 845.405 713.367 845.447 713.467 845.473C713.567 845.499 713.693 845.51 713.85 845.51C713.974 845.51 714.085 845.503 714.185 845.488C714.285 845.473 714.37 845.46 714.438 845.444L714.381 845.76C714.307 845.786 714.209 845.808 714.087 845.823C713.965 845.838 713.843 845.847 713.726 845.847C713.521 845.847 713.349 845.823 713.21 845.775C713.07 845.727 712.959 845.658 712.877 845.564C712.794 845.473 712.733 845.357 712.696 845.22C712.659 845.083 712.642 844.928 712.642 844.752V844.571C712.642 844.408 712.661 844.258 712.698 844.123C712.735 843.988 712.796 843.873 712.877 843.775C712.957 843.679 713.062 843.603 713.188 843.55C713.314 843.498 713.467 843.472 713.643 843.472C713.819 843.472 713.956 843.496 714.072 843.546C714.187 843.596 714.281 843.664 714.353 843.746C714.425 843.829 714.477 843.927 714.509 844.038C714.542 844.149 714.557 844.267 714.557 844.391V844.55C714.557 844.652 714.542 844.719 714.512 844.75C714.481 844.78 714.418 844.796 714.324 844.796H713.064L713.062 844.798ZM713.623 843.801C713.43 843.801 713.288 843.855 713.197 843.962C713.105 844.069 713.06 844.247 713.055 844.495H714.15V844.382C714.15 844.195 714.111 844.051 714.033 843.951C713.954 843.851 713.817 843.801 713.623 843.801Z" fill="white"/>
<path d="M662.672 838.452C661.318 836.954 660.647 835.33 660.647 833.547C660.647 831.764 661.318 830.14 662.672 828.643C664.098 827.289 665.737 826.618 667.577 826.618C669.416 826.618 670.984 827.289 672.481 828.643C673.293 829.47 673.851 830.395 674.177 831.438C673.735 831.68 673.28 831.808 672.795 831.808C672.011 831.808 671.325 831.523 670.742 830.968L670.444 830.682C669.616 829.899 668.661 829.498 667.579 829.485C666.538 829.485 665.583 829.884 664.714 830.682C663.93 831.551 663.53 832.507 663.53 833.547C663.53 834.588 663.93 835.544 664.714 836.412C665.583 837.211 666.538 837.609 667.579 837.609C668.619 837.609 669.616 837.211 670.444 836.412L670.742 836.127C671.227 835.657 671.654 835.4 672.024 835.356C672.394 835.313 672.638 835.285 672.766 835.285C673.265 835.285 673.735 835.413 674.177 835.655C673.848 836.695 673.293 837.623 672.481 838.45C670.984 839.804 669.36 840.474 667.577 840.474C665.794 840.474 664.098 839.804 662.672 838.45V838.452Z" fill="white"/>
<path d="M676.586 838.452C675.232 837.098 674.562 835.459 674.562 833.547C674.562 831.636 675.232 829.997 676.586 828.643C677.94 827.289 679.579 826.618 681.506 826.618C683.433 826.618 685.041 827.289 686.395 828.643C687.749 829.997 688.435 831.623 688.435 833.547C688.435 835.472 687.752 837.098 686.395 838.452C685.041 839.806 683.415 840.476 681.506 840.476C679.597 840.476 677.942 839.806 676.586 838.452ZM684.358 836.412C685.157 835.628 685.555 834.673 685.555 833.547C685.555 832.422 685.157 831.466 684.358 830.682C683.572 829.884 682.618 829.485 681.506 829.485C680.394 829.485 679.425 829.884 678.626 830.682C677.842 831.466 677.442 832.422 677.442 833.547C677.442 834.673 677.842 835.628 678.626 836.412C679.425 837.196 680.378 837.594 681.506 837.594C682.634 837.594 683.572 837.196 684.358 836.412Z" fill="white"/>
<path d="M699.15 827.519C698.993 827.961 698.764 828.331 698.451 828.66C697.896 829.215 697.21 829.5 696.411 829.5H695.74C694.613 829.5 693.659 829.898 692.876 830.684C692.077 831.468 691.678 832.423 691.678 833.549V837.613C691.678 838.083 691.578 838.525 691.365 838.926C690.779 839.967 689.926 840.48 688.813 840.48V826.622C689.597 826.622 690.283 826.907 690.838 827.462C691.051 827.676 691.223 827.904 691.365 828.176C692.621 827.136 694.073 826.622 695.743 826.622H699.293C699.293 826.935 699.25 827.236 699.15 827.521V827.519Z" fill="white"/>
<path d="M704.327 840.476C702.415 840.476 700.776 839.806 699.422 838.452C698.068 837.098 697.397 835.459 697.397 833.547C697.397 831.636 698.068 829.997 699.422 828.643C700.776 827.289 702.415 826.618 704.327 826.618C706.238 826.618 707.877 827.289 709.231 828.643C710.187 829.598 710.814 830.752 711.114 832.106C711.214 832.576 711.256 833.047 711.256 833.547C711.256 834.048 711.212 834.516 711.114 834.973H700.992C700.992 834.19 701.277 833.504 701.832 832.949C702.387 832.394 703.073 832.108 703.856 832.108H708.119C707.905 831.553 707.605 831.081 707.191 830.669C706.408 829.886 705.452 829.485 704.327 829.485C703.201 829.485 702.245 829.884 701.462 830.682C700.678 831.466 700.278 832.422 700.278 833.547C700.278 834.673 700.678 835.628 701.462 836.412C702.245 837.196 702.968 837.368 704.298 837.62C704.298 837.62 706.612 838.095 709.112 837.418C711.611 836.741 709.159 838.506 709.159 838.506L704.375 840.476" fill="white"/>
<path d="M725.966 829.784H722.615C722.615 829.427 722.7 829.085 722.872 828.772C723.442 827.788 724.47 827.189 725.966 826.948V826.719C725.966 825.208 726.407 823.854 727.276 822.655C728.715 820.743 730.585 819.79 732.893 819.79H737.07C737.07 820.574 736.785 821.259 736.215 821.814C735.659 822.37 734.974 822.655 734.19 822.655H732.893C731.767 822.655 730.811 823.053 730.028 823.852C729.242 824.636 728.843 825.591 728.843 826.717V826.902H735.973C735.973 827.701 735.574 828.384 734.776 828.942C733.977 829.497 733.008 829.782 731.88 829.782H728.843V837.61C728.843 838.394 728.558 839.08 727.988 839.635C727.433 840.192 726.747 840.475 725.963 840.475V829.782L725.966 829.784Z" fill="white"/>
<path d="M745.483 838.926C745.269 838.528 745.169 838.086 745.169 837.613V833.549C745.169 832.423 744.771 831.468 743.972 830.684C743.186 829.885 742.232 829.487 741.107 829.487C739.981 829.487 739.026 829.885 738.242 830.684C737.458 831.468 737.058 832.423 737.058 833.549C737.058 834.674 737.458 835.63 738.242 836.429C739.026 837.213 739.981 837.613 741.107 837.613H742.289C743.471 837.613 744.342 838.184 744.927 839.34C745.084 839.697 745.169 840.067 745.169 840.48H741.107C738.797 840.48 736.929 839.525 735.488 837.615C734.62 836.418 734.178 835.064 734.178 833.551C734.178 831.627 734.848 830.001 736.202 828.646C737.556 827.292 739.196 826.622 741.107 826.622H741.464C741.706 826.637 741.962 826.665 742.204 826.707C742.533 826.75 742.79 826.807 743.003 826.877C743.273 826.948 743.517 827.033 743.745 827.134C744.244 827.347 744.701 827.604 745.128 827.904L745.171 827.932C745.469 828.146 745.742 828.39 746.012 828.646C747.366 830.001 748.036 831.627 748.036 833.551V840.48C746.924 840.48 746.068 839.967 745.485 838.926H745.483Z" fill="white"/>
<path d="M758.753 827.519C758.596 827.961 758.368 828.331 758.054 828.66C757.499 829.215 756.813 829.5 756.014 829.5H755.344C754.216 829.5 753.263 829.898 752.479 830.684C751.68 831.468 751.282 832.423 751.282 833.549V837.613C751.282 838.083 751.182 838.525 750.968 838.926C750.383 839.967 749.529 840.48 748.417 840.48V826.622C749.201 826.622 749.886 826.907 750.442 827.462C750.655 827.676 750.827 827.904 750.968 828.176C752.224 827.136 753.676 826.622 755.346 826.622H758.897C758.897 826.935 758.853 827.236 758.753 827.521V827.519Z" fill="white"/>
<path d="M763.928 840.476C762.017 840.476 760.378 839.806 759.024 838.452C757.67 837.098 756.999 835.459 756.999 833.547C756.999 831.636 757.67 829.997 759.024 828.643C760.378 827.289 762.017 826.618 763.928 826.618C765.84 826.618 767.479 827.289 768.833 828.643C769.788 829.598 770.415 830.752 770.716 832.106C770.816 832.576 770.857 833.047 770.857 833.547C770.857 834.048 770.814 834.516 770.716 834.973H760.593C760.593 834.19 760.878 833.504 761.433 832.949C761.989 832.394 762.674 832.108 763.458 832.108H767.72C767.507 831.553 767.207 831.081 766.793 830.669C766.009 829.886 765.054 829.485 763.928 829.485C762.803 829.485 761.847 829.884 761.063 830.682C760.28 831.466 759.879 832.422 759.879 833.547C759.879 834.673 760.28 835.628 761.063 836.412C761.847 837.196 762.803 837.594 763.928 837.594H766.665C767.492 837.594 768.188 837.895 768.761 838.506C769.275 839.061 769.532 839.719 769.532 840.474H763.928V840.476Z" fill="white"/>
<path d="M735.117 811.721L731.732 808.547L730.021 808.606C730.021 808.606 732.847 811.623 733.227 812.37C732.435 812.677 731.551 813.06 730.563 813.539C730.53 813.543 730.498 813.55 730.467 813.556C729.231 812.492 729.163 812.533 729.163 812.533L728.49 812.657C728.49 812.657 728.926 813.134 729.176 813.907C727.095 814.664 725.284 816.247 723.947 817.954C722.001 820.438 720.802 822.73 719.21 825.451C717.39 828.56 715.788 831.906 713.679 834.64C711.621 837.309 707.551 838.271 704.011 837.59C703.118 837.418 703.43 840.309 704.327 840.481L704.699 840.509C712.664 840.977 714.994 836.41 718.873 829.174C720.625 825.904 721.357 823.777 723.325 820.845C724.859 818.555 726.163 815.86 729.322 814.547C729.37 814.928 729.357 815.352 729.239 815.81C729.836 815.866 729.969 815.879 729.995 815.881L730.563 814.462C730.563 814.462 732.196 814.301 733.682 813.966C733.541 815.111 733.186 817.719 732.812 818.714L734.275 817.875L735.374 813.524C736.926 813.054 738.498 812.377 739.329 811.434C739.329 811.434 738.319 810.796 735.121 811.73L735.117 811.721Z" fill="white"/>
<path d="M759.488 838.826C753.053 842.588 746.435 845.701 739.144 847.558C734.986 848.616 729.966 849.045 725.933 847.218C726.155 846.864 726.462 846.513 726.893 846.217C726.472 845.773 726.383 845.679 726.368 845.662L724.999 846.361C724.999 846.361 723.658 845.401 722.31 844.671C723.177 843.899 725.171 842.159 726.113 841.656L724.45 841.323L720.736 843.89C719.249 843.217 717.612 842.69 716.358 842.854C716.358 842.854 716.7 844.005 719.737 845.416L720.198 850.059L721.533 851.148C721.533 851.148 721.394 846.994 721.598 846.178C722.406 846.472 723.333 846.768 724.407 847.062C724.428 847.092 724.452 847.123 724.481 847.153C724.705 848.729 724.783 848.745 724.783 848.745L725.375 849.097C725.375 849.097 725.36 848.533 725.621 847.85C731.989 850.993 739.34 849.289 745.664 847.114C748.921 845.993 752.104 844.606 755.16 843.039C757.657 841.759 759.962 840.109 762.531 838.968C764.488 838.097 768.398 836.952 768.831 839.911L769.473 839.871C768.518 834.679 762.379 837.144 759.488 838.833V838.826Z" fill="white"/>
<path d="M771.798 840.52C771.798 839.736 772.08 839.05 772.628 838.495C773.176 837.94 773.854 837.654 774.628 837.654H775.922C776.64 837.654 777.216 837.069 777.216 836.343C777.216 835.618 776.638 835.03 775.922 835.03C775.47 835.03 775.036 834.958 774.628 834.817C773.909 834.575 773.303 834.161 772.811 833.591C772.133 832.807 771.796 831.894 771.796 830.838C771.796 829.682 772.189 828.7 772.993 827.885C773.798 827.071 774.782 826.659 775.922 826.659H780.063C780.063 827.371 779.837 828.001 779.373 828.528C778.794 829.198 778.078 829.54 777.218 829.54H775.924C775.206 829.54 774.63 830.111 774.63 830.838C774.63 831.566 775.208 832.149 775.924 832.149C777.193 832.149 778.233 832.635 779.037 833.591C779.728 834.375 780.065 835.287 780.065 836.343C780.065 837.498 779.657 838.482 778.855 839.296C778.053 840.111 777.066 840.522 775.926 840.522H771.8L771.798 840.52Z" fill="white"/>
<circle cx="720" cy="833" r="224" stroke="#0E96D1" stroke-width="2.5" stroke-linecap="round" stroke-linejoin="round" stroke-dasharray="1 12"/>
<circle cx="495.5" cy="830.5" r="56.5" fill="white"/>
<path d="M484 836V824.8H492.656V826.816H486.32V829.456H490.528V831.408H486.32V836H484ZM494.219 836V824.8H496.539V836H494.219ZM501.634 836V826.848H497.858V824.8H507.714V826.848H503.954V836H501.634Z" fill="#0092D2"/>
<circle cx="944.5" cy="830.5" r="56.5" fill="white"/>
<path d="M926.84 837.176C926.008 837.176 925.235 837.032 924.52 836.744C923.805 836.445 923.176 836.035 922.632 835.512C922.088 834.979 921.661 834.365 921.352 833.672C921.053 832.968 920.904 832.211 920.904 831.4C920.904 830.589 921.053 829.837 921.352 829.144C921.661 828.44 922.083 827.827 922.616 827.304C923.149 826.771 923.773 826.36 924.488 826.072C925.213 825.773 925.987 825.624 926.808 825.624C927.736 825.624 928.611 825.811 929.432 826.184C930.253 826.547 930.931 827.059 931.464 827.72L929.848 829.208C929.464 828.728 929.011 828.365 928.488 828.12C927.965 827.875 927.405 827.752 926.808 827.752C926.307 827.752 925.843 827.848 925.416 828.04C924.989 828.221 924.616 828.477 924.296 828.808C923.976 829.128 923.725 829.512 923.544 829.96C923.373 830.397 923.288 830.877 923.288 831.4C923.288 831.923 923.379 832.408 923.56 832.856C923.741 833.304 923.992 833.693 924.312 834.024C924.643 834.344 925.021 834.6 925.448 834.792C925.885 834.973 926.36 835.064 926.872 835.064C927.405 835.064 927.885 834.968 928.312 834.776C928.739 834.573 929.096 834.296 929.384 833.944C929.683 833.581 929.88 833.176 929.976 832.728H926.664V830.712H932.456V831.416C932.456 832.248 932.312 833.016 932.024 833.72C931.747 834.413 931.357 835.021 930.856 835.544C930.355 836.056 929.763 836.456 929.08 836.744C928.397 837.032 927.651 837.176 926.84 837.176ZM933.895 837V828.664H936.087V829.592C936.354 829.229 936.674 828.952 937.047 828.76C937.421 828.568 937.842 828.472 938.311 828.472C938.717 828.483 939.021 828.547 939.223 828.664V830.584C939.063 830.509 938.887 830.456 938.695 830.424C938.503 830.381 938.306 830.36 938.103 830.36C937.677 830.36 937.287 830.467 936.935 830.68C936.583 830.893 936.301 831.197 936.087 831.592V837H933.895ZM944.162 837.16C943.33 837.16 942.578 836.968 941.906 836.584C941.234 836.2 940.701 835.683 940.306 835.032C939.912 834.381 939.714 833.651 939.714 832.84C939.714 832.029 939.906 831.299 940.29 830.648C940.685 829.987 941.218 829.464 941.89 829.08C942.573 828.696 943.33 828.504 944.162 828.504C944.994 828.504 945.746 828.696 946.418 829.08C947.101 829.464 947.634 829.987 948.018 830.648C948.413 831.299 948.61 832.029 948.61 832.84C948.61 833.651 948.413 834.381 948.018 835.032C947.634 835.683 947.106 836.2 946.434 836.584C945.762 836.968 945.005 837.16 944.162 837.16ZM944.162 835.256C944.6 835.256 944.989 835.149 945.33 834.936C945.682 834.723 945.96 834.435 946.162 834.072C946.376 833.699 946.482 833.288 946.482 832.84C946.482 832.381 946.376 831.971 946.162 831.608C945.96 831.245 945.682 830.957 945.33 830.744C944.989 830.52 944.6 830.408 944.162 830.408C943.736 830.408 943.346 830.52 942.994 830.744C942.642 830.957 942.365 831.245 942.162 831.608C941.96 831.971 941.858 832.381 941.858 832.84C941.858 833.288 941.96 833.699 942.162 834.072C942.365 834.435 942.642 834.723 942.994 834.936C943.346 835.149 943.736 835.256 944.162 835.256ZM953.19 837.16C952.55 837.16 951.979 837.021 951.478 836.744C950.987 836.456 950.598 836.061 950.31 835.56C950.032 835.059 949.894 834.483 949.894 833.832V828.664H952.086V833.512C952.086 834.045 952.24 834.472 952.55 834.792C952.87 835.112 953.296 835.272 953.83 835.272C954.192 835.272 954.518 835.203 954.806 835.064C955.104 834.915 955.35 834.707 955.542 834.44V828.664H957.734V837H955.542V836.328C954.902 836.883 954.118 837.16 953.19 837.16ZM959.442 840.264V828.664H961.602V829.352C962.285 828.819 963.074 828.552 963.97 828.552C964.759 828.552 965.474 828.744 966.114 829.128C966.754 829.512 967.261 830.029 967.634 830.68C968.018 831.32 968.21 832.04 968.21 832.84C968.21 833.64 968.018 834.365 967.634 835.016C967.25 835.656 966.733 836.168 966.082 836.552C965.431 836.925 964.706 837.112 963.906 837.112C963.49 837.112 963.09 837.059 962.706 836.952C962.322 836.835 961.965 836.669 961.634 836.456V840.264H959.442ZM963.618 835.256C964.077 835.256 964.487 835.149 964.85 834.936C965.223 834.723 965.517 834.435 965.73 834.072C965.943 833.709 966.05 833.299 966.05 832.84C966.05 832.381 965.943 831.971 965.73 831.608C965.517 831.235 965.223 830.947 964.85 830.744C964.487 830.531 964.077 830.424 963.618 830.424C963.213 830.424 962.839 830.493 962.498 830.632C962.167 830.76 961.879 830.957 961.634 831.224V834.472C961.869 834.717 962.157 834.909 962.498 835.048C962.85 835.187 963.223 835.256 963.618 835.256Z" fill="#0092D2"/>
<path d="M630.813 551V537H633.933L638.033 545.5L642.113 537H645.233V551H642.973V540.04L638.013 550L633.033 539.98V551H630.813ZM651.726 551.16C651.033 551.16 650.426 551.007 649.906 550.7C649.386 550.393 648.973 549.973 648.666 549.44C648.373 548.907 648.226 548.287 648.226 547.58V540.98H650.506V546.92C650.506 547.667 650.7 548.26 651.086 548.7C651.486 549.127 652.026 549.34 652.706 549.34C653.16 549.34 653.566 549.24 653.926 549.04C654.3 548.84 654.62 548.54 654.886 548.14V540.98H657.146V551H654.886V549.38C654.5 549.967 654.04 550.413 653.506 550.72C652.973 551.013 652.38 551.16 651.726 551.16ZM659.947 551V536.66L662.207 536.26V551H659.947ZM669.306 551.2C668.293 551.2 667.526 550.967 667.006 550.5C666.486 550.02 666.226 549.32 666.226 548.4V542.78H664.226V540.98H666.226V538.22L668.486 537.74V540.98H671.266V542.78H668.486V547.9C668.486 548.393 668.593 548.747 668.806 548.96C669.019 549.16 669.379 549.26 669.886 549.26C670.113 549.26 670.319 549.247 670.506 549.22C670.706 549.18 670.953 549.113 671.246 549.02V550.92C670.966 551.013 670.646 551.08 670.286 551.12C669.939 551.173 669.613 551.2 669.306 551.2ZM673.247 551V540.98H675.507V551H673.247ZM674.387 538.94C674.001 538.94 673.667 538.807 673.387 538.54C673.121 538.26 672.987 537.933 672.987 537.56C672.987 537.173 673.121 536.847 673.387 536.58C673.667 536.3 674.001 536.16 674.387 536.16C674.774 536.16 675.101 536.3 675.367 536.58C675.647 536.847 675.787 537.167 675.787 537.54C675.787 537.927 675.647 538.26 675.367 538.54C675.101 538.807 674.774 538.94 674.387 538.94ZM678.306 555.18V540.98H680.526V542.4C680.886 541.92 681.333 541.553 681.866 541.3C682.413 541.033 683.006 540.9 683.646 540.9C684.5 540.9 685.266 541.127 685.946 541.58C686.626 542.033 687.166 542.647 687.566 543.42C687.966 544.193 688.166 545.053 688.166 546C688.166 546.947 687.96 547.807 687.546 548.58C687.133 549.353 686.573 549.967 685.866 550.42C685.16 550.873 684.373 551.1 683.506 551.1C682.906 551.1 682.353 550.993 681.846 550.78C681.353 550.553 680.926 550.233 680.566 549.82V555.18H678.306ZM682.966 549.22C683.54 549.22 684.046 549.08 684.486 548.8C684.94 548.52 685.293 548.14 685.546 547.66C685.813 547.167 685.946 546.613 685.946 546C685.946 545.387 685.813 544.84 685.546 544.36C685.293 543.88 684.94 543.5 684.486 543.22C684.046 542.94 683.54 542.8 682.966 542.8C682.473 542.8 682.02 542.9 681.606 543.1C681.193 543.287 680.846 543.56 680.566 543.92V548.1C680.86 548.447 681.213 548.72 681.626 548.92C682.04 549.12 682.486 549.22 682.966 549.22ZM690.533 551V536.66L692.793 536.26V551H690.533ZM700.232 551.2C699.272 551.2 698.405 550.973 697.632 550.52C696.859 550.053 696.245 549.433 695.792 548.66C695.339 547.873 695.112 546.987 695.112 546C695.112 545.013 695.325 544.133 695.752 543.36C696.179 542.587 696.759 541.973 697.492 541.52C698.239 541.053 699.065 540.82 699.972 540.82C700.905 540.82 701.725 541.047 702.432 541.5C703.152 541.953 703.712 542.567 704.112 543.34C704.525 544.113 704.732 545 704.732 546V546.54H697.332C697.412 547.087 697.585 547.573 697.852 548C698.132 548.413 698.485 548.74 698.912 548.98C699.352 549.22 699.825 549.34 700.332 549.34C700.799 549.34 701.239 549.26 701.652 549.1C702.079 548.927 702.432 548.693 702.712 548.4L704.192 549.74C703.579 550.247 702.952 550.62 702.312 550.86C701.685 551.087 700.992 551.2 700.232 551.2ZM697.352 545.14H702.592C702.512 544.66 702.345 544.233 702.092 543.86C701.852 543.487 701.545 543.193 701.172 542.98C700.812 542.767 700.412 542.66 699.972 542.66C699.532 542.66 699.125 542.767 698.752 542.98C698.392 543.18 698.092 543.467 697.852 543.84C697.612 544.213 697.445 544.647 697.352 545.14ZM711.809 551V537H721.869V539.04H714.209V543.04H719.489V545.04H714.209V551H711.809ZM725.975 551.18C725.282 551.18 724.662 551.053 724.115 550.8C723.582 550.533 723.162 550.173 722.855 549.72C722.562 549.253 722.415 548.72 722.415 548.12C722.415 547.52 722.568 547 722.875 546.56C723.195 546.12 723.642 545.78 724.215 545.54C724.788 545.3 725.468 545.18 726.255 545.18C726.722 545.18 727.182 545.233 727.635 545.34C728.088 545.433 728.528 545.593 728.955 545.82V544.7C728.955 544.033 728.762 543.533 728.375 543.2C728.002 542.867 727.428 542.7 726.655 542.7C726.242 542.7 725.795 542.767 725.315 542.9C724.848 543.02 724.322 543.213 723.735 543.48L722.935 541.84C724.402 541.16 725.788 540.82 727.095 540.82C728.402 540.82 729.408 541.14 730.115 541.78C730.835 542.407 731.195 543.3 731.195 544.46V551H728.955V549.96C728.528 550.373 728.068 550.68 727.575 550.88C727.082 551.08 726.548 551.18 725.975 551.18ZM724.535 548.08C724.535 548.547 724.722 548.913 725.095 549.18C725.468 549.447 725.968 549.58 726.595 549.58C727.048 549.58 727.468 549.513 727.855 549.38C728.255 549.233 728.622 549.02 728.955 548.74V547.12C728.608 546.96 728.248 546.84 727.875 546.76C727.502 546.68 727.095 546.64 726.655 546.64C726.002 546.64 725.482 546.767 725.095 547.02C724.722 547.273 724.535 547.627 724.535 548.08ZM733.931 551V540.98H736.191V543.14C736.485 542.38 736.865 541.8 737.331 541.4C737.798 541 738.338 540.8 738.951 540.8C739.138 540.813 739.305 540.833 739.451 540.86C739.598 540.873 739.758 540.92 739.931 541V542.98C739.758 542.9 739.558 542.84 739.331 542.8C739.118 542.76 738.905 542.74 738.691 542.74C738.145 542.74 737.651 542.887 737.211 543.18C736.785 543.473 736.445 543.88 736.191 544.4V551H733.931ZM745.974 551.2C745.014 551.2 744.147 550.973 743.374 550.52C742.601 550.053 741.987 549.433 741.534 548.66C741.081 547.873 740.854 546.987 740.854 546C740.854 545.013 741.067 544.133 741.494 543.36C741.921 542.587 742.501 541.973 743.234 541.52C743.981 541.053 744.807 540.82 745.714 540.82C746.647 540.82 747.467 541.047 748.174 541.5C748.894 541.953 749.454 542.567 749.854 543.34C750.267 544.113 750.474 545 750.474 546V546.54H743.074C743.154 547.087 743.327 547.573 743.594 548C743.874 548.413 744.227 548.74 744.654 548.98C745.094 549.22 745.567 549.34 746.074 549.34C746.541 549.34 746.981 549.26 747.394 549.1C747.821 548.927 748.174 548.693 748.454 548.4L749.934 549.74C749.321 550.247 748.694 550.62 748.054 550.86C747.427 551.087 746.734 551.2 745.974 551.2ZM743.094 545.14H748.334C748.254 544.66 748.087 544.233 747.834 543.86C747.594 543.487 747.287 543.193 746.914 542.98C746.554 542.767 746.154 542.66 745.714 542.66C745.274 542.66 744.867 542.767 744.494 542.98C744.134 543.18 743.834 543.467 743.594 543.84C743.354 544.213 743.187 544.647 743.094 545.14ZM761.051 551V539.08H756.371V537H768.131V539.08H763.451V551H761.051ZM769.886 555.38C769.526 555.38 769.152 555.333 768.766 555.24V553.28C768.899 553.307 769.039 553.327 769.186 553.34C769.346 553.353 769.499 553.36 769.646 553.36C770.046 553.36 770.372 553.267 770.626 553.08C770.879 552.893 771.092 552.607 771.266 552.22L771.726 551.1L767.946 540.98H770.446L773.006 548.4L775.786 540.98H778.266L773.466 552.74C773.212 553.38 772.926 553.893 772.606 554.28C772.286 554.667 771.906 554.947 771.466 555.12C771.039 555.293 770.512 555.38 769.886 555.38ZM779.908 555.18V540.98H782.128V542.4C782.488 541.92 782.934 541.553 783.468 541.3C784.014 541.033 784.608 540.9 785.248 540.9C786.101 540.9 786.868 541.127 787.548 541.58C788.228 542.033 788.768 542.647 789.168 543.42C789.568 544.193 789.768 545.053 789.768 546C789.768 546.947 789.561 547.807 789.148 548.58C788.734 549.353 788.174 549.967 787.468 550.42C786.761 550.873 785.974 551.1 785.108 551.1C784.508 551.1 783.954 550.993 783.448 550.78C782.954 550.553 782.528 550.233 782.168 549.82V555.18H779.908ZM784.568 549.22C785.141 549.22 785.648 549.08 786.088 548.8C786.541 548.52 786.894 548.14 787.148 547.66C787.414 547.167 787.548 546.613 787.548 546C787.548 545.387 787.414 544.84 787.148 544.36C786.894 543.88 786.541 543.5 786.088 543.22C785.648 542.94 785.141 542.8 784.568 542.8C784.074 542.8 783.621 542.9 783.208 543.1C782.794 543.287 782.448 543.56 782.168 543.92V548.1C782.461 548.447 782.814 548.72 783.228 548.92C783.641 549.12 784.088 549.22 784.568 549.22ZM796.794 551.2C795.834 551.2 794.968 550.973 794.194 550.52C793.421 550.053 792.808 549.433 792.354 548.66C791.901 547.873 791.674 546.987 791.674 546C791.674 545.013 791.888 544.133 792.314 543.36C792.741 542.587 793.321 541.973 794.054 541.52C794.801 541.053 795.628 540.82 796.534 540.82C797.468 540.82 798.288 541.047 798.994 541.5C799.714 541.953 800.274 542.567 800.674 543.34C801.088 544.113 801.294 545 801.294 546V546.54H793.894C793.974 547.087 794.148 547.573 794.414 548C794.694 548.413 795.048 548.74 795.474 548.98C795.914 549.22 796.388 549.34 796.894 549.34C797.361 549.34 797.801 549.26 798.214 549.1C798.641 548.927 798.994 548.693 799.274 548.4L800.754 549.74C800.141 550.247 799.514 550.62 798.874 550.86C798.248 551.087 797.554 551.2 796.794 551.2ZM793.914 545.14H799.154C799.074 544.66 798.908 544.233 798.654 543.86C798.414 543.487 798.108 543.193 797.734 542.98C797.374 542.767 796.974 542.66 796.534 542.66C796.094 542.66 795.688 542.767 795.314 542.98C794.954 543.18 794.654 543.467 794.414 543.84C794.174 544.213 794.008 544.647 793.914 545.14ZM807.097 551.2C806.244 551.2 805.444 551.087 804.697 550.86C803.964 550.62 803.33 550.28 802.797 549.84L803.857 548.34C804.524 548.753 805.097 549.047 805.577 549.22C806.07 549.393 806.57 549.48 807.077 549.48C807.677 549.48 808.164 549.353 808.537 549.1C808.91 548.847 809.097 548.52 809.097 548.12C809.097 547.813 808.984 547.573 808.757 547.4C808.544 547.213 808.19 547.073 807.697 546.98L805.937 546.68C804.964 546.493 804.237 546.173 803.757 545.72C803.277 545.267 803.037 544.667 803.037 543.92C803.037 543.293 803.197 542.753 803.517 542.3C803.85 541.833 804.304 541.473 804.877 541.22C805.464 540.953 806.144 540.82 806.917 540.82C807.61 540.82 808.284 540.92 808.937 541.12C809.59 541.32 810.23 541.62 810.857 542.02L809.797 543.52C809.29 543.187 808.784 542.947 808.277 542.8C807.784 542.64 807.284 542.56 806.777 542.56C806.257 542.56 805.837 542.667 805.517 542.88C805.21 543.08 805.057 543.36 805.057 543.72C805.057 544.04 805.157 544.287 805.357 544.46C805.57 544.62 805.937 544.74 806.457 544.82L808.237 545.16C809.237 545.333 809.977 545.653 810.457 546.12C810.95 546.573 811.197 547.18 811.197 547.94C811.197 548.553 811.017 549.107 810.657 549.6C810.297 550.093 809.81 550.487 809.197 550.78C808.584 551.06 807.884 551.2 807.097 551.2Z" fill="#123D6C"/>
<defs>
<filter id="filter0_f_1125_4355" x="-184" y="0" width="1808" height="1660" filterUnits="userSpaceOnUse" color-interpolation-filters="sRGB">
<feFlood flood-opacity="0" result="BackgroundImageFix"/>
<feBlend mode="normal" in="SourceGraphic" in2="BackgroundImageFix" result="shape"/>
<feGaussianBlur stdDeviation="252" result="effect1_foregroundBlur_1125_4355"/>
</filter>
<linearGradient id="paint0_linear_1125_4355" x1="720" y1="504" x2="720" y2="1156" gradientUnits="userSpaceOnUse">
<stop stop-color="#BFE4F4"/>
<stop offset="1" stop-color="#DEDEDE"/>
</linearGradient>
<linearGradient id="paint1_linear_1125_4355" x1="520.622" y1="776.747" x2="674.106" y2="945.58" gradientUnits="userSpaceOnUse">
<stop stop-color="#4D4D4F"/>
<stop offset="0.697917" stop-color="#123D6C"/>
</linearGradient>
</defs>
</svg>